<svg id="Layer_1" data-name="Layer 1" xmlns="http://www.w3.org/2000/svg" viewBox="0 0 1366 768"><defs><style>.cls-1{fill:#fae072;}.cls-2{fill:#fff;}.cls-3{fill:#ed193f;}</style></defs><title>twitterArtboard 1</title><rect class="cls-1" width="1366" height="768"/><path class="cls-2" d="M935.59,213A327.66,327.66,0,0,0,746.75,99.77L743.08,99l-1.46,7.33,3.67.73a317.45,317.45,0,0,1,56.42,16.79L770.2,200l6.9,2.86,31.51-76.07A319.08,319.08,0,0,1,906,192L850.5,247.46h0l-5.28,5.29,2.64,2.64a233.76,233.76,0,0,1,26.88,32.25l-29.6,19.77a196.49,196.49,0,0,0-49.31-49.31l45.81-68.55-6.21-4.15-45.78,68.52h0l-4.15,6.22,3.1,2.08A188.9,188.9,0,0,1,841,314.65l2.08,3.1,3.1-2.07h0L882,291.75h0l3.1-2.08-2.07-3.1a241.08,241.08,0,0,0-27.32-33.79l55.48-55.48a320.36,320.36,0,0,1,84.12,157L956.84,362l1.46,7.34,38.52-7.67a318.32,318.32,0,0,1-46.38,232.82L882,548.74,877.88,555l68.4,45.69a322,322,0,0,1-82.87,82.87L843.72,654h0l-4.16-6.21-3.1,2.08a274.79,274.79,0,0,1-95.92,40.47L724.48,609.6l-.73-3.66-3.67.73a190,190,0,0,1-106.35-9.43l13.61-32.85h0l2.86-6.9-3.46-1.43A146.58,146.58,0,0,1,536,420.24c0-81.05,65.94-147,147-147s147,65.95,147,147-66,147-147,147h-3.74v7.47H683a153.8,153.8,0,0,0,55.65-10.37l30.12,72.72h0l2.86,6.9,3.45-1.42A239.45,239.45,0,0,0,850.47,593l27.84,27.84,5.29-5.28-27.82-27.82-5.28-5.28-25.18-25.18a197,197,0,0,0,38.75-58l76.14,31.54,2.86-6.91-76.13-31.53A197.38,197.38,0,0,0,876,462.45l38.59,7.67,1.46-7.33-38.61-7.68a197.44,197.44,0,0,0-.7-73.4L876,378l-7.33,1.46.73,3.66A190.11,190.11,0,0,1,788.6,578.29l-3.1,2.07,4.15,6.22,3.1-2.08a197.57,197.57,0,0,0,27.27-22l25.16,25.16a231.8,231.8,0,0,1-69.52,46.46l-30.11-72.69A154.46,154.46,0,0,0,827.11,364.6l72.68-30.1a232,232,0,0,1,16.35,85.74V424h43a277.66,277.66,0,0,1-5.26,50.15l-.73,3.67,7.33,1.45.73-3.66a284.82,284.82,0,0,0,5.45-55.35v-3.73H923.57a239.25,239.25,0,0,0-16.88-84.88L939.62,318h0l6.9-2.87-1.43-3.45a285.06,285.06,0,0,0-26.21-49l-2.08-3.11-6.21,4.15,2.07,3.11a275.85,275.85,0,0,1,24.05,44.32L824.24,357.7A155.42,155.42,0,0,0,745.55,279l14.69-35.48,1.81-4.37-3.45-1.43a198.52,198.52,0,0,0-33.4-10.48l15.35-77.18h0l1.46-7.33-3.66-.73a285.15,285.15,0,0,0-110.69,0l-3.67.73,1.46,7.33,3.66-.73a276.64,276.64,0,0,1,50.15-5.24v39.26h7.48V144.1a276.22,276.22,0,0,1,46.47,4.56l-15.34,77.13A197.62,197.62,0,0,0,683,222.7h-3.74v7.47H683a189.15,189.15,0,0,1,69.27,13.08l-13.62,32.89a154.32,154.32,0,0,0-162.16,32.31L551.24,283.2h0L546,277.92l-2.64,2.64a198.88,198.88,0,0,0-22.5,26.82l-65.39-43.69a276.42,276.42,0,0,1,32.26-38.76l2.64-2.64L485.05,217l-2.65,2.64a282.44,282.44,0,0,0-61.49,92l-1.43,3.45,6.91,2.87h0l36.33,15.05,2.86-6.91-36.29-15a275.44,275.44,0,0,1,22-41.2l65.37,43.68A196.09,196.09,0,0,0,485.5,416.51H399.32v3.73a284,284,0,0,0,5.45,55.35l.73,3.66,7.33-1.45h0l38.57-7.68-1.46-7.33-38.53,7.67A276.65,276.65,0,0,1,406.84,424H485.5A197.39,197.39,0,0,0,499,492.41L466.18,506h0l-6.91,2.86h0l-36.34,15,2.86,6.91,36.38-15.07a241.39,241.39,0,0,0,20.77,38.17L485,557l6.22-4.15-2.08-3.11a233.24,233.24,0,0,1-20.07-36.87l32.78-13.58a197.47,197.47,0,0,0,41.45,60.61l2.65,2.64,5.28-5.28-2.64-2.64A190.06,190.06,0,0,1,546,288.52l25.22,25.22a154.35,154.35,0,0,0,49.25,247.73l-13.65,32.95h0l-2.86,6.9,3.45,1.44a197.46,197.46,0,0,0,110.47,11.92l6.94,34.91A233.15,233.15,0,0,1,556.56,616.2l21.87-32.73-6.21-4.15L550.36,612a235.28,235.28,0,0,1-32.22-26.94l-2.64-2.64-5.28,5.28,2.64,2.64a240.41,240.41,0,0,0,213.41,66.54L734,695.55h0l.73,3.66,3.67-.73a282.24,282.24,0,0,0,99.13-40.32l19.72,29.52a317.33,317.33,0,0,1-170.46,51.8v-43H683a275.32,275.32,0,0,1-153.45-46.55l-3.11-2.08L522.29,654l3.1,2.08a282.73,282.73,0,0,0,153.87,47.77v35.59a318.16,318.16,0,0,1-219.24-91l27.67-27.68-5.29-5.28-27.67,27.67a321.7,321.7,0,0,1-35-42.58l32.59-21.77-4.15-6.21-32.59,21.78a319,319,0,0,1-46.44-232.83l80.81,16.08,1.46-7.33-80.81-16.08c21.62-102.53,92.58-187.08,186.79-227.55l30.09,72.64h0l2.86,6.9,3.45-1.43a233.23,233.23,0,0,1,40.08-12.49l6.95,34.91A196.27,196.27,0,0,0,576.38,254l-19.8-29.63h0l-4.15-6.21h0L530.58,185.4l-6.22,4.15,21.88,32.74a242.09,242.09,0,0,0-33.38,27.81l-2.64,2.65L515.5,258l2.64-2.64a234.23,234.23,0,0,1,32.25-26.88l19.75,29.56h0l.05.07,2,3h0l2.07,3.11,3.11-2.07a189.27,189.27,0,0,1,68.52-28.39l3.66-.72-.72-3.67h0l-.23-1.14-.5-2.52h0l-7-34.92h0l-1.46-7.33-3.66.73a241.24,241.24,0,0,0-41.67,12.31l-30.11-72.69A317.64,317.64,0,0,1,683,101h3.74V93.49H683A326.76,326.76,0,0,0,452,651.3,326.76,326.76,0,0,0,935.59,213Z"/><path class="cls-3" d="M714.79,66.07l0,0h0l-.09.07a2.29,2.29,0,0,0-.23.21l-8.18,8.17a3,3,0,1,0,4.28,4.28l3-3v14a3,3,0,0,0,6.06,0V75.48l3.22,3.21A3,3,0,0,0,728,76.55h0a3,3,0,0,0-.89-2.14l-8.19-8.18A3,3,0,0,0,714.79,66.07Z"/><circle class="cls-3" cx="658.77" cy="550.42" r="9.51"/><rect class="cls-3" x="713.67" y="106.31" width="5.96" height="7.29"/><path class="cls-3" d="M713.67,120.88v-3.31h6v.81l.81.15-1.06,5.86-3.24-.58-2.47-.43Z"/><path class="cls-3" d="M726.23,125.66l1.1-5.86,6.88,1.32L733.07,127C730.63,126.49,728.31,126.05,726.23,125.66Zm13.67,2.66,1.18-5.85,6.87,1.42-1.23,5.83C744.46,129.25,742.16,128.77,739.9,128.32Zm13.6,2.89,1.32-5.81c2.56.58,4.87,1.13,6.87,1.64l-1.47,5.77C758.27,132.32,756,131.78,753.5,131.21Z"/><path class="cls-3" d="M766.67,134.67l1.94-5.63a11.86,11.86,0,0,1,4,2l1.44,1.28-1.56,5-5.69-1.76.23-.72Z"/><path class="cls-3" d="M745.9,202.82l2.09-6.73,5.69,1.76-2.09,6.73Zm4.18-13.46,2.09-6.73,5.69,1.76-2.09,6.73Zm4.18-13.46,2.09-6.73,5.69,1.76L760,177.66Zm4.18-13.46,2.09-6.73,5.69,1.76-2.09,6.73ZM762.62,149l2.09-6.73L770.4,144l-2.09,6.73Z"/><polygon class="cls-3" points="741.98 215.42 743.81 209.55 749.5 211.31 749.36 211.77 749.8 211.93 747.76 217.53 741.98 215.42"/><path class="cls-3" d="M754.24,219.9l2-5.6,6.48,2.37-2,5.6Zm13,4.74,2-5.6,6.48,2.37-2,5.6Z"/><polygon class="cls-3" points="780.18 229.38 782.23 223.78 788.36 226.02 785.66 231.97 780.24 229.5 780.27 229.42 780.18 229.38"/><path class="cls-3" d="M765.93,261l2.38-5.25,5.43,2.46-2.38,5.26Zm4.77-10.51,2.38-5.26,5.43,2.47L776.13,253ZM775.47,240l2.38-5.26,5.43,2.46-2.39,5.26Z"/><path class="cls-3" d="M760.92,272.1l2.62-5.8,5.43,2.46-.16.35.42.21-2.71,5.31c-1.77-.91-2.78-1.34-2.79-1.34Z"/><path class="cls-3" d="M772.46,277.93l3-5.12c2,1.18,4,2.47,6,3.82l-3.32,4.95C776.31,280.29,774.37,279.06,772.46,277.93Zm11.39,7.6,3.54-4.8c1.89,1.39,3.79,2.86,5.64,4.35l-3.75,4.64C787.5,288.28,785.67,286.87,783.85,285.53Zm10.68,8.62,3.94-4.48c1.77,1.56,3.53,3.17,5.25,4.81l-4.12,4.31C798,297.21,796.24,295.65,794.53,294.15Zm10,9.48,4.28-4.14c1.64,1.69,3.27,3.44,4.84,5.21l-4.44,4C807.64,307,806.06,305.27,804.48,303.63Zm9.17,10.26,4.59-3.8c1.5,1.81,3,3.68,4.42,5.56l-4.73,3.62C816.54,317.45,815.1,315.64,813.65,313.89ZM822,324.81l4.87-3.44c1.36,1.92,2.7,3.9,4,5.88l-5,3.26C824.62,328.59,823.32,326.67,822,324.81Z"/><path class="cls-3" d="M829.53,336.34l5.11-3.07.3.51.51-.25L838,338.9l-5.47,2.64-1.38-2.39C830.64,338.2,830.08,337.27,829.53,336.34Z"/><path class="cls-3" d="M841,330.83l5.59-2.71,2.6,5.37-5.59,2.7Zm11.18-5.41,5.58-2.71,2.6,5.37-5.59,2.7ZM863.38,320l5.59-2.7,2.59,5.36L866,325.38Zm11.17-5.41,5.59-2.7,2.6,5.36L877.15,320Zm11.18-5.4,5.59-2.71,2.59,5.37-5.59,2.7Zm11.17-5.41,5.59-2.71,2.59,5.37-5.58,2.7Z"/><polygon class="cls-3" points="908.07 298.41 908.08 298.4 908.08 298.38 908.24 298.3 913.11 295.23 916.65 300.85 910.67 303.75 908.07 298.41"/><path class="cls-3" d="M887.25,265.42l5-3.18,3.47,5.5-5,3.18Zm6.94,11,5-3.18,3.47,5.5-5,3.18Zm6.94,11,5-3.18,3.47,5.5-5,3.18Z"/><polygon class="cls-3" points="880.6 254.88 885.24 251.13 888.99 255.77 888.47 256.19 888.83 256.75 883.79 259.93 880.6 254.88"/><path class="cls-3" d="M890.66,246.76l5.41-4.38,3.75,4.64-5.42,4.37ZM901.49,238l5.41-4.37,3.75,4.63-5.42,4.38Z"/><path class="cls-3" d="M912.32,229.25l4.9-4,1.87,2.33s.75.93,2.08,2.66l-4.73,3.63-.15-.2-.22.17Z"/><path class="cls-3" d="M920.42,239.2l4.8-3.54c1.3,1.76,2.63,3.6,3.95,5.45l-4.85,3.46C923,242.75,921.71,240.94,920.42,239.2ZM928.14,250l4.9-3.39c1.27,1.84,2.55,3.71,3.79,5.57l-5,3.31C930.65,253.67,929.39,251.82,928.14,250Zm7.38,11,5-3.24c1.23,1.9,2.45,3.81,3.61,5.68l-5,3.16C937.92,264.8,936.73,262.92,935.52,261.05Zm7,11.26,5.11-3.07c1.16,1.93,2.31,3.88,3.41,5.81l-5.16,3C944.81,276.13,943.68,274.21,942.54,272.31Zm6.61,11.49,5.22-2.88c1.1,2,2.17,4,3.19,5.95l-5.28,2.76C951.28,287.72,950.22,285.75,949.15,283.8Zm6.12,11.73,5.34-2.64c1,2.06,2,4.11,2.92,6.11l-5.42,2.49C957.21,299.54,956.26,297.53,955.27,295.53Zm5.52,12,5.48-2.33c.9,2.11,1.76,4.22,2.56,6.28l-5.56,2.15C962.5,311.62,961.66,309.57,960.79,307.52Zm4.74,12.27,5.63-1.94c.76,2.19,1.46,4.37,2.08,6.49L967.53,326C966.93,324,966.25,321.9,965.53,319.79Z"/><path class="cls-3" d="M968.82,332.88l.5-.14c0-.16-.07-.31-.11-.46l5.8-1.4c.27,1.12.52,2.23.75,3.31l.57,2.7-5.83,1.71Z"/><path class="cls-3" d="M939.65,341.44l7.29-2.14,1.68,5.72-7.3,2.14Zm14.59-4.28,7.29-2.14,1.68,5.72-7.3,2.14Z"/><path class="cls-3" d="M926.47,345.3l5.88-1.72L934,349.3l-.47.13c0,.16.07.32.11.49l-5.81,1.34c-.46-2-.75-3.2-.75-3.21Z"/><path class="cls-3" d="M929.25,357.34l5.81-1.3c.42,1.87.89,3.93,1.37,6.12l-5.82,1.28C930.13,361.27,929.67,359.21,929.25,357.34Zm2.68,12.2,5.83-1.24c.43,2,.86,4.1,1.28,6.15l-5.84,1.2C932.79,373.61,932.36,371.56,931.93,369.54Zm2.49,12.21,5.85-1.12c.44,2.27.82,4.36,1.14,6.22l-5.87,1C935.22,386,934.85,384,934.42,381.75Z"/><path class="cls-3" d="M936.46,393.89l5.92-.74c0,.14,0,.28,0,.42l.31,0,.56,5.93-6.41.61-.14-3.13C936.72,396.17,936.62,395.14,936.46,393.89Z"/><path class="cls-3" d="M949.81,392.87l7.07-.67.56,5.93-7.06.67ZM964,391.53l7.07-.67.56,5.93-7.06.67Z"/><path class="cls-3" d="M978.09,390.19l6.18-.59.36,2.87s.15,1.23.34,3.4l-5.93.53,0-.31-.36,0Z"/><path class="cls-3" d="M949.19,550.11c1-1.9,2.09-3.86,3.09-5.82l5.31,2.71c-1,2-2.1,4-3.17,6Zm6-11.74c.93-2,1.84-4,2.72-6l5.47,2.39c-.91,2.07-1.85,4.14-2.8,6.16Zm5.27-12.09c.82-2,1.62-4.1,2.38-6.16l5.59,2.07c-.78,2.11-1.6,4.24-2.44,6.31ZM965,513.89c.7-2.06,1.39-4.18,2-6.28l5.69,1.77c-.67,2.15-1.37,4.31-2.09,6.43ZM969,501.27c.59-2.1,1.17-4.24,1.72-6.38l5.77,1.48c-.56,2.18-1.15,4.38-1.76,6.53Zm3.28-12.81c.49-2.13,1-4.3,1.41-6.46l5.84,1.2c-.46,2.21-.94,4.43-1.44,6.6Zm2.67-13c.4-2.15.77-4.34,1.12-6.52l5.88.94c-.35,2.22-.73,4.46-1.13,6.65ZM977,462.43c.3-2.18.58-4.39.83-6.57l5.92.68c-.26,2.23-.54,4.48-.84,6.7Zm1.52-13.16c.21-2.19.4-4.41.56-6.6l5.94.44c-.16,2.23-.35,4.49-.56,6.72Zm1-13.21c.11-2.21.21-4.43.28-6.62l6,.19c-.07,2.23-.17,4.5-.29,6.74Zm0-33.09,6-.34c.12,2.19.22,4.46.3,6.75l-6,.19C979.73,407.33,979.63,405.11,979.51,403Zm.42,19.84c0-2.32,0-4.53,0-6.62l6-.06q0,3.21,0,6.75Z"/><path class="cls-3" d="M942.51,561.41l2.6-5.36.54.26.29-.49,5.13,3c-.57,1-1.15,1.92-1.74,2.87l-1.41,2.3Z"/><path class="cls-3" d="M882.51,532.33l2.6-5.36,6,2.9-2.6,5.37Zm12,5.81,2.6-5.36,6,2.91-2.6,5.36Zm12,5.82,2.6-5.36,6,2.91-2.6,5.36Zm12,5.82,2.6-5.37,6,2.91-2.6,5.37Zm12,5.81,2.6-5.36,6,2.91-2.6,5.36Z"/><polygon class="cls-3" points="870.45 526.13 873.93 521.55 879.11 524.06 876.51 529.42 875.72 529.04 875.2 529.73 870.45 526.13"/><path class="cls-3" d="M853.55,548.4l4.23-5.57,4.75,3.61L858.3,552ZM862,537.27l4.23-5.57,4.74,3.6-4.22,5.57Z"/><polygon class="cls-3" points="845.66 558.8 849.33 553.97 854.08 557.57 853.74 558.01 854.15 558.39 850.19 562.84 845.66 558.8"/><path class="cls-3" d="M855.25,567.35l4-4.45,5.07,4.52-4,4.45Zm10.14,9,4-4.45,5.07,4.52-4,4.45Zm10.13,9,4-4.45,5.07,4.51-4,4.45Zm10.13,9,4-4.45,5.06,4.52-4,4.45Zm10.13,9,4-4.45,5.06,4.52-4,4.45Z"/><path class="cls-3" d="M905.91,612.51l4-4.44,4.47,4-1.56,2.18s-.74,1-2.06,2.73L906,613.31l.32-.42Z"/><path class="cls-3" d="M876.71,643.09c1.78-1.41,3.58-2.91,5.36-4.45l3.91,4.49c-1.84,1.6-3.71,3.16-5.56,4.63Zm10.52-9.15c1.66-1.57,3.34-3.21,5-4.89l4.26,4.17c-1.7,1.73-3.43,3.43-5.15,5.06ZM897,624c1.57-1.73,3.12-3.5,4.61-5.26l4.55,3.86c-1.53,1.81-3.13,3.63-4.75,5.41Z"/><path class="cls-3" d="M865.78,650.94l4.6-3.8.36.44.43-.3,3.47,4.85c-.92.65-1.84,1.3-2.78,1.93l-2.25,1.52Z"/><path class="cls-3" d="M849.9,631.69l4.6-3.79,4,4.81-4.6,3.79Zm7.94,9.62,4.6-3.79,4,4.81-4.6,3.79Z"/><path class="cls-3" d="M841.72,622c1.68-1.2,2.61-1.9,2.62-1.91l2.28-1.7,3.91,4.75-4.59,3.79-.32-.39-.43.31Z"/><path class="cls-3" d="M766.28,662.77c1.87-.59,3.8-1.26,5.76-2l2.05,5.59c-2,.75-4.05,1.44-6,2.06Zm11.45-4.18c1.83-.75,3.73-1.56,5.64-2.41l2.42,5.45c-2,.87-3.92,1.71-5.8,2.48Zm11.21-5c1.81-.87,3.66-1.78,5.51-2.72l2.69,5.32c-1.88.95-3.78,1.89-5.64,2.77Zm11-5.56c1.78-.95,3.6-1.94,5.41-2.95l2.9,5.2c-1.84,1-3.69,2-5.5,3Zm10.76-6c1.74-1,3.52-2.07,5.3-3.15L819,644c-1.8,1.1-3.61,2.17-5.38,3.2Zm10.55-6.38c1.73-1.08,3.49-2.2,5.21-3.31l3.24,5c-1.75,1.13-3.53,2.26-5.28,3.36Zm10.37-6.7c1.72-1.16,3.44-2.33,5.1-3.47l3.39,4.9c-1.69,1.16-3.43,2.35-5.18,3.52Z"/><path class="cls-3" d="M754.15,666l5.64-1.94.19.57.53-.14,1.51,5.77c-1.12.29-2.23.56-3.31.81l-2.61.59Z"/><path class="cls-3" d="M730.26,596.55l5.64-1.94,2,5.78-5.64,1.94Zm4,11.57,5.64-1.94,2,5.78-5.63,1.94Zm4,11.57,5.63-1.94,2,5.78-5.63,1.94Zm4,11.57,5.63-1.94,2,5.78L744.2,637Zm4,11.57,5.63-2,2,5.79-5.64,1.94Zm4,11.56,5.64-1.94,2,5.79-5.64,1.94Z"/><path class="cls-3" d="M726.13,584.54c2-.46,3.11-.75,3.12-.76l2.68-.7,2,5.75-5.64,1.93-.19-.56-.62.15Z"/><path class="cls-3" d="M660.1,593.81l1.1-5.85c2,.38,4.19.71,6.39,1l-.7,5.92C664.55,594.57,662.27,594.22,660.1,593.81Zm13.6,1.64.36-6c2.1.13,4.29.2,6.51.23l-.07,6C678.18,595.66,675.89,595.58,673.7,595.45Zm13.41-5.79c2.13-.06,4.33-.17,6.54-.32l.41,5.94c-2.29.16-4.56.28-6.77.34Zm13.08-.88c2.15-.22,4.35-.48,6.53-.77l.79,5.91c-2.24.3-4.5.56-6.71.79Zm13-1.74c2.16-.35,4.34-.74,6.48-1.15l1.13,5.85c-2.2.42-4.43.82-6.65,1.18Z"/><path class="cls-3" d="M647.41,590.39l1.5-5.9,5.78,1.47-.12.45.38.1-1.59,5.75c-1.12-.31-2.23-.65-3.31-1Z"/><rect class="cls-3" x="651.09" y="574.25" width="5.5" height="5.96" transform="translate(-66.91 1068.37) rotate(-75.71)"/></svg>