<svg id="Layer_1" data-name="Layer 1" xmlns="http://www.w3.org/2000/svg" viewBox="0 0 1366 768"><defs><style>.cls-1{fill:#fae072;}.cls-2{fill:#fff;}.cls-3{fill:#ed193f;}</style></defs><title>twitterArtboard 1</title><rect class="cls-1" width="1366" height="768"/><path class="cls-2" d="M879.35,228a254.68,254.68,0,0,0-146.8-88l-2.85-.56-1.13,5.69,2.85.57a246.57,246.57,0,0,1,43.86,13.06l-24.5,59.13,5.37,2.22L780.64,161a248,248,0,0,1,75.67,50.73l-43.1,43.1h0l-4.11,4.11,2,2A182.35,182.35,0,0,1,832.05,286L809,301.4a152.76,152.76,0,0,0-38.33-38.33l35.61-53.28-4.83-3.23L765.9,259.82h0l-3.23,4.83,2.42,1.61A146.9,146.9,0,0,1,805.85,307l1.62,2.41,2.41-1.61h0l27.84-18.6h0l2.41-1.62-1.61-2.41a188.69,188.69,0,0,0-21.23-26.27l43.12-43.12a249,249,0,0,1,65.4,122l-29.94,6,1.13,5.7,29.94-6a247.35,247.35,0,0,1-36.05,181L837.72,489l-3.23,4.83,53.17,35.52a250.35,250.35,0,0,1-64.42,64.42l-15.31-22.92h0L804.7,566l-2.41,1.62a213.68,213.68,0,0,1-74.56,31.46l-12.49-62.79-.56-2.85-2.85.57a147.92,147.92,0,0,1-82.67-7.33l10.57-25.53h0L642,495.8l-2.69-1.11a114.27,114.27,0,1,1,43.73,8.7h-2.9v5.81H683a119.58,119.58,0,0,0,43.26-8.07l23.41,56.53h0l2.22,5.37,2.69-1.12a185.94,185.94,0,0,0,58.6-38.51L834.82,545l4.11-4.1-21.62-21.63-4.1-4.1-19.58-19.57a153.09,153.09,0,0,0,30.12-45.08l59.19,24.51,2.22-5.36L826,445.19a152.74,152.74,0,0,0,7-23.27l30,6,1.14-5.69-30-6a153.65,153.65,0,0,0-.54-57.07l-.56-2.85-5.7,1.14.56,2.85A147.74,147.74,0,0,1,765.09,512l-2.42,1.62,3.23,4.83,2.42-1.62a154.2,154.2,0,0,0,21.19-17.06l19.56,19.56a180,180,0,0,1-54,36.11l-23.41-56.5a120.07,120.07,0,0,0,63.4-153l56.5-23.4a180.22,180.22,0,0,1,12.71,66.65V392h33.45a216.12,216.12,0,0,1-4.09,39l-.57,2.85,5.7,1.13.56-2.85a221,221,0,0,0,4.24-43v-2.9H870a186,186,0,0,0-13.13-66l25.6-10.6h0l5.37-2.22-1.11-2.69a221.85,221.85,0,0,0-20.38-38.12l-1.62-2.42-4.83,3.23,1.62,2.42a215.1,215.1,0,0,1,18.69,34.45l-87.43,36.21a120.86,120.86,0,0,0-61.17-61.17L743,251.75l1.41-3.4-2.68-1.11a153.7,153.7,0,0,0-26-8.15l11.93-60h0l1.13-5.69-2.85-.57a221.65,221.65,0,0,0-86,0l-2.85.57,1.13,5.69,2.85-.56a214.23,214.23,0,0,1,39-4.07V205h5.81V174.46A214.38,214.38,0,0,1,722,178l-11.92,60A153,153,0,0,0,683,235.55h-2.9v5.81H683a146.88,146.88,0,0,1,53.85,10.17l-10.59,25.56a120,120,0,0,0-126,25.12l-19.63-19.63h0l-4.11-4.11-2.05,2.06a154,154,0,0,0-17.49,20.85l-50.83-34a214.51,214.51,0,0,1,25.08-30.13l2.05-2.06-4.11-4.1-2,2.05a219.45,219.45,0,0,0-47.8,71.54l-1.11,2.69,5.36,2.22h0l28.25,11.7L514,316l-28.21-11.68a215.36,215.36,0,0,1,17.09-32l50.82,33.95a152.42,152.42,0,0,0-24.21,80h-67v2.9a221,221,0,0,0,4.24,43l.57,2.85,5.69-1.13h0l30-6-1.13-5.69-29.95,5.95A214.61,214.61,0,0,1,468.33,392h61.15A153.45,153.45,0,0,0,540,445.21l-25.52,10.57h0L509.09,458h0l-28.25,11.7,2.22,5.36,28.28-11.71A188.41,188.41,0,0,0,527.48,493l1.62,2.41,4.83-3.23-1.62-2.41a181.88,181.88,0,0,1-15.6-28.66l25.49-10.56a153.37,153.37,0,0,0,32.22,47.12l2.05,2.05,4.11-4.11-2.05-2.05a147.74,147.74,0,0,1-2-206.88l19.6,19.61a120,120,0,0,0,38.29,192.57l-10.61,25.62h0l-2.23,5.36,2.68,1.11a153.38,153.38,0,0,0,85.87,9.27l5.4,27.14a181.31,181.31,0,0,1-130.78-25.95l17-25.45-4.84-3.23-17,25.44a183.73,183.73,0,0,1-25-20.94l-2.05-2-4.11,4.1,2,2.06a186.94,186.94,0,0,0,165.9,51.72l6,30h0l.56,2.85,2.85-.57a219.35,219.35,0,0,0,77.06-31.34l15.34,23a246.7,246.7,0,0,1-132.51,40.27V603.82H683a214,214,0,0,1-119.29-36.18L561.3,566l-3.23,4.83,2.42,1.62A219.75,219.75,0,0,0,680.1,609.6v27.67a247.35,247.35,0,0,1-170.43-70.71L531.18,545l-4.11-4.1-21.51,21.51a249,249,0,0,1-27.21-33.1l25.32-16.92-3.22-4.83-25.34,16.93a247.93,247.93,0,0,1-36.09-181L501.84,356l1.13-5.7-62.82-12.5c16.8-79.7,72-145.42,145.2-176.88l23.39,56.46h0l2.22,5.37,2.69-1.11A181.38,181.38,0,0,1,644.8,212l5.4,27.14a152.61,152.61,0,0,0-50.08,20.75l-15.39-23h0L581.5,232h0l-17-25.42-4.83,3.23,17,25.45a187.69,187.69,0,0,0-26,21.61l-2,2.06L552.8,263l2.05-2.06a181.57,181.57,0,0,1,25.07-20.89l15.35,23h0l0,.06,1.57,2.36h0l1.62,2.42,2.41-1.62a147.07,147.07,0,0,1,53.27-22.06l2.84-.57-.56-2.85h0l-.18-.88-.39-2h0l-5.4-27.14h0l-1.13-5.7-2.85.57a186.63,186.63,0,0,0-32.39,9.56l-23.4-56.5A246.72,246.72,0,0,1,683,140.92h2.91v-5.81H683A254,254,0,1,0,879.35,228Z"/><path class="cls-3" d="M707.71,113.8l0,0h0l-.07,0-.17.16-6.36,6.35a2.35,2.35,0,0,0,1.66,4,2.3,2.3,0,0,0,1.66-.69l2.35-2.34v10.84a2.36,2.36,0,1,0,4.71,0V121.11l2.5,2.5a2.35,2.35,0,0,0,4-1.67h0a2.31,2.31,0,0,0-.69-1.66l-6.36-6.35A2.36,2.36,0,0,0,707.71,113.8Z"/><circle class="cls-3" cx="664.16" cy="490.3" r="7.39"/><rect class="cls-3" x="706.84" y="145.08" width="4.63" height="5.66"/><path class="cls-3" d="M706.84,156.4v-2.57h4.64v.63l.63.12-.83,4.56-2.52-.46-1.92-.34Z"/><path class="cls-3" d="M716.6,160.12l.86-4.55c1.63.3,3.44.65,5.34,1l-.88,4.55C720,160.77,718.22,160.42,716.6,160.12Zm10.63,2.07.92-4.55c1.77.36,3.57.73,5.34,1.11l-1,4.53C730.77,162.91,729,162.54,727.23,162.19Zm10.57,2.24,1-4.52c2,.46,3.79.89,5.34,1.28L743,165.68C741.51,165.3,739.76,164.88,737.8,164.43Z"/><path class="cls-3" d="M748,167.12l1.51-4.38a9.36,9.36,0,0,1,3.11,1.54l1.11,1-1.2,3.89-4.43-1.38.18-.56Z"/><path class="cls-3" d="M731.89,220.1l1.63-5.24,4.42,1.38-1.62,5.23Zm3.25-10.47,1.63-5.23,4.42,1.38L739.57,211Zm3.25-10.46,1.63-5.23,4.42,1.37-1.62,5.23Zm3.25-10.46,1.63-5.23,4.42,1.37-1.62,5.23Zm3.25-10.47,1.63-5.23,4.42,1.38-1.62,5.23Z"/><polygon class="cls-3" points="728.85 229.89 730.27 225.33 734.69 226.7 734.58 227.05 734.93 227.18 733.34 231.53 728.85 229.89"/><path class="cls-3" d="M738.38,233.38,740,229l5,1.85-1.59,4.35Zm10.08,3.68,1.59-4.35,5,1.84-1.59,4.35Z"/><polygon class="cls-3" points="758.54 240.75 760.14 236.4 764.9 238.14 762.8 242.76 758.59 240.84 758.62 240.77 758.54 240.75"/><path class="cls-3" d="M747.46,265.36l1.86-4.09,4.22,1.92-1.86,4.08Zm3.71-8.17L753,253.1l4.22,1.91-1.85,4.09Zm3.71-8.18,1.85-4.08,4.22,1.91-1.85,4.09Z"/><path class="cls-3" d="M743.57,274l2-4.51,4.22,1.92-.12.27.32.16-2.11,4.13c-1.37-.7-2.16-1-2.17-1Z"/><path class="cls-3" d="M752.54,278.48l2.37-4c1.55.92,3.13,1.92,4.7,3L757,281.32C755.53,280.32,754,279.36,752.54,278.48Zm8.86,5.91,2.75-3.73c1.46,1.08,2.94,2.22,4.38,3.39l-2.91,3.6C764.23,286.53,762.81,285.43,761.4,284.39Zm8.3,6.7,3.06-3.48c1.37,1.21,2.75,2.47,4.08,3.74l-3.2,3.35C772.35,293.47,771,292.26,769.7,291.09Zm7.73,7.38,3.33-3.22c1.27,1.31,2.54,2.67,3.76,4l-3.45,3.09C779.89,301.06,778.66,299.74,777.43,298.47Zm7.13,8,3.57-2.95c1.16,1.41,2.32,2.87,3.43,4.32l-3.68,2.82C786.8,309.21,785.68,307.8,784.56,306.43Zm6.49,8.5,3.79-2.68c1,1.5,2.09,3,3.1,4.57l-3.88,2.53C793.09,317.86,792.07,316.37,791.05,314.93Z"/><path class="cls-3" d="M796.9,323.89l4-2.39.24.4.39-.19,2,4.17-4.25,2.05-1.08-1.86C797.76,325.34,797.34,324.61,796.9,323.89Z"/><path class="cls-3" d="M805.85,319.6l4.34-2.1,2,4.17-4.34,2.1Zm8.68-4.2,4.35-2.1,2,4.17-4.34,2.1Zm8.69-4.2,4.34-2.11,2,4.17-4.34,2.11ZM831.9,307l4.35-2.1,2,4.17-4.34,2.1Zm8.69-4.2,4.34-2.1,2,4.17-4.34,2.1Zm8.68-4.2,4.35-2.11,2,4.17-4.35,2.11Z"/><polygon class="cls-3" points="857.95 294.4 857.97 294.4 857.96 294.38 858.09 294.32 861.87 291.93 864.63 296.3 859.98 298.55 857.95 294.4"/><path class="cls-3" d="M841.78,268.76l3.91-2.47,2.7,4.27L844.47,273Zm5.39,8.55,3.92-2.47,2.69,4.27-3.92,2.47Zm5.39,8.55,3.92-2.47,2.7,4.27-3.92,2.47Z"/><polygon class="cls-3" points="836.61 260.57 840.21 257.66 843.12 261.26 842.72 261.58 843 262.02 839.08 264.49 836.61 260.57"/><path class="cls-3" d="M844.42,254.25l4.21-3.4,2.91,3.6-4.21,3.41Zm8.42-6.8,4.21-3.4,2.91,3.6-4.21,3.4Z"/><path class="cls-3" d="M861.26,240.64l3.81-3.08,1.45,1.82s.59.72,1.62,2.06l-3.68,2.83-.12-.16-.17.14Z"/><path class="cls-3" d="M867.56,248.38l3.73-2.75c1,1.37,2,2.79,3.07,4.23l-3.77,2.7C869.58,251.13,868.56,249.73,867.56,248.38Zm6,8.4,3.81-2.63c1,1.43,2,2.88,2.94,4.32l-3.85,2.58C875.51,259.63,874.53,258.19,873.56,256.78Zm5.73,8.58,3.89-2.51c1,1.47,1.9,3,2.81,4.41l-3.93,2.46C881.16,268.28,880.23,266.82,879.29,265.36Zm5.46,8.75,4-2.38c.9,1.5,1.8,3,2.66,4.51l-4,2.32C886.51,277.08,885.64,275.59,884.75,274.11Zm5.14,8.93,4.06-2.23c.85,1.55,1.68,3.11,2.48,4.63l-4.11,2.14C891.54,286.09,890.72,284.57,889.89,283Zm4.76,9.12,4.15-2c.79,1.59,1.55,3.19,2.26,4.74l-4.2,1.94C896.16,295.28,895.41,293.72,894.65,292.16Zm4.29,9.33,4.26-1.82c.7,1.64,1.37,3.29,2,4.88l-4.32,1.68C900.26,304.68,899.61,303.08,898.94,301.49Zm3.68,9.53,4.38-1.5c.59,1.7,1.13,3.39,1.62,5l-4.44,1.31C903.71,314.3,903.18,312.66,902.62,311Z"/><path class="cls-3" d="M905.18,321.2l.39-.11-.09-.36,4.51-1.09c.21.87.4,1.74.58,2.58l.44,2.1-4.52,1.33Z"/><path class="cls-3" d="M882.5,327.85l5.67-1.66,1.31,4.44-5.67,1.67Zm11.34-3.32,5.67-1.67,1.31,4.45L895.15,329Z"/><path class="cls-3" d="M872.26,330.86l4.57-1.35,1.31,4.45-.37.11c0,.12.05.25.08.38l-4.51,1c-.36-1.57-.58-2.49-.58-2.5Z"/><path class="cls-3" d="M874.42,340.22l4.52-1c.33,1.45.68,3.06,1.06,4.76l-4.53,1C875.1,343.27,874.74,341.66,874.42,340.22Zm2.08,9.48,4.53-1c.34,1.58.68,3.19,1,4.79l-4.54.93C877.17,352.86,876.83,351.27,876.5,349.7Zm1.94,9.49,4.55-.87c.34,1.76.64,3.38.88,4.83l-4.56.79C879.06,362.52,878.77,360.93,878.44,359.19Z"/><path class="cls-3" d="M880,368.63l4.59-.58c0,.11,0,.22,0,.32l.25,0,.44,4.61-5,.48-.11-2.44C880.22,370.4,880.15,369.6,880,368.63Z"/><path class="cls-3" d="M890.4,367.83l5.5-.52.44,4.61-5.5.52Zm11-1,5.49-.52.44,4.61-5.5.52Z"/><path class="cls-3" d="M912.39,365.75l4.8-.46.28,2.23s.12,1,.27,2.65l-4.62.4c0-.08,0-.16,0-.23l-.28,0Z"/><path class="cls-3" d="M889.92,490.07c.81-1.48,1.62-3,2.4-4.53l4.13,2.1c-.8,1.57-1.63,3.14-2.47,4.66Zm4.66-9.13c.72-1.54,1.43-3.11,2.11-4.67l4.25,1.85c-.7,1.61-1.43,3.22-2.17,4.79Zm4.1-9.4c.63-1.58,1.25-3.19,1.84-4.79l4.35,1.61c-.61,1.64-1.25,3.29-1.9,4.9Zm3.56-9.63c.55-1.61,1.08-3.25,1.59-4.88l4.42,1.37c-.52,1.67-1.06,3.35-1.62,5Zm3-9.81c.46-1.63.91-3.3,1.33-5l4.49,1.15c-.43,1.69-.89,3.4-1.36,5.07Zm2.55-10c.38-1.65.75-3.35,1.1-5l4.53.93c-.35,1.72-.73,3.44-1.12,5.13Zm2.08-10.07c.3-1.67.59-3.38.86-5.08l4.58.73c-.28,1.73-.58,3.47-.89,5.18Zm1.62-10.17c.23-1.69.45-3.41.64-5.1l4.61.53c-.2,1.73-.42,3.48-.66,5.2Zm1.18-10.23c.16-1.7.31-3.42.43-5.13l4.62.34c-.12,1.74-.27,3.5-.43,5.23Zm.76-10.27c.09-1.71.16-3.44.22-5.14l4.63.15c-.06,1.73-.13,3.49-.22,5.24Zm0-25.72,4.62-.26c.1,1.7.18,3.47.23,5.25l-4.63.15C913.66,379.07,913.58,377.35,913.49,375.68Zm.32,15.43c0-1.81,0-3.53,0-5.15l4.63,0c0,1.66,0,3.42,0,5.25Z"/><path class="cls-3" d="M884.73,498.85l2-4.17.42.2.22-.38,4,2.36c-.44.75-.89,1.49-1.35,2.24l-1.1,1.78Z"/><path class="cls-3" d="M838.09,476.24l2-4.17,4.66,2.26-2,4.17Zm9.32,4.52,2-4.17,4.67,2.26-2,4.17Zm9.33,4.52,2-4.17,4.67,2.26-2,4.17Zm9.33,4.52,2-4.17,4.67,2.26-2,4.17Zm9.33,4.52,2-4.16,4.67,2.26-2,4.17Z"/><polygon class="cls-3" points="828.71 471.42 831.42 467.86 835.44 469.81 833.42 473.98 832.81 473.68 832.4 474.22 828.71 471.42"/><path class="cls-3" d="M815.58,488.73l3.28-4.33,3.69,2.8-3.28,4.33Zm6.57-8.65,3.28-4.33,3.69,2.8-3.28,4.33Z"/><polygon class="cls-3" points="809.44 496.82 812.29 493.06 815.99 495.86 815.72 496.21 816.05 496.49 812.96 499.95 809.44 496.82"/><path class="cls-3" d="M816.9,503.46,820,500l3.94,3.51L820.84,507Zm7.88,7,3.08-3.45,3.94,3.51L828.71,514Zm7.87,7,3.09-3.46,3.93,3.51L836.59,521Zm7.88,7,3.08-3.46,3.94,3.51L844.47,528Zm7.87,7,3.09-3.46,3.93,3.51-3.08,3.46Z"/><path class="cls-3" d="M856.28,538.57l3.08-3.46,3.48,3.1-1.21,1.69s-.58.81-1.61,2.13l-3.66-2.84.25-.32Z"/><path class="cls-3" d="M833.58,562.34c1.38-1.1,2.78-2.26,4.16-3.46l3,3.49c-1.43,1.25-2.88,2.46-4.32,3.6Zm8.18-7.11c1.29-1.22,2.59-2.5,3.87-3.81l3.31,3.25c-1.32,1.34-2.67,2.66-4,3.93Zm7.6-7.76c1.22-1.34,2.43-2.71,3.59-4.08l3.53,3c-1.19,1.41-2.44,2.83-3.7,4.21Z"/><path class="cls-3" d="M825.08,568.44l3.58-3,.28.34.33-.24,2.7,3.77c-.71.51-1.43,1-2.16,1.51l-1.75,1.18Z"/><path class="cls-3" d="M812.74,553.48l3.58-3,3.08,3.74-3.57,3Zm6.17,7.48,3.58-3,3.08,3.74-3.57,3Z"/><path class="cls-3" d="M806.38,545.91c1.31-.94,2-1.48,2-1.49l1.77-1.32,3,3.69-3.57,3-.25-.3-.33.23Z"/><path class="cls-3" d="M747.74,577.64c1.45-.46,3-1,4.48-1.54l1.59,4.35c-1.58.58-3.15,1.12-4.66,1.6Zm8.9-3.25c1.42-.58,2.9-1.21,4.38-1.87l1.88,4.23c-1.52.68-3,1.33-4.51,1.93Zm8.71-3.87c1.41-.67,2.85-1.38,4.28-2.11l2.1,4.13c-1.47.75-2.94,1.47-4.38,2.16Zm8.52-4.32c1.38-.73,2.8-1.51,4.2-2.29l2.26,4c-1.43.8-2.87,1.59-4.27,2.34Zm8.36-4.67c1.36-.79,2.74-1.61,4.12-2.45l2.4,4c-1.4.85-2.81,1.68-4.18,2.48Zm8.21-5c1.34-.84,2.71-1.71,4-2.58l2.51,3.89c-1.36.88-2.74,1.76-4.1,2.62Zm8-5.21c1.35-.9,2.68-1.81,4-2.7l2.64,3.81c-1.31.91-2.67,1.83-4,2.74Z"/><path class="cls-3" d="M738.31,580.12l4.38-1.51.15.44.41-.11,1.18,4.49c-.87.22-1.74.44-2.58.63l-2,.46Z"/><path class="cls-3" d="M719.74,526.16l4.38-1.51,1.55,4.5-4.38,1.51Zm3.09,9,4.39-1.5,1.54,4.49-4.38,1.51Zm3.1,9,4.38-1.51,1.55,4.5-4.38,1.5Zm3.09,9,4.39-1.51,1.54,4.5-4.38,1.51Zm3.1,9,4.38-1.51,1.55,4.5-4.38,1.51Zm3.09,9,4.39-1.51,1.54,4.49-4.38,1.51Z"/><path class="cls-3" d="M716.53,516.82c1.54-.35,2.42-.58,2.42-.58l2.09-.55,1.53,4.47-4.38,1.5-.15-.43-.48.11Z"/><path class="cls-3" d="M665.2,524l.86-4.55c1.58.3,3.25.55,5,.76l-.54,4.6C668.66,524.62,666.88,524.35,665.2,524Zm10.57,1.28.28-4.63c1.63.1,3.34.16,5.06.18l-.05,4.63C679.26,525.47,677.48,525.41,675.77,525.31Zm10.43-4.5c1.65,0,3.36-.14,5.08-.25l.32,4.62c-1.78.12-3.55.21-5.26.26Zm10.17-.69c1.67-.17,3.37-.37,5.07-.6l.61,4.59c-1.74.24-3.49.44-5.21.62Zm10.13-1.35c1.68-.27,3.37-.58,5-.9l.88,4.55c-1.71.33-3.45.64-5.17.92Z"/><path class="cls-3" d="M655.33,521.37l1.17-4.59,4.49,1.15-.09.35.29.08L660,522.83c-.87-.25-1.74-.51-2.57-.78Z"/><rect class="cls-3" x="658.19" y="508.82" width="4.28" height="4.63" transform="translate(2.03 1024.88) rotate(-75.71)"/></svg>