<svg id="Layer_1" data-name="Layer 1" xmlns="http://www.w3.org/2000/svg" viewBox="0 0 1366 768"><defs><style>.cls-1{fill:#ffe05c;}.cls-2{fill:#fff;}.cls-3{fill:#ed193f;}</style></defs><title>twitterArtboard 1</title><rect class="cls-1" x="1" y="-4" width="1364" height="778.11"/><path class="cls-2" d="M868.52,245.26a240.64,240.64,0,0,0-138.7-83.14l-2.69-.53L726.06,167l2.69.53a233.34,233.34,0,0,1,41.44,12.34l-23.14,55.88,5.07,2.1,23.14-55.88a234.7,234.7,0,0,1,71.5,47.93L806,270.6h0l-3.88,3.88,1.94,1.94a172.14,172.14,0,0,1,19.74,23.69l-21.74,14.52a144.22,144.22,0,0,0-36.21-36.21l33.64-50.35L795,225l-33.63,50.32h0l-3.05,4.56,2.28,1.53A138.9,138.9,0,0,1,799.08,320l1.52,2.28,2.29-1.53h0l26.3-17.57h0l2.28-1.53L830,299.32a177.72,177.72,0,0,0-20.06-24.81l40.75-40.75a235.31,235.31,0,0,1,61.78,115.32l-28.28,5.62,1.07,5.39,28.29-5.63a233.78,233.78,0,0,1-34.07,171l-50.24-33.57-3.05,4.56L876.38,530a236.23,236.23,0,0,1-60.87,60.86L801,569.23h0l-3-4.56-2.28,1.52a201.87,201.87,0,0,1-70.44,29.73l-11.8-59.33-.54-2.69-2.69.54A140.7,140.7,0,0,1,683,537.12a138.93,138.93,0,0,1-50.88-9.61l10-24.12h0l2.1-5.08-2.54-1.05A108,108,0,1,1,683,505.48h-2.74V511H683a113,113,0,0,0,40.87-7.61L746,556.77h0l2.1,5.07,2.53-1.05A175.63,175.63,0,0,0,806,524.39l20.46,20.46,3.88-3.88-20.43-20.43L806,516.66l-18.5-18.5A144.71,144.71,0,0,0,816,455.57l55.92,23.16,2.1-5.07L818.1,450.5a144.87,144.87,0,0,0,6.66-22l28.35,5.63,1.07-5.38-28.36-5.64a145,145,0,0,0-.51-53.92l-.53-2.69-5.39,1.07.54,2.69a139.63,139.63,0,0,1-59.37,143.32l-2.28,1.52,3.05,4.57,2.28-1.53a145.54,145.54,0,0,0,20-16.12l18.48,18.48a170,170,0,0,1-51.06,34.12l-22.12-53.38a113.44,113.44,0,0,0,59.91-144.61l53.38-22.11a170.41,170.41,0,0,1,12,63v2.74h31.6A203.35,203.35,0,0,1,882,437.09l-.54,2.69,5.39,1.07.53-2.69a208.52,208.52,0,0,0,4-40.65v-2.74H859.7a175.64,175.64,0,0,0-12.4-62.34l24.18-10h0l5.08-2.1-1-2.54a209.75,209.75,0,0,0-19.26-36l-1.53-2.28-4.56,3,1.53,2.29a203.47,203.47,0,0,1,17.66,32.55l-82.61,34.22a114.15,114.15,0,0,0-57.8-57.8l10.79-26.06,1.33-3.2-2.53-1.05A145.58,145.58,0,0,0,714,255.75l11.27-56.68h0l1.07-5.39-2.69-.53a209.45,209.45,0,0,0-81.3,0l-2.69.53,1.07,5.39,2.69-.54a203.24,203.24,0,0,1,36.84-3.85v28.84h5.49V194.68A203.34,203.34,0,0,1,719.88,198l-11.27,56.65A145.69,145.69,0,0,0,683,252.41h-2.74v5.49H683a138.93,138.93,0,0,1,50.88,9.61l-10,24.16a113.32,113.32,0,0,0-119.1,23.73l-18.55-18.55h0L582.34,293l-1.94,1.94a146.54,146.54,0,0,0-16.52,19.7l-48-32.09a202.94,202.94,0,0,1,23.7-28.47l1.94-1.94-3.89-3.88-1.94,1.94a207.37,207.37,0,0,0-45.16,67.6l-1.05,2.54,5.07,2.1h0l26.69,11,2.1-5.07-26.66-11a202.93,202.93,0,0,1,16.15-30.26l48,32.08a144,144,0,0,0-22.88,75.6h-63.3v2.74a208.51,208.51,0,0,0,4,40.65l.53,2.69,5.39-1.07h0l28.33-5.64-1.07-5.38-28.3,5.63a203.58,203.58,0,0,1-3.36-34.14h57.78a144.74,144.74,0,0,0,9.92,50.27l-24.12,10h0l-5.07,2.11h0L492,473.66l2.1,5.07,26.72-11.07a176.9,176.9,0,0,0,15.26,28l1.52,2.28,4.56-3.05-1.52-2.28a171.06,171.06,0,0,1-14.74-27.09l24.08-10a145.06,145.06,0,0,0,30.44,44.52l1.94,1.94,3.88-3.88-1.94-1.94a139.59,139.59,0,0,1-1.91-195.47l18.52,18.52a113.38,113.38,0,0,0,36.17,182l-10,24.2h0l-2.1,5.07,2.53,1a144.83,144.83,0,0,0,81.14,8.76l5.1,25.64a171.29,171.29,0,0,1-123.58-24.52l16.07-24-4.57-3-16.06,24a174.24,174.24,0,0,1-23.66-19.78L560,516.66l-3.88,3.88,1.94,1.94a176.64,176.64,0,0,0,156.75,48.87l5.64,28.37h0l.54,2.69,2.69-.54a207.39,207.39,0,0,0,72.81-29.61L811,593.94a233,233,0,0,1-125.2,38v-31.6H683a202.19,202.19,0,0,1-112.71-34.19L568,564.67l-3,4.56,2.28,1.53a207.73,207.73,0,0,0,113,35.09V632a233.67,233.67,0,0,1-161-66.81l20.33-20.32L535.66,541l-20.32,20.32A235.27,235.27,0,0,1,489.63,530l23.93-16-3-4.57-23.94,16a234.22,234.22,0,0,1-34.1-171l59.35,11.81,1.07-5.39-59.36-11.8c15.88-75.31,68-137.41,137.2-167.14l22.1,53.35h0l2.1,5.07,2.54-1a172,172,0,0,1,29.44-9.17l5.1,25.64a144.14,144.14,0,0,0-47.32,19.6L590.15,253.6h0l-3-4.56h0l-16.05-24-4.57,3,16.07,24.05A177.43,177.43,0,0,0,558,272.54l-1.94,1.94,3.88,3.88,1.94-1.94a172.14,172.14,0,0,1,23.69-19.74l14.51,21.71h0l0,.05,1.49,2.23h0l1.53,2.28,2.28-1.52a138.92,138.92,0,0,1,50.33-20.85l2.69-.53-.54-2.69h0l-.16-.84-.37-1.85h0L652.29,229h0l-1.08-5.38-2.69.53a177.33,177.33,0,0,0-30.6,9L595.8,179.82A233.32,233.32,0,0,1,683,163h2.75v-5.49H683a240,240,0,1,0,185.52,87.75Z"/><path class="cls-3" d="M706.35,137.37l0,0h0l-.06.05-.17.15-6,6a2.23,2.23,0,0,0,3.15,3.15l2.21-2.21v10.24a2.23,2.23,0,1,0,4.45,0V144.28l2.36,2.36a2.23,2.23,0,0,0,3.8-1.57h0a2.22,2.22,0,0,0-.65-1.58l-6-6A2.22,2.22,0,0,0,706.35,137.37Z"/><circle class="cls-3" cx="665.2" cy="493.12" r="6.98"/><rect class="cls-3" x="705.53" y="166.92" width="4.38" height="5.35"/><path class="cls-3" d="M705.53,177.62v-2.43h4.38v.6l.59.11-.78,4.31-2.38-.43-1.81-.32Z"/><path class="cls-3" d="M714.75,181.14l.81-4.3,5.05,1-.83,4.3Zm10,2,.87-4.29,5.05,1-.91,4.28Zm10,2.12,1-4.27c1.88.43,3.58.84,5,1.21l-1.08,4.24C738.29,186,736.63,185.63,734.78,185.21Z"/><path class="cls-3" d="M744.45,187.76l1.43-4.14a8.66,8.66,0,0,1,2.94,1.45l1,.94-1.14,3.67-4.18-1.3.17-.53Z"/><path class="cls-3" d="M729.2,237.81l1.53-4.94,4.18,1.29-1.53,5Zm3.07-9.89L733.8,223l4.19,1.3-1.54,4.94Zm3.07-9.88,1.54-4.95,4.18,1.3-1.54,5Zm3.07-9.89,1.54-4.94,4.18,1.3-1.54,4.94Zm3.07-9.89,1.54-4.94,4.18,1.3-1.54,4.94Z"/><polygon class="cls-3" points="726.32 247.06 727.66 242.75 731.84 244.05 731.74 244.38 732.07 244.5 730.56 248.62 726.32 247.06"/><path class="cls-3" d="M735.33,250.36l1.5-4.12,4.76,1.75-1.5,4.11Zm9.52,3.48,1.51-4.11,4.76,1.74-1.5,4.11Z"/><polygon class="cls-3" points="754.38 257.32 755.88 253.21 760.38 254.85 758.41 259.22 754.42 257.41 754.45 257.35 754.38 257.32"/><path class="cls-3" d="M743.91,280.58l1.75-3.86,4,1.8-1.75,3.87Zm3.5-7.73,1.75-3.86,4,1.81-1.75,3.86Zm3.51-7.72,1.75-3.86,4,1.81-1.75,3.86Z"/><path class="cls-3" d="M740.23,288.7l1.93-4.26,4,1.81-.12.25.3.15-2,3.91c-1.31-.67-2.05-1-2.06-1Z"/><path class="cls-3" d="M748.71,293l2.24-3.76c1.46.87,3,1.81,4.44,2.8L753,295.66C751.54,294.71,750.11,293.81,748.71,293Zm8.37,5.58,2.59-3.52c1.39,1,2.78,2.1,4.15,3.19l-2.75,3.41C759.75,300.58,758.41,299.54,757.08,298.56Zm7.84,6.33,2.89-3.29c1.3,1.14,2.6,2.33,3.86,3.53l-3,3.17C767.43,307.14,766.17,306,764.92,304.89Zm7.31,7,3.14-3c1.2,1.24,2.4,2.53,3.56,3.82l-3.27,2.92C774.55,314.31,773.39,313.06,772.23,311.86Zm6.73,7.53,3.37-2.79c1.1,1.33,2.2,2.7,3.25,4.08l-3.48,2.66C781.08,322,780,320.68,779,319.39Zm6.14,8,3.57-2.52c1,1.41,2,2.86,2.93,4.31l-3.66,2.4C787,330.19,786.06,328.78,785.1,327.41Z"/><path class="cls-3" d="M790.62,335.88l3.76-2.26.22.38.37-.18,1.91,3.94-4,1.94-1-1.76C791.44,337.25,791,336.56,790.62,335.88Z"/><path class="cls-3" d="M799.08,331.83l4.1-2,1.91,3.94-4.11,2Zm8.2-4,4.11-2,1.9,3.95-4.1,2Zm8.21-4,4.1-2,1.91,3.94-4.1,2Zm8.21-4,4.1-2,1.91,3.94-4.11,2Zm8.2-4,4.11-2,1.9,3.94-4.1,2Zm8.21-4,4.1-2,1.91,3.94-4.1,2Z"/><polygon class="cls-3" points="848.31 308.02 848.32 308.01 848.32 308 848.44 307.94 852.01 305.69 854.62 309.81 850.22 311.94 848.31 308.02"/><path class="cls-3" d="M833,283.79l3.71-2.33,2.54,4-3.7,2.33Zm5.1,8.08,3.7-2.34,2.55,4-3.7,2.34Zm5.09,8.08,3.71-2.34,2.55,4L845.76,304Z"/><polygon class="cls-3" points="828.14 276.05 831.54 273.3 834.3 276.7 833.92 277.01 834.18 277.42 830.48 279.75 828.14 276.05"/><path class="cls-3" d="M835.52,270.08l4-3.21,2.75,3.4-4,3.22Zm8-6.43,4-3.21,2.75,3.4-4,3.22Z"/><path class="cls-3" d="M851.43,257.22l3.6-2.91,1.38,1.72s.55.68,1.52,2l-3.47,2.67-.11-.15-.16.13Z"/><path class="cls-3" d="M857.39,264.53l3.52-2.6c1,1.3,1.93,2.64,2.9,4l-3.56,2.54C859.29,267.14,858.33,265.81,857.39,264.53Zm5.66,7.94,3.6-2.49c.94,1.36,1.87,2.73,2.78,4.09l-3.64,2.43C864.9,275.16,864,273.81,863.05,272.47Zm5.42,8.11,3.68-2.38c.9,1.4,1.79,2.8,2.65,4.18l-3.71,2.31C870.24,283.34,869.36,282,868.47,280.58Zm5.16,8.27,3.75-2.25c.85,1.41,1.7,2.85,2.51,4.26l-3.79,2.19C875.3,291.66,874.47,290.24,873.63,288.85Zm4.85,8.44,3.84-2.11c.81,1.46,1.59,2.93,2.34,4.37l-3.88,2C880.05,300.17,879.27,298.73,878.48,297.29Zm4.5,8.61,3.93-1.93c.74,1.51,1.46,3,2.13,4.48l-4,1.83C884.41,308.85,883.71,307.38,883,305.9Zm4,8.81,4-1.71c.66,1.55,1.29,3.1,1.88,4.61l-4.08,1.58C888.29,317.73,887.67,316.22,887,314.71Zm3.49,9,4.13-1.43c.56,1.61,1.07,3.21,1.53,4.76l-4.2,1.25C891.54,326.82,891.05,325.27,890.52,323.73Z"/><path class="cls-3" d="M892.94,333.34l.36-.11c0-.11,0-.22-.08-.33l4.26-1c.19.82.38,1.64.55,2.44l.42,2-4.28,1.25Z"/><path class="cls-3" d="M871.51,339.63l5.35-1.58,1.24,4.2-5.36,1.58Zm10.71-3.15,5.36-1.57,1.23,4.2-5.36,1.57Z"/><path class="cls-3" d="M861.82,342.46l4.33-1.26,1.23,4.2-.35.1a3.21,3.21,0,0,1,.08.36l-4.26,1c-.34-1.48-.55-2.35-.55-2.36Z"/><path class="cls-3" d="M863.87,351.31l4.27-1c.31,1.37.65,2.89,1,4.5l-4.28.94C864.51,354.19,864.18,352.68,863.87,351.31Zm2,9,4.28-.91c.32,1.49.63,3,.94,4.52l-4.29.87C866.47,363.26,866.15,361.75,865.84,360.27Zm1.83,9,4.3-.83c.32,1.67.6,3.2.83,4.57l-4.31.74C868.26,372.38,868,370.88,867.67,369.24Z"/><path class="cls-3" d="M869.17,378.15l4.34-.54c0,.1,0,.2,0,.3l.23,0,.41,4.36-4.71.45-.1-2.3Q869.34,379.53,869.17,378.15Z"/><path class="cls-3" d="M879,377.4l5.2-.49.41,4.36-5.19.49Zm10.39-1,5.19-.49.41,4.35-5.19.49Z"/><path class="cls-3" d="M899.74,375.43l4.54-.43.26,2.11s.12.9.26,2.5l-4.36.38a1.64,1.64,0,0,1,0-.22l-.26,0Z"/><path class="cls-3" d="M878.52,492.9c.76-1.4,1.53-2.84,2.26-4.28l3.9,2c-.75,1.48-1.54,3-2.33,4.4Zm4.39-8.63c.69-1.45,1.36-2.93,2-4.41l4,1.75c-.66,1.52-1.36,3-2.06,4.53Zm3.88-8.88c.6-1.49,1.18-3,1.74-4.52l4.11,1.52c-.57,1.55-1.18,3.11-1.79,4.63Zm3.37-9.1c.51-1.51,1-3.07,1.49-4.61l4.19,1.3c-.49,1.58-1,3.17-1.54,4.72ZM893,457c.43-1.54.86-3.11,1.26-4.68l4.24,1.08c-.41,1.61-.85,3.22-1.29,4.8Zm2.41-9.4c.36-1.57.71-3.17,1-4.75l4.29.88c-.33,1.62-.69,3.25-1.06,4.85Zm2-9.52c.29-1.58.56-3.19.82-4.8l4.32.69c-.26,1.64-.54,3.28-.83,4.89Zm1.53-9.61c.22-1.6.43-3.22.61-4.82l4.35.5c-.19,1.63-.4,3.29-.62,4.92Zm1.12-9.66c.15-1.61.29-3.24.41-4.85l4.36.32c-.12,1.64-.26,3.3-.41,4.94Zm.72-9.71c.08-1.62.15-3.25.2-4.86l4.38.14c-.05,1.64-.12,3.31-.21,5Zm0-24.3,4.37-.25c.1,1.61.17,3.28.22,5l-4.37.14C900.94,388,900.87,386.39,900.78,384.82Zm.31,14.57c0-1.7,0-3.32,0-4.86l4.38,0c0,1.57,0,3.22,0,5Z"/><path class="cls-3" d="M873.61,501.2l1.91-3.95.39.2.22-.36,3.76,2.23c-.41.7-.84,1.41-1.27,2.11l-1,1.69Z"/><path class="cls-3" d="M829.54,479.83l1.91-3.94,4.4,2.14L833.94,482Zm8.81,4.28,1.91-3.94,4.41,2.13-1.91,3.94Zm8.82,4.27,1.91-3.94,4.4,2.14-1.91,3.93Zm8.81,4.27,1.91-3.94,4.41,2.14-1.91,3.94Zm8.82,4.27,1.91-3.94,4.4,2.14-1.91,3.94Z"/><polygon class="cls-3" points="820.68 475.28 823.24 471.92 827.04 473.76 825.13 477.7 824.55 477.42 824.17 477.93 820.68 475.28"/><path class="cls-3" d="M808.27,491.64l3.1-4.09,3.49,2.65-3.1,4.08Zm6.21-8.18,3.1-4.09,3.49,2.65L818,486.11Z"/><polygon class="cls-3" points="802.48 499.28 805.17 495.73 808.65 498.37 808.41 498.7 808.71 498.97 805.8 502.24 802.48 499.28"/><path class="cls-3" d="M809.52,505.56l2.91-3.27,3.72,3.32-2.91,3.27Zm7.44,6.63,2.92-3.27,3.72,3.32-2.92,3.27Zm7.44,6.64,2.92-3.27,3.72,3.32-2.92,3.26Zm7.44,6.63,2.92-3.27,3.72,3.32-2.91,3.27Zm7.45,6.64,2.91-3.27,3.72,3.31L843,535.41Z"/><path class="cls-3" d="M846.73,538.73l2.91-3.27,3.28,2.93-1.14,1.6s-.54.76-1.52,2l-3.45-2.69.23-.3Z"/><path class="cls-3" d="M825.28,561.19c1.31-1,2.63-2.14,3.93-3.27l2.88,3.3c-1.35,1.17-2.73,2.32-4.08,3.4Zm7.73-6.72c1.22-1.15,2.45-2.36,3.65-3.6l3.13,3.07c-1.24,1.27-2.52,2.52-3.78,3.71Zm7.18-7.33c1.15-1.27,2.29-2.56,3.39-3.86l3.34,2.83c-1.13,1.33-2.3,2.67-3.49,4Z"/><path class="cls-3" d="M817.25,567l3.38-2.78.27.32.31-.23,2.55,3.56c-.67.49-1.36,1-2,1.43l-1.65,1.11Z"/><path class="cls-3" d="M805.59,552.81,809,550l2.91,3.53-3.37,2.79Zm5.83,7.07,3.38-2.78,2.91,3.53-3.37,2.79Z"/><path class="cls-3" d="M799.58,545.66c1.23-.88,1.91-1.39,1.92-1.4l1.68-1.25,2.87,3.48-3.37,2.79-.24-.28-.31.22Z"/><path class="cls-3" d="M744.17,575.64c1.37-.43,2.79-.92,4.23-1.45l1.51,4.11c-1.5.55-3,1.06-4.41,1.51Zm8.41-3.07c1.35-.55,2.74-1.14,4.14-1.76l1.78,4c-1.44.64-2.88,1.25-4.26,1.81Zm8.23-3.65c1.33-.64,2.69-1.31,4.05-2l2,3.91c-1.39.7-2.78,1.39-4.14,2Zm8.06-4.08c1.3-.7,2.63-1.43,4-2.17l2.14,3.82c-1.35.76-2.72,1.5-4,2.21Zm7.89-4.42c1.28-.74,2.59-1.52,3.9-2.31l2.26,3.75c-1.32.8-2.65,1.59-3.95,2.35Zm7.76-4.68c1.27-.8,2.56-1.62,3.82-2.44l2.38,3.68c-1.28.83-2.59,1.66-3.88,2.47Zm7.61-4.93c1.27-.85,2.53-1.7,3.75-2.55l2.49,3.61c-1.24.85-2.52,1.72-3.81,2.58Z"/><path class="cls-3" d="M735.26,578l4.14-1.43.14.42.39-.1,1.11,4.23c-.82.22-1.64.42-2.43.6l-1.92.43Z"/><path class="cls-3" d="M717.71,527l4.14-1.42,1.47,4.25-4.14,1.42Zm2.93,8.5,4.14-1.42,1.46,4.25-4.14,1.42Zm2.92,8.5,4.14-1.43,1.46,4.25L725,548.25Zm2.93,8.5,4.14-1.43,1.46,4.25L728,556.74Zm2.92,8.49,4.14-1.42,1.46,4.25-4.14,1.42Zm2.93,8.5,4.14-1.43,1.46,4.25-4.14,1.43Z"/><path class="cls-3" d="M714.68,518.18c1.46-.33,2.28-.55,2.29-.55l2-.52,1.45,4.22-4.14,1.43-.14-.42-.45.11Z"/><path class="cls-3" d="M666.18,525l.81-4.3c1.5.28,3.07.52,4.69.72l-.51,4.34C669.45,525.55,667.77,525.29,666.18,525Zm10,1.21.26-4.37c1.54.09,3.15.15,4.79.17l-.05,4.37C679.46,526.35,677.78,526.29,676.17,526.2ZM686,522c1.56-.05,3.18-.13,4.81-.24l.29,4.36c-1.68.12-3.35.2-5,.25Zm9.61-.65c1.58-.17,3.19-.36,4.8-.57l.57,4.34c-1.64.22-3.3.42-4.92.58Zm9.58-1.28c1.58-.26,3.18-.54,4.75-.85l.83,4.3c-1.61.31-3.25.61-4.88.87Z"/><path class="cls-3" d="M656.86,522.48l1.1-4.34,4.25,1.08-.09.34.28.07-1.17,4.22c-.82-.23-1.64-.47-2.43-.73Z"/><rect class="cls-3" x="659.56" y="510.62" width="4.04" height="4.38" transform="translate(1.35 1027.35) rotate(-75.71)"/></svg>