<svg id="Layer_1" data-name="Layer 1" xmlns="http://www.w3.org/2000/svg" viewBox="0 0 633 590"><defs><style>.cls-1{fill:#fae072;}.cls-2{fill:#fff;}.cls-3{fill:#ed193f;}</style></defs><title>twitterArtboard 1</title><rect class="cls-1" x="0.43" width="632.14" height="590"/><path class="cls-2" d="M499.35,142a254.68,254.68,0,0,0-146.8-88l-2.85-.56-1.13,5.69,2.85.57a246.57,246.57,0,0,1,43.86,13.06l-24.5,59.13,5.37,2.22L400.64,75a248,248,0,0,1,75.67,50.73l-43.1,43.1h0l-4.11,4.11,2,2.05A182.35,182.35,0,0,1,452.05,200L429,215.4a152.76,152.76,0,0,0-38.33-38.33l35.61-53.28-4.83-3.23L385.9,173.82h0l-3.23,4.83,2.42,1.61A146.9,146.9,0,0,1,425.85,221l1.62,2.41,2.41-1.61h0l27.84-18.6h0l2.41-1.62-1.61-2.41a188.69,188.69,0,0,0-21.23-26.27l43.12-43.12a249,249,0,0,1,65.4,122l-29.94,6,1.13,5.7,29.94-6a247.35,247.35,0,0,1-36.05,181L457.72,403l-3.23,4.83,53.17,35.52a250.35,250.35,0,0,1-64.42,64.42l-15.31-22.92h0L424.7,480l-2.41,1.62a213.68,213.68,0,0,1-74.56,31.46l-12.49-62.79-.56-2.85-2.85.57a147.92,147.92,0,0,1-82.67-7.33l10.57-25.53h0L262,409.8l-2.69-1.11a114.27,114.27,0,1,1,43.73,8.7h-2.9v5.81H303a119.58,119.58,0,0,0,43.26-8.07l23.41,56.53h0l2.22,5.37,2.69-1.12a185.94,185.94,0,0,0,58.6-38.51L454.82,459l4.11-4.1-21.62-21.63-4.1-4.1-19.58-19.57a153.09,153.09,0,0,0,30.12-45.08l59.19,24.51,2.22-5.36L446,359.19a152.74,152.74,0,0,0,7-23.27l30,6,1.14-5.69-30-6a153.65,153.65,0,0,0-.54-57.07l-.56-2.85-5.7,1.14.56,2.85A147.74,147.74,0,0,1,385.09,426l-2.42,1.62,3.23,4.83,2.42-1.62a154.2,154.2,0,0,0,21.19-17.06l19.56,19.56a180,180,0,0,1-54,36.11l-23.41-56.5a120.07,120.07,0,0,0,63.4-153l56.5-23.4a180.22,180.22,0,0,1,12.71,66.65V306h33.45a216.12,216.12,0,0,1-4.09,39l-.57,2.85,5.7,1.13.56-2.85a221,221,0,0,0,4.24-43v-2.9H490a186,186,0,0,0-13.13-66l25.6-10.6h0l5.37-2.22-1.11-2.69a221.85,221.85,0,0,0-20.38-38.12l-1.62-2.42-4.83,3.23,1.62,2.42a215.1,215.1,0,0,1,18.69,34.45l-87.43,36.21a120.86,120.86,0,0,0-61.17-61.17L363,165.75l1.41-3.4-2.68-1.11a153.7,153.7,0,0,0-26-8.15l11.93-60h0l1.13-5.69L346,86.83a221.65,221.65,0,0,0-86,0l-2.85.57,1.13,5.69,2.85-.56a214.23,214.23,0,0,1,39-4.07V119h5.81V88.46A214.38,214.38,0,0,1,342,92l-11.92,60A153,153,0,0,0,303,149.55h-2.9v5.81H303a146.88,146.88,0,0,1,53.85,10.17l-10.59,25.56a120,120,0,0,0-126,25.12l-19.63-19.63h0l-4.11-4.11-2.05,2.06a154,154,0,0,0-17.49,20.85l-50.83-34a214.51,214.51,0,0,1,25.08-30.13l2-2.06-4.11-4.1-2.05,2.05a219.45,219.45,0,0,0-47.8,71.54l-1.11,2.69,5.36,2.22h0l28.25,11.7L134,230l-28.21-11.68a215.36,215.36,0,0,1,17.09-32l50.82,33.95a152.42,152.42,0,0,0-24.21,80h-67v2.9a221,221,0,0,0,4.24,43l.57,2.85L93,347.85h0l30-6-1.13-5.69-29.95,5.95A214.61,214.61,0,0,1,88.33,306h61.15A153.45,153.45,0,0,0,160,359.21l-25.52,10.57h0L129.09,372h0l-28.25,11.7,2.22,5.36,28.28-11.71A188.41,188.41,0,0,0,147.48,407l1.62,2.41,4.83-3.23-1.62-2.41a181.88,181.88,0,0,1-15.6-28.66l25.49-10.56a153.37,153.37,0,0,0,32.22,47.12l2.05,2.05,4.11-4.11-2.05-2.05a147.74,147.74,0,0,1-2-206.88l19.6,19.61a120,120,0,0,0,38.29,192.57l-10.61,25.62h0l-2.23,5.36,2.68,1.11a153.38,153.38,0,0,0,85.87,9.27l5.4,27.14a181.31,181.31,0,0,1-130.78-25.95l17-25.45-4.84-3.23-17,25.44a183.73,183.73,0,0,1-25-20.94l-2-2.05-4.11,4.1,2.05,2.06a186.94,186.94,0,0,0,165.9,51.72l6,30h0l.56,2.85,2.85-.57a219.35,219.35,0,0,0,77.06-31.34L438.42,511a246.7,246.7,0,0,1-132.51,40.27V517.82H303a214,214,0,0,1-119.29-36.18L181.3,480l-3.23,4.83,2.42,1.62A219.75,219.75,0,0,0,300.1,523.6v27.67a247.35,247.35,0,0,1-170.43-70.71L151.18,459l-4.11-4.1-21.51,21.51a249,249,0,0,1-27.21-33.1l25.32-16.92-3.22-4.83L95.11,438.53A247.93,247.93,0,0,1,59,257.54L121.84,270l1.13-5.7-62.82-12.5c16.8-79.7,72-145.42,145.2-176.88l23.39,56.46h0l2.22,5.37,2.69-1.11A181.38,181.38,0,0,1,264.8,126l5.4,27.14a152.61,152.61,0,0,0-50.08,20.75l-15.39-23h0L201.5,146h0l-17-25.42-4.83,3.23,17,25.45a187.69,187.69,0,0,0-25.95,21.61l-2.05,2.06L172.8,177l2-2.06a181.57,181.57,0,0,1,25.07-20.89l15.35,23h0l0,.06,1.57,2.36h0l1.62,2.42,2.41-1.62a147.07,147.07,0,0,1,53.27-22.06l2.84-.57-.56-2.85h0l-.18-.88-.39-2h0l-5.4-27.14h0l-1.13-5.7-2.85.57a186.63,186.63,0,0,0-32.39,9.56l-23.4-56.5A246.72,246.72,0,0,1,303,54.92h2.91V49.11H303A254,254,0,0,0,123.4,482.72,254,254,0,0,0,499.35,142Z"/><path class="cls-3" d="M327.71,27.8l0,0h0l-.07.05-.17.16-6.36,6.35a2.35,2.35,0,0,0,1.66,4,2.3,2.3,0,0,0,1.66-.69l2.35-2.34V46.23a2.36,2.36,0,1,0,4.71,0V35.11l2.5,2.5a2.35,2.35,0,0,0,4-1.67h0a2.31,2.31,0,0,0-.69-1.66l-6.36-6.35A2.36,2.36,0,0,0,327.71,27.8Z"/><circle class="cls-3" cx="284.16" cy="404.3" r="7.39"/><rect class="cls-3" x="326.84" y="59.08" width="4.63" height="5.66"/><path class="cls-3" d="M326.84,70.4V67.83h4.64v.63l.63.12-.83,4.56-2.52-.46-1.92-.34Z"/><path class="cls-3" d="M336.6,74.12l.86-4.55c1.63.3,3.44.65,5.34,1l-.88,4.55C340,74.77,338.22,74.42,336.6,74.12Zm10.63,2.07.92-4.55c1.77.36,3.57.73,5.34,1.11l-1,4.53C350.77,76.91,349,76.54,347.23,76.19Zm10.57,2.24,1-4.52c2,.46,3.79.89,5.34,1.28L363,79.68C361.51,79.3,359.76,78.88,357.8,78.43Z"/><path class="cls-3" d="M368,81.12l1.51-4.38a9.36,9.36,0,0,1,3.11,1.54l1.11,1-1.2,3.89-4.43-1.38.18-.56Z"/><path class="cls-3" d="M351.89,134.1l1.63-5.24,4.42,1.38-1.62,5.23Zm3.25-10.47,1.63-5.23,4.42,1.38L359.57,125Zm3.25-10.46,1.63-5.23,4.42,1.37-1.62,5.23Zm3.25-10.46,1.63-5.23,4.42,1.37-1.62,5.23Zm3.25-10.47L366.52,87l4.42,1.38-1.62,5.23Z"/><polygon class="cls-3" points="348.85 143.89 350.27 139.33 354.69 140.7 354.58 141.05 354.93 141.18 353.34 145.53 348.85 143.89"/><path class="cls-3" d="M358.38,147.38,360,143l5,1.85-1.59,4.35Zm10.08,3.68,1.59-4.35,5,1.84-1.59,4.35Z"/><polygon class="cls-3" points="378.55 154.75 380.14 150.4 384.9 152.14 382.8 156.76 378.58 154.84 378.62 154.77 378.55 154.75"/><path class="cls-3" d="M367.46,179.36l1.86-4.09,4.22,1.92-1.86,4.08Zm3.71-8.17L373,167.1l4.22,1.91-1.85,4.09Zm3.71-8.18,1.85-4.08,4.22,1.91-1.85,4.09Z"/><path class="cls-3" d="M363.57,188l2-4.51,4.22,1.92-.12.27.32.16-2.11,4.13c-1.37-.7-2.16-1-2.17-1Z"/><path class="cls-3" d="M372.54,192.48l2.37-4c1.55.92,3.13,1.92,4.7,3L377,195.32C375.53,194.32,374,193.36,372.54,192.48Zm8.86,5.91,2.75-3.73c1.46,1.08,2.94,2.22,4.38,3.39l-2.91,3.6C384.23,200.53,382.81,199.43,381.4,198.39Zm8.3,6.7,3.06-3.48c1.37,1.21,2.75,2.47,4.08,3.74l-3.2,3.35C392.35,207.47,391,206.26,389.7,205.09Zm7.73,7.38,3.33-3.22c1.27,1.31,2.54,2.67,3.76,4l-3.45,3.09C399.89,215.06,398.66,213.74,397.43,212.47Zm7.13,8,3.57-3c1.16,1.41,2.32,2.87,3.43,4.32l-3.68,2.82C406.8,223.21,405.68,221.8,404.56,220.43Zm6.49,8.5,3.79-2.68c1.05,1.5,2.09,3,3.1,4.57l-3.88,2.53C413.09,231.86,412.07,230.37,411.05,228.93Z"/><path class="cls-3" d="M416.9,237.89l4-2.39.24.4.39-.19,2,4.17-4.25,2.05-1.08-1.86C417.76,239.34,417.34,238.61,416.9,237.89Z"/><path class="cls-3" d="M425.85,233.6l4.34-2.1,2,4.17-4.34,2.1Zm8.68-4.2,4.35-2.1,2,4.17-4.34,2.1Zm8.69-4.2,4.34-2.11,2,4.17-4.34,2.11ZM451.9,221l4.35-2.1,2,4.17-4.34,2.1Zm8.69-4.2,4.34-2.1,2,4.17-4.34,2.1Zm8.68-4.2,4.35-2.11,2,4.17-4.35,2.11Z"/><polygon class="cls-3" points="477.95 208.41 477.97 208.4 477.96 208.38 478.09 208.32 481.87 205.93 484.63 210.3 479.98 212.55 477.95 208.41"/><path class="cls-3" d="M461.78,182.76l3.91-2.47,2.7,4.27L464.47,187Zm5.39,8.55,3.92-2.47,2.69,4.27-3.92,2.47Zm5.39,8.55,3.92-2.47,2.7,4.27-3.92,2.47Z"/><polygon class="cls-3" points="456.61 174.57 460.21 171.66 463.12 175.26 462.72 175.58 463 176.02 459.08 178.49 456.61 174.57"/><path class="cls-3" d="M464.42,168.25l4.21-3.4,2.91,3.6-4.21,3.41Zm8.42-6.8,4.21-3.4,2.91,3.6-4.21,3.4Z"/><path class="cls-3" d="M481.26,154.64l3.81-3.08,1.45,1.82s.59.72,1.62,2.06l-3.68,2.83-.12-.16-.17.14Z"/><path class="cls-3" d="M487.56,162.38l3.73-2.75c1,1.37,2,2.79,3.07,4.23l-3.77,2.7C489.58,165.13,488.56,163.73,487.56,162.38Zm6,8.4,3.81-2.63c1,1.43,2,2.88,2.94,4.32l-3.85,2.58C495.51,173.63,494.53,172.19,493.56,170.78Zm5.73,8.58,3.89-2.51c1,1.47,1.9,3,2.81,4.41l-3.93,2.46C501.16,182.28,500.23,180.82,499.29,179.36Zm5.46,8.75,4-2.38c.9,1.5,1.8,3,2.66,4.51l-4,2.32C506.51,191.08,505.64,189.59,504.75,188.11Zm5.14,8.93,4.06-2.23c.85,1.55,1.68,3.11,2.48,4.63l-4.11,2.14C511.54,200.09,510.72,198.57,509.89,197Zm4.76,9.12,4.15-2c.79,1.59,1.55,3.19,2.26,4.74l-4.2,1.94C516.16,209.28,515.41,207.72,514.65,206.16Zm4.29,9.33,4.26-1.82c.7,1.64,1.37,3.29,2,4.88l-4.32,1.68C520.26,218.68,519.61,217.08,518.94,215.49Zm3.68,9.53,4.38-1.5c.59,1.7,1.13,3.39,1.62,5l-4.44,1.31C523.71,228.3,523.18,226.66,522.62,225Z"/><path class="cls-3" d="M525.18,235.2l.39-.11-.09-.36,4.51-1.09c.21.87.4,1.74.58,2.58l.44,2.1-4.52,1.33Z"/><path class="cls-3" d="M502.5,241.85l5.67-1.66,1.31,4.44-5.67,1.67Zm11.34-3.32,5.67-1.67,1.31,4.45L515.15,243Z"/><path class="cls-3" d="M492.26,244.86l4.57-1.35,1.31,4.45-.37.11c0,.12.05.25.08.38l-4.51,1c-.36-1.57-.58-2.49-.58-2.5Z"/><path class="cls-3" d="M494.42,254.22l4.52-1c.33,1.45.68,3.06,1.06,4.76l-4.53,1C495.1,257.27,494.74,255.66,494.42,254.22Zm2.08,9.48,4.53-1c.34,1.58.68,3.19,1,4.79l-4.54.93C497.17,266.86,496.83,265.27,496.5,263.7Zm1.94,9.49,4.55-.87c.34,1.76.64,3.38.88,4.83l-4.56.79C499.06,276.52,498.77,274.93,498.44,273.19Z"/><path class="cls-3" d="M500,282.63l4.59-.58c0,.11,0,.22,0,.32l.25,0,.44,4.61-5,.48-.11-2.44C500.22,284.4,500.15,283.6,500,282.63Z"/><path class="cls-3" d="M510.4,281.83l5.5-.52.44,4.61-5.5.52Zm11-1,5.49-.52.44,4.61-5.5.52Z"/><path class="cls-3" d="M532.39,279.75l4.8-.46.28,2.23s.12,1,.27,2.65l-4.62.4c0-.08,0-.16,0-.23l-.28,0Z"/><path class="cls-3" d="M509.92,404.07c.81-1.48,1.62-3,2.4-4.53l4.13,2.1c-.8,1.57-1.63,3.14-2.47,4.66Zm4.66-9.13c.72-1.54,1.43-3.11,2.11-4.67l4.25,1.85c-.7,1.61-1.43,3.22-2.17,4.79Zm4.1-9.4c.63-1.58,1.25-3.19,1.84-4.79l4.35,1.61c-.61,1.64-1.25,3.29-1.9,4.9Zm3.56-9.63c.55-1.61,1.08-3.25,1.59-4.88l4.42,1.37c-.52,1.67-1.06,3.35-1.62,5Zm3-9.81c.46-1.63.91-3.3,1.33-5l4.49,1.15c-.43,1.69-.89,3.4-1.36,5.07Zm2.55-10c.38-1.65.75-3.35,1.1-5l4.53.93c-.35,1.72-.73,3.44-1.12,5.13Zm2.08-10.07c.3-1.67.59-3.38.86-5.08l4.58.73c-.28,1.73-.58,3.47-.89,5.18Zm1.62-10.17c.23-1.69.45-3.41.64-5.1l4.61.53c-.2,1.73-.42,3.48-.66,5.2Zm1.18-10.23c.16-1.7.31-3.42.43-5.13l4.62.34c-.12,1.74-.27,3.5-.43,5.23Zm.76-10.27c.09-1.71.16-3.44.22-5.14l4.63.15c-.06,1.73-.13,3.49-.22,5.24Zm0-25.72,4.62-.26c.1,1.7.18,3.47.23,5.25l-4.63.15C533.66,293.07,533.58,291.35,533.49,289.68Zm.32,15.43c0-1.81,0-3.53,0-5.15l4.63,0c0,1.66,0,3.42,0,5.25Z"/><path class="cls-3" d="M504.73,412.85l2-4.17.42.2.22-.38,4,2.36c-.44.75-.89,1.49-1.35,2.24l-1.1,1.78Z"/><path class="cls-3" d="M458.09,390.24l2-4.17,4.66,2.26-2,4.17Zm9.32,4.52,2-4.17,4.67,2.26-2,4.17Zm9.33,4.52,2-4.17,4.67,2.26-2,4.17Zm9.33,4.52,2-4.17,4.67,2.26-2,4.17Zm9.33,4.52,2-4.16,4.67,2.26-2,4.17Z"/><polygon class="cls-3" points="448.71 385.42 451.42 381.86 455.44 383.81 453.42 387.98 452.81 387.68 452.4 388.22 448.71 385.42"/><path class="cls-3" d="M435.58,402.73l3.28-4.33,3.69,2.8-3.28,4.33Zm6.57-8.65,3.28-4.33,3.69,2.8-3.28,4.33Z"/><polygon class="cls-3" points="429.44 410.82 432.29 407.06 435.99 409.86 435.72 410.21 436.05 410.49 432.96 413.95 429.44 410.82"/><path class="cls-3" d="M436.9,417.46,440,414l3.94,3.51L440.84,421Zm7.88,7,3.08-3.45,3.94,3.51L448.71,428Zm7.87,7,3.09-3.46,3.93,3.51L456.59,435Zm7.88,7,3.08-3.46,3.94,3.51L464.47,442Zm7.87,7,3.09-3.46,3.93,3.51-3.08,3.46Z"/><path class="cls-3" d="M476.28,452.57l3.08-3.46,3.48,3.1-1.21,1.69s-.58.81-1.61,2.13l-3.66-2.84.25-.32Z"/><path class="cls-3" d="M453.58,476.34c1.38-1.1,2.78-2.26,4.16-3.46l3,3.49c-1.43,1.25-2.88,2.46-4.32,3.6Zm8.18-7.11c1.29-1.22,2.59-2.5,3.87-3.81l3.31,3.25c-1.32,1.34-2.67,2.66-4,3.93Zm7.6-7.76c1.22-1.34,2.43-2.71,3.59-4.08l3.53,3c-1.19,1.41-2.44,2.83-3.7,4.21Z"/><path class="cls-3" d="M445.08,482.44l3.58-2.95.28.34.33-.24,2.7,3.77c-.71.51-1.43,1-2.16,1.51l-1.75,1.18Z"/><path class="cls-3" d="M432.74,467.48l3.58-3,3.08,3.74-3.57,3Zm6.17,7.48,3.58-2.95,3.08,3.74L442,478.7Z"/><path class="cls-3" d="M426.38,459.91c1.31-.94,2-1.48,2-1.49l1.77-1.32,3,3.69-3.57,2.95-.25-.3-.33.23Z"/><path class="cls-3" d="M367.74,491.64c1.45-.46,2.95-1,4.48-1.54l1.59,4.35c-1.58.58-3.15,1.12-4.66,1.6Zm8.9-3.25c1.42-.58,2.9-1.21,4.38-1.87l1.88,4.23c-1.52.68-3,1.33-4.51,1.93Zm8.71-3.87c1.41-.67,2.85-1.38,4.28-2.11l2.1,4.13c-1.47.75-2.94,1.47-4.38,2.16Zm8.52-4.32c1.38-.73,2.8-1.51,4.2-2.29l2.26,4c-1.43.8-2.87,1.59-4.27,2.34Zm8.36-4.67c1.36-.79,2.74-1.61,4.12-2.45l2.4,4c-1.4.85-2.81,1.68-4.18,2.48Zm8.21-5c1.34-.84,2.71-1.71,4.05-2.58l2.51,3.89c-1.36.88-2.74,1.76-4.1,2.62Zm8.05-5.21c1.35-.9,2.68-1.81,4-2.7l2.64,3.81c-1.31.91-2.67,1.83-4,2.74Z"/><path class="cls-3" d="M358.31,494.12l4.38-1.51.15.44.41-.11,1.18,4.49c-.87.22-1.74.44-2.58.63l-2,.46Z"/><path class="cls-3" d="M339.74,440.16l4.38-1.51,1.55,4.5-4.38,1.51Zm3.09,9,4.39-1.5,1.54,4.49-4.38,1.51Zm3.1,9,4.38-1.51,1.55,4.5-4.38,1.5Zm3.09,9,4.39-1.51,1.54,4.5-4.38,1.51Zm3.1,9,4.38-1.51,1.55,4.5-4.38,1.51Zm3.09,9,4.39-1.51,1.54,4.49-4.38,1.51Z"/><path class="cls-3" d="M336.53,430.82c1.54-.35,2.42-.58,2.42-.58l2.09-.55,1.53,4.47-4.38,1.5-.15-.43-.48.11Z"/><path class="cls-3" d="M285.2,438l.86-4.55c1.58.3,3.25.55,5,.76l-.54,4.6C288.66,438.62,286.88,438.35,285.2,438Zm10.57,1.28.28-4.63c1.63.1,3.34.16,5.06.18l-.05,4.63C299.26,439.47,297.48,439.41,295.77,439.31Zm10.43-4.5c1.65-.05,3.36-.14,5.08-.25l.32,4.62c-1.78.12-3.55.21-5.26.26Zm10.17-.69c1.67-.17,3.37-.37,5.07-.6l.61,4.59c-1.74.24-3.49.44-5.21.62Zm10.13-1.35c1.68-.27,3.37-.58,5-.9l.88,4.55c-1.71.33-3.45.64-5.17.92Z"/><path class="cls-3" d="M275.33,435.37l1.17-4.59,4.49,1.15-.09.35.29.08L280,436.83c-.87-.25-1.74-.51-2.57-.78Z"/><rect class="cls-3" x="278.19" y="422.82" width="4.28" height="4.63" transform="translate(-200.85 591.87) rotate(-75.71)"/></svg>