<svg id="Layer_1" data-name="Layer 1" xmlns="http://www.w3.org/2000/svg" viewBox="0 0 1366 768"><defs><style>.cls-1{fill:#fae072;}.cls-2{fill:#fff;}.cls-3{fill:#ed193f;}</style></defs><title>twitterArtboard 1</title><rect class="cls-1" width="1366" height="768"/><path class="cls-2" d="M904.46,236.77a287.21,287.21,0,0,0-165.57-99.24l-3.21-.64-1.28,6.42,3.21.64a278.77,278.77,0,0,1,49.47,14.73l-27.63,66.7,6.06,2.51,27.62-66.7a279.92,279.92,0,0,1,85.35,57.21L829.86,267h0l-4.63,4.63,2.31,2.32a205,205,0,0,1,23.57,28.27l-26,17.34a172.43,172.43,0,0,0-43.23-43.23l40.16-60.1-5.45-3.64L776.5,272.68h0l-3.64,5.45,2.73,1.82a165.9,165.9,0,0,1,46,46l1.82,2.73,2.72-1.82h0l31.4-21h0l2.72-1.82-1.82-2.72a211,211,0,0,0-23.95-29.63L883.11,223A281,281,0,0,1,956.86,360.7l-33.76,6.71,1.28,6.43,33.77-6.72a279,279,0,0,1-40.67,204.13l-60-40.08-3.64,5.45,60,40.07a282.23,282.23,0,0,1-72.65,72.65L823.91,623.5h0l-3.64-5.45-2.72,1.82a240.84,240.84,0,0,1-84.1,35.48l-14.08-70.82-.64-3.21-3.22.64a167.37,167.37,0,0,1-32.51,3.2,165.65,165.65,0,0,1-60.73-11.47L634.2,544.9h0l2.5-6.06-3-1.25A128.89,128.89,0,1,1,683,547.4h-3.27V554H683a134.75,134.75,0,0,0,48.79-9.09l26.41,63.76h0l2.51,6,3-1.25A209.91,209.91,0,0,0,829.83,570l24.41,24.42,4.64-4.63-24.39-24.39-4.63-4.63-22.08-22.08a172.7,172.7,0,0,0,34-50.84l66.75,27.65,2.51-6.06-66.75-27.64a171.82,171.82,0,0,0,8-26.26l33.84,6.73,1.28-6.42-33.85-6.74a173.69,173.69,0,0,0-.61-64.36l-.64-3.21-6.43,1.27.64,3.22a166.68,166.68,0,0,1-70.86,171.08l-2.73,1.82,3.64,5.45,2.73-1.83a174.18,174.18,0,0,0,23.91-19.24l22.06,22.06a203.23,203.23,0,0,1-61,40.73l-26.4-63.73a135.44,135.44,0,0,0,71.51-172.62l63.72-26.39a203.28,203.28,0,0,1,14.34,75.18v3.28h37.72a242.21,242.21,0,0,1-4.61,44l-.64,3.21,6.43,1.28L927,467a249.39,249.39,0,0,0,4.78-48.53v-3.27h-37.8a209.94,209.94,0,0,0-14.81-74.42l28.88-12h0l6-2.51-1.25-3a249.72,249.72,0,0,0-23-43L888,277.6l-5.45,3.64,1.82,2.73a242.69,242.69,0,0,1,21.09,38.85l-98.62,40.85a136.27,136.27,0,0,0-69-69l12.88-31.11,1.59-3.82-3-1.26A173.06,173.06,0,0,0,720,249.3l13.46-67.67h0l1.28-6.43-3.21-.64a250,250,0,0,0-97,0l-3.22.64,1.28,6.43,3.21-.64a242.11,242.11,0,0,1,44-4.59v34.42h6.55V176.4a242,242,0,0,1,40.75,4L713.57,248A172.89,172.89,0,0,0,683,245.31h-3.27v6.55H683a165.61,165.61,0,0,1,60.73,11.47l-11.94,28.83A135.29,135.29,0,0,0,589.62,320.5l-22.14-22.15h0l-4.63-4.63L560.53,296a175.45,175.45,0,0,0-19.73,23.51l-57.33-38.3a242.4,242.4,0,0,1,28.29-34l2.31-2.32-4.63-4.63-2.32,2.31a247.58,247.58,0,0,0-53.91,80.7l-1.25,3,6.05,2.51h0l31.86,13.2,2.51-6.05-31.83-13.19a243,243,0,0,1,19.28-36.12L537.15,325a172,172,0,0,0-27.31,90.24H434.28v3.27A249.45,249.45,0,0,0,439.05,467l.64,3.21,6.43-1.28h0l33.82-6.73-1.28-6.42-33.78,6.72a242.32,242.32,0,0,1-4-40.75h69a172.78,172.78,0,0,0,11.84,60L492.9,493.71h0l-6.06,2.51h0L455,509.41l2.51,6.06,31.9-13.21a211.12,211.12,0,0,0,18.2,33.46l1.82,2.72,5.45-3.64L513,532.08a205.16,205.16,0,0,1-17.6-32.33l28.75-11.91A173,173,0,0,0,560.53,541l2.32,2.32,4.63-4.63-2.32-2.32A166.64,166.64,0,0,1,562.87,303L585,325.13a135.32,135.32,0,0,0,43.18,217.2l-12,28.89h0l-2.51,6.06,3,1.25A172.3,172.3,0,0,0,683,591.71,174.08,174.08,0,0,0,713.57,589l6.09,30.61a204.6,204.6,0,0,1-147.51-29.28l19.17-28.7L585.87,558,566.7,586.67a206.92,206.92,0,0,1-28.24-23.62l-2.32-2.31-4.63,4.63,2.32,2.31A210.72,210.72,0,0,0,720.94,626l6.73,33.87h0l.64,3.21,3.22-.64a247.45,247.45,0,0,0,86.91-35.35L835.74,653a278.27,278.27,0,0,1-149.46,45.42V660.68H683a241.35,241.35,0,0,1-134.54-40.81l-2.73-1.82-3.64,5.45,2.73,1.82a247.94,247.94,0,0,0,134.91,41.89v31.2a279,279,0,0,1-192.24-79.76l24.27-24.26-4.64-4.63L482.86,614a281.89,281.89,0,0,1-30.69-37.33l28.57-19.09-3.64-5.45-28.58,19.1a279.77,279.77,0,0,1-40.71-204.14l70.85,14.1,1.28-6.43-70.85-14.09c19-89.9,81.17-164,163.77-199.52l26.38,63.69h0l2.51,6,3-1.25a204.43,204.43,0,0,1,35.14-11L646,249.31a172.12,172.12,0,0,0-56.49,23.4l-17.36-26h0l-3.64-5.45h0l-19.16-28.67-5.45,3.64L563.09,245a211.47,211.47,0,0,0-29.26,24.39l-2.32,2.31,4.63,4.64,2.32-2.32a205.71,205.71,0,0,1,28.27-23.57l17.32,25.92h0l0,.06,1.78,2.66h0l1.82,2.73,2.72-1.82a165.71,165.71,0,0,1,60.08-24.89l3.21-.64-.64-3.21h0l-.19-1-.45-2.21h0l-6.08-30.61h0L645.06,211l-3.22.64a211.51,211.51,0,0,0-36.53,10.79l-26.4-63.73A278.31,278.31,0,0,1,683,138.58h3.28V132H683A286.5,286.5,0,1,0,904.46,236.77Z"/><path class="cls-3" d="M710.87,108l0,0v0l-.08.06a1.12,1.12,0,0,0-.2.18l-7.17,7.16a2.61,2.61,0,0,0-.78,1.88,2.63,2.63,0,0,0,2.65,2.65,2.6,2.6,0,0,0,1.88-.77l2.64-2.64v12.23a2.66,2.66,0,0,0,5.31,0V116.23l2.82,2.82a2.67,2.67,0,0,0,3.76,0,2.64,2.64,0,0,0,.77-1.88h0a2.64,2.64,0,0,0-.77-1.88l-7.18-7.17A2.65,2.65,0,0,0,710.87,108Z"/><circle class="cls-3" cx="661.75" cy="532.64" r="8.33"/><rect class="cls-3" x="709.89" y="143.26" width="5.23" height="6.39"/><path class="cls-3" d="M709.89,156v-2.9h5.23v.72l.71.13-.94,5.14c-1.78-.33-2.83-.51-2.84-.51l-2.16-.38Z"/><path class="cls-3" d="M720.9,160.23l1-5.14,6,1.15-1,5.13Zm12,2.33,1-5.12c2,.4,4,.82,6,1.24l-1.08,5.11C736.88,163.37,734.87,163,732.89,162.56Zm11.92,2.53L746,160c2.25.51,4.27,1,6,1.44l-1.29,5.06C749,166.07,747,165.59,744.81,165.09Z"/><path class="cls-3" d="M756.36,168.13l1.7-4.94a10.3,10.3,0,0,1,3.51,1.73l1.26,1.12-1.36,4.38-5-1.55.2-.63Z"/><path class="cls-3" d="M738.15,227.88,740,222l5,1.55-1.83,5.9Zm3.66-11.81,1.84-5.9,5,1.55-1.84,5.91Zm3.67-11.8,1.83-5.9,5,1.55-1.83,5.9Zm3.66-11.8,1.84-5.9,5,1.55-1.84,5.9Zm3.67-11.8,1.83-5.9,5,1.55-1.83,5.9Z"/><polygon class="cls-3" points="734.72 238.93 736.31 233.78 741.3 235.33 741.18 235.72 741.57 235.87 739.78 240.78 734.72 238.93"/><path class="cls-3" d="M745.46,242.85l1.8-4.9,5.68,2.07-1.79,4.91ZM756.84,247l1.79-4.91,5.69,2.08-1.8,4.91Z"/><polygon class="cls-3" points="768.21 251.17 770 246.26 775.38 248.22 773.01 253.44 768.25 251.28 768.29 251.2 768.21 251.17"/><path class="cls-3" d="M755.71,278.93l2.09-4.61,4.76,2.16-2.09,4.61Zm4.18-9.22L762,265.1l4.76,2.16-2.09,4.61Zm4.18-9.22,2.09-4.61,4.76,2.16-2.09,4.61Z"/><path class="cls-3" d="M751.32,288.62l2.3-5.08,4.76,2.16-.14.3.36.18-2.37,4.66c-1.56-.79-2.44-1.17-2.45-1.17Z"/><path class="cls-3" d="M761.44,293.73l2.67-4.49c1.75,1,3.53,2.17,5.3,3.35l-2.9,4.35C764.81,295.8,763.11,294.72,761.44,293.73Zm10,6.66,3.11-4.2c1.65,1.22,3.32,2.5,4.94,3.82l-3.28,4.06C774.62,302.81,773,301.57,771.42,300.39Zm9.37,7.56,3.45-3.92c1.55,1.36,3.1,2.78,4.6,4.21L785.23,312C783.78,310.64,782.29,309.27,780.79,308Zm8.72,8.32,3.75-3.63c1.44,1.48,2.87,3,4.25,4.56l-3.9,3.49C792.28,319.19,790.9,317.71,789.51,316.27Zm8,9,4-3.33c1.32,1.59,2.62,3.23,3.88,4.87L801.3,330C800.08,328.38,798.82,326.8,797.55,325.26Zm7.32,9.58,4.27-3c1.19,1.69,2.37,3.42,3.5,5.15l-4.38,2.86C807.17,338.15,806,336.47,804.87,334.84Z"/><path class="cls-3" d="M811.47,345l4.48-2.7.27.45.44-.22,2.28,4.71-4.8,2.32-1.21-2.1C812.44,346.58,812,345.76,811.47,345Z"/><path class="cls-3" d="M821.56,340.11l4.9-2.37,2.27,4.71-4.89,2.37Zm9.8-4.74,4.9-2.37,2.27,4.7-4.9,2.37Zm9.79-4.74,4.9-2.37,2.28,4.7-4.9,2.37Zm9.8-4.74,4.9-2.37,2.27,4.7-4.89,2.37Zm9.8-4.74,4.89-2.37,2.28,4.7-4.9,2.37Zm9.79-4.74,4.9-2.38,2.28,4.71-4.9,2.37Z"/><polygon class="cls-3" points="880.33 311.69 880.35 311.68 880.34 311.66 880.49 311.59 884.75 308.9 887.86 313.83 882.62 316.37 880.33 311.69"/><path class="cls-3" d="M862.08,282.77,866.5,280l3,4.82-4.42,2.79Zm6.09,9.64,4.42-2.79,3,4.82-4.42,2.79Zm6.08,9.64,4.42-2.79,3,4.82-4.42,2.79Z"/><polygon class="cls-3" points="856.25 273.53 860.32 270.24 863.6 274.31 863.15 274.67 863.46 275.16 859.04 277.95 856.25 273.53"/><path class="cls-3" d="M865.07,266.4l4.75-3.83,3.28,4.06-4.75,3.84Zm9.49-7.67,4.75-3.84L882.6,259l-4.75,3.84Z"/><path class="cls-3" d="M884.06,251.05l4.3-3.47,1.64,2s.65.82,1.82,2.33l-4.14,3.19-.14-.18-.19.16Z"/><path class="cls-3" d="M891.17,259.78l4.2-3.11c1.14,1.55,2.31,3.16,3.47,4.78l-4.26,3C893.44,262.88,892.29,261.3,891.17,259.78Zm6.76,9.47,4.3-3c1.12,1.62,2.23,3.26,3.32,4.88l-4.35,2.91C900.13,272.46,899,270.84,897.93,269.25Zm6.47,9.68,4.39-2.84c1.08,1.67,2.14,3.35,3.16,5l-4.43,2.76C906.51,282.22,905.46,280.57,904.4,278.93Zm6.16,9.87,4.48-2.69c1,1.7,2,3.41,3,5.1l-4.53,2.6C912.55,292.15,911.55,290.47,910.56,288.8Zm5.79,10.08,4.58-2.52c1,1.75,1.9,3.5,2.8,5.21L919.09,304C918.22,302.31,917.29,300.59,916.35,298.88Zm5.37,10.28,4.68-2.31c.89,1.8,1.75,3.6,2.56,5.35l-4.75,2.19C923.42,312.68,922.58,310.92,921.72,309.16Zm4.84,10.52,4.8-2.05c.79,1.85,1.55,3.71,2.24,5.51L928.73,325C928.05,323.28,927.32,321.48,926.56,319.68Zm4.15,10.76,4.94-1.71c.66,1.92,1.28,3.84,1.83,5.69l-5,1.49C931.94,334.12,931.35,332.28,930.71,330.44Z"/><path class="cls-3" d="M933.6,341.91l.44-.12c0-.14-.07-.27-.1-.41l5.08-1.22c.24,1,.46,1.95.66,2.9l.5,2.37-5.11,1.5Z"/><path class="cls-3" d="M908,349.41l6.4-1.87,1.47,5-6.4,1.88Zm12.79-3.75,6.4-1.87,1.47,5-6.4,1.88Z"/><path class="cls-3" d="M896.46,352.8l5.16-1.51,1.48,5-.42.13c0,.13.06.28.1.42L897.69,358c-.41-1.77-.66-2.81-.66-2.82Z"/><path class="cls-3" d="M898.9,363.36l5.1-1.15c.37,1.64.77,3.46,1.2,5.38l-5.11,1.12C899.67,366.8,899.27,365,898.9,363.36Zm2.35,10.7,5.11-1.09c.38,1.78.76,3.59,1.13,5.39l-5.12,1.05C902,377.62,901.63,375.82,901.25,374.06Zm2.19,10.7,5.13-1c.38,2,.72,3.82,1,5.45l-5.15.88C904.14,388.52,903.81,386.72,903.44,384.76Z"/><path class="cls-3" d="M905.23,395.41l5.18-.65c0,.12,0,.24.05.36l.27,0,.5,5.21-5.63.53-.12-2.75C905.45,397.4,905.37,396.5,905.23,395.41Z"/><path class="cls-3" d="M916.93,394.51l6.2-.59.5,5.2-6.2.59Zm12.4-1.18,6.2-.58L936,398l-6.2.59Z"/><path class="cls-3" d="M941.73,392.16l5.41-.51.32,2.51s.13,1.08.3,3l-5.2.46,0-.27-.31,0Z"/><path class="cls-3" d="M916.39,532.38c.92-1.67,1.83-3.39,2.7-5.11l4.66,2.37c-.9,1.77-1.84,3.54-2.78,5.25Zm5.25-10.3c.81-1.73,1.62-3.5,2.39-5.27l4.79,2.09c-.79,1.82-1.62,3.64-2.46,5.41Zm4.62-10.6c.72-1.78,1.42-3.6,2.09-5.4l4.9,1.81c-.69,1.85-1.41,3.72-2.14,5.54Zm4-10.86c.62-1.81,1.22-3.67,1.79-5.51l5,1.55c-.58,1.89-1.2,3.78-1.83,5.64Zm3.44-11.07c.52-1.84,1-3.72,1.51-5.59l5.06,1.29c-.49,1.92-1,3.85-1.54,5.73Zm2.88-11.23c.43-1.86.84-3.77,1.23-5.66l5.12,1c-.4,1.93-.82,3.88-1.26,5.79ZM938.94,467c.34-1.88.67-3.81,1-5.72l5.16.82c-.31,1.95-.65,3.92-1,5.84Zm1.83-11.46c.26-1.91.51-3.85.73-5.76l5.19.6c-.23,2-.48,3.92-.74,5.87ZM942.11,444c.18-1.92.34-3.87.48-5.79l5.21.38c-.14,2-.31,3.95-.49,5.9Zm.85-11.59c.1-1.93.19-3.88.25-5.8l5.22.17c-.06,1.95-.15,3.94-.25,5.91Zm0-29,5.22-.29c.11,1.92.19,3.91.26,5.92l-5.23.16C943.16,407.19,943.08,405.24,943,403.36Zm.37,17.4c0-2,0-4,0-5.81l5.23-.05q0,2.82,0,5.92Z"/><path class="cls-3" d="M910.53,542.28l2.28-4.7.47.23.26-.43L918,540c-.5.84-1,1.68-1.52,2.52l-1.24,2Z"/><path class="cls-3" d="M857.92,516.78l2.28-4.7,5.26,2.55-2.28,4.7Zm10.52,5.1,2.28-4.7,5.26,2.55-2.27,4.7ZM879,527l2.28-4.7,5.26,2.55-2.28,4.7Zm10.52,5.1,2.28-4.7,5.26,2.55-2.28,4.7Zm10.52,5.1,2.28-4.7,5.26,2.55-2.28,4.7Z"/><polygon class="cls-3" points="847.35 511.35 850.4 507.33 854.94 509.53 852.66 514.23 851.98 513.9 851.51 514.51 847.35 511.35"/><path class="cls-3" d="M832.54,530.87l3.7-4.88,4.16,3.16L836.7,534Zm7.4-9.76,3.71-4.88,4.16,3.16-3.7,4.88Z"/><polygon class="cls-3" points="825.62 539.99 828.83 535.75 833 538.91 832.7 539.3 833.06 539.63 829.59 543.53 825.62 539.99"/><path class="cls-3" d="M834,547.49l3.48-3.9,4.44,4-3.48,3.9Zm8.88,7.92,3.48-3.9,4.44,4-3.48,3.9Zm8.88,7.92,3.48-3.9,4.44,4-3.47,3.9Zm8.89,7.92,3.47-3.9,4.45,4-3.48,3.9Zm8.88,7.92,3.48-3.9,4.44,4-3.48,3.9Z"/><path class="cls-3" d="M878.44,587.09l3.48-3.9,3.92,3.49-1.37,1.91s-.65.9-1.81,2.4l-4.12-3.21.28-.36Z"/><path class="cls-3" d="M852.84,613.9c1.56-1.24,3.14-2.56,4.69-3.91l3.44,3.94c-1.62,1.41-3.26,2.77-4.88,4.06Zm9.22-8c1.46-1.38,2.93-2.83,4.37-4.3l3.73,3.66c-1.48,1.52-3,3-4.51,4.43Zm8.58-8.75c1.38-1.52,2.74-3.07,4-4.61l4,3.38c-1.34,1.59-2.75,3.19-4.17,4.75Z"/><path class="cls-3" d="M843.26,620.77l4-3.32.32.38.37-.26,3,4.25c-.8.57-1.61,1.14-2.43,1.69l-2,1.34Z"/><path class="cls-3" d="M829.34,603.9l4-3.33,3.48,4.22-4,3.33Zm7,8.44,4-3.33,3.48,4.22-4,3.33Z"/><path class="cls-3" d="M822.16,595.36c1.48-1.06,2.29-1.66,2.3-1.67l2-1.5,3.44,4.17-4,3.32-.28-.34-.37.27Z"/><path class="cls-3" d="M756,631.15c1.63-.52,3.33-1.1,5.05-1.73l1.8,4.91c-1.79.65-3.56,1.26-5.26,1.8Zm10-3.67c1.6-.65,3.27-1.36,4.94-2.1l2.12,4.77c-1.72.77-3.43,1.5-5.08,2.17Zm9.82-4.36c1.59-.76,3.22-1.56,4.83-2.38l2.37,4.66c-1.66.84-3.32,1.66-5,2.44Zm9.62-4.87c1.55-.83,3.15-1.7,4.73-2.59l2.55,4.57c-1.61.9-3.24,1.79-4.82,2.63Zm9.43-5.27c1.52-.88,3.09-1.81,4.64-2.75l2.71,4.47c-1.58.95-3.17,1.9-4.72,2.8Zm9.25-5.59c1.52-.95,3.05-1.93,4.57-2.91l2.83,4.39c-1.53,1-3.09,2-4.63,3Zm9.09-5.88c1.51-1,3-2,4.47-3l3,4.3c-1.47,1-3,2.06-4.54,3.08Z"/><path class="cls-3" d="M745.38,634l5-1.7.17.49.46-.12,1.32,5.06c-1,.26-1.95.5-2.9.71l-2.29.52Z"/><path class="cls-3" d="M724.44,573.09l4.94-1.7,1.75,5.07-5,1.7Zm3.49,10.14,4.94-1.7,1.75,5.07-4.94,1.7Zm3.49,10.15,4.94-1.7,1.75,5.07-4.94,1.7Zm3.49,10.14,4.94-1.7,1.75,5.07-4.94,1.7Zm3.49,10.14,4.94-1.7,1.75,5.07-4.94,1.7Zm3.49,10.15,4.94-1.71,1.75,5.08-4.94,1.7Z"/><path class="cls-3" d="M720.82,562.56c1.73-.4,2.72-.66,2.73-.66l2.35-.62,1.73,5-4.94,1.7-.17-.49-.54.12Z"/><path class="cls-3" d="M662.92,570.69l1-5.13c1.78.33,3.67.62,5.6.85l-.62,5.19C666.82,571.35,664.82,571.05,662.92,570.69Zm11.92,1.44.32-5.22c1.84.11,3.76.18,5.71.2l-.06,5.23C678.78,572.31,676.77,572.24,674.84,572.13Zm11.76-5.08c1.87,0,3.8-.15,5.74-.28l.36,5.21c-2,.14-4,.24-5.94.3Zm11.48-.77c1.88-.2,3.81-.42,5.72-.68l.69,5.18c-2,.26-4,.5-5.88.7Zm11.43-1.53c1.89-.31,3.8-.65,5.68-1l1,5.13c-1.93.37-3.89.72-5.83,1Z"/><path class="cls-3" d="M651.79,567.69l1.32-5.18,5.07,1.29-.1.4.32.09-1.39,5c-1-.27-2-.57-2.9-.88Z"/><rect class="cls-3" x="655.02" y="553.53" width="4.82" height="5.23" transform="translate(-43.77 1055.97) rotate(-75.71)"/></svg>