<?xml version="1.0" encoding="utf-8"?>
<!-- Generator: Adobe Illustrator 15.1.0, SVG Export Plug-In  -->
<!DOCTYPE svg PUBLIC "-//W3C//DTD SVG 1.1//EN" "http://www.w3.org/Graphics/SVG/1.1/DTD/svg11.dtd" [
	<!ENTITY ns_flows "http://ns.adobe.com/Flows/1.0/">
]>
<svg version="1.1"
	 xmlns="http://www.w3.org/2000/svg" xmlns:xlink="http://www.w3.org/1999/xlink" xmlns:a="http://ns.adobe.com/AdobeSVGViewerExtensions/3.0/"
	 x="0px" y="0px" width="346px" height="358px" viewBox="0.5 0.5 346 358"
	 overflow="visible" enable-background="new 0.5 0.5 346 358" xml:space="preserve">
<defs>
</defs>
<rect x="0.5" y="0.5" fill="#FFFFFF" stroke="#000000" stroke-miterlimit="10" width="346" height="358"/>
<circle fill="#3C7B3F" stroke="#000000" stroke-miterlimit="10" cx="171.405" cy="132.931" r="29.444"/>
<circle fill="#3C7B3F" stroke="#000000" stroke-miterlimit="10" cx="112.518" cy="216.334" r="29.444"/>
<circle fill="#3C7B3F" stroke="#000000" stroke-miterlimit="10" cx="43.226" cy="309.385" r="29.444"/>
<circle fill="#3C7B3F" stroke="#000000" stroke-miterlimit="10" cx="131.404" cy="310.44" r="29.444"/>
<circle fill="#3C7B3F" stroke="#000000" stroke-miterlimit="10" cx="230.292" cy="216.334" r="29.444"/>
<text transform="matrix(1 0 0 1 159.3999 136.0293)" fill="#FFFFFF" font-family="'MyriadPro-Regular'" font-size="11.5051">body</text>
<circle fill="#00AEEF" stroke="#000000" stroke-miterlimit="10" cx="171.405" cy="44.248" r="29.444"/>
<text transform="matrix(1 0 0 1 147.0195 47.3472)" fill="#FFFFFF" font-family="'MyriadPro-Regular'" font-size="11.5051">document</text>
<text transform="matrix(1 0 0 1 87.002 219.458)" fill="#FFFFFF" font-family="'MyriadPro-Regular'" font-size="11.5051">my-widget</text>
<text transform="matrix(1 0 0 1 207.0024 214.1797)"><tspan x="0" y="0" fill="#FFFFFF" font-family="'MyriadPro-Regular'" font-size="11.5051">my-other-</tspan><tspan x="7.231" y="13.806" fill="#FFFFFF" font-family="'MyriadPro-Regular'" font-size="11.5051">widget</tspan></text>
<text transform="matrix(1 0 0 1 37.0815 312.4829)" fill="#FFFFFF" font-family="'MyriadPro-Regular'" font-size="11.5051">h1</text>
<text transform="matrix(1 0 0 1 128.1309 313.5391)" fill="#FFFFFF" font-family="'MyriadPro-Regular'" font-size="11.5051">p</text>
<circle fill="#3C7B3F" stroke="#000000" stroke-miterlimit="10" cx="215.646" cy="309.385" r="29.444"/>
<circle fill="#3C7B3F" stroke="#000000" stroke-miterlimit="10" cx="303.825" cy="310.44" r="29.444"/>
<text transform="matrix(1 0 0 1 209.5024 312.4829)" fill="#FFFFFF" font-family="'MyriadPro-Regular'" font-size="11.5051">h1</text>
<text transform="matrix(1 0 0 1 300.5518 313.5391)" fill="#FFFFFF" font-family="'MyriadPro-Regular'" font-size="11.5051">p</text>
<g>
	<line fill="#FFFFFF" x1="152.272" y1="155.309" x2="126.891" y2="190.316"/>
	<g>
		<line fill="none" stroke="#000000" stroke-miterlimit="10" x1="152.272" y1="155.309" x2="131.104" y2="184.506"/>
		<g>
			<polygon points="127.946,180.415 126.913,190.332 136.019,186.268 			"/>
		</g>
	</g>
</g>
<g>
	<line fill="#FFFFFF" x1="172.857" y1="73.691" x2="172.857" y2="103.948"/>
	<g>
		<line fill="none" stroke="#000000" stroke-miterlimit="10" x1="172.857" y1="73.691" x2="172.857" y2="96.771"/>
		<g>
			<polygon points="167.899,95.312 172.885,103.948 177.871,95.312 			"/>
		</g>
	</g>
</g>
<g>
	<line fill="#FFFFFF" x1="89.303" y1="235.715" x2="55" y2="282.803"/>
	<g>
		<line fill="none" stroke="#000000" stroke-miterlimit="10" x1="89.303" y1="235.715" x2="59.226" y2="277.002"/>
		<g>
			<polygon points="56.077,272.904 55.022,282.819 64.137,278.775 			"/>
		</g>
	</g>
</g>
<g>
	<line fill="#FFFFFF" x1="129.669" y1="239.59" x2="131.404" y2="280.997"/>
	<g>
		<line fill="none" stroke="#000000" stroke-miterlimit="10" x1="129.669" y1="239.59" x2="131.104" y2="273.827"/>
		<g>
			<polygon points="126.089,272.577 131.431,280.996 136.052,272.159 			"/>
		</g>
	</g>
</g>
<g>
	<line fill="#FFFFFF" x1="253.091" y1="234.964" x2="290.918" y2="283.971"/>
	<g>
		<line fill="none" stroke="#000000" stroke-miterlimit="10" x1="253.091" y1="234.964" x2="286.533" y2="278.291"/>
		<g>
			<polygon points="281.717,280.165 290.939,283.955 289.61,274.072 			"/>
		</g>
	</g>
</g>
<g>
	<line fill="#FFFFFF" x1="212.234" y1="239.59" x2="212.383" y2="280.246"/>
	<g>
		<line fill="none" stroke="#000000" stroke-miterlimit="10" x1="212.234" y1="239.59" x2="212.357" y2="273.07"/>
		<g>
			<polygon points="207.394,271.629 212.411,280.246 217.365,271.592 			"/>
		</g>
	</g>
</g>
<g>
	<line fill="#FFFFFF" x1="190.571" y1="155.309" x2="215.952" y2="190.316"/>
	<g>
		<line fill="none" stroke="#000000" stroke-miterlimit="10" x1="190.571" y1="155.309" x2="211.739" y2="184.506"/>
		<g>
			<polygon points="206.869,186.235 215.974,190.3 214.942,180.382 			"/>
		</g>
	</g>
</g>
</svg>
