<svg id="Layer_1" data-name="Layer 1" xmlns="http://www.w3.org/2000/svg" viewBox="0 0 1366 768"><defs><style>.cls-1{fill:#ffe05c;}.cls-2{fill:#fff;}.cls-3{fill:#ed193f;}</style></defs><title>backgroundArtboard 1</title><rect class="cls-1" x="1" y="-4" width="1364" height="778.11"/><path class="cls-2" d="M915.83,203.06A301.93,301.93,0,0,0,741.76,98.73l-3.38-.67L737,104.81l3.38.67a292.77,292.77,0,0,1,52,15.49l-29,70.12,6.36,2.64,29-70.12a294.27,294.27,0,0,1,89.73,60.15L837.4,234.87h0l-4.87,4.87,2.44,2.44a214.87,214.87,0,0,1,24.77,29.73l-27.28,18.22A180.94,180.94,0,0,0,787,244.68l42.22-63.19-5.72-3.82-42.2,63.15h0l-3.83,5.73,2.86,1.91a174.22,174.22,0,0,1,48.34,48.34l1.92,2.87,2.86-1.92h0l33-22.05h0l2.87-1.92-1.92-2.86a222.23,222.23,0,0,0-25.18-31.15l51.15-51.14a295.43,295.43,0,0,1,77.54,144.73l-35.5,7.06,1.34,6.76,35.51-7.06a293.31,293.31,0,0,1-42.75,214.61l-63.06-42.14-3.83,5.73,63.05,42.13a296.65,296.65,0,0,1-76.39,76.38l-18.15-27.17h0l-3.83-5.73-2.86,1.92A253.16,253.16,0,0,1,736,643.15l-14.81-74.46-.67-3.37-3.38.67a175.3,175.3,0,0,1-98-8.69L631.69,527h0l2.64-6.36-3.19-1.32a135.12,135.12,0,0,1-83.65-125.2c0-74.72,60.79-135.51,135.51-135.51s135.51,60.79,135.51,135.51S757.72,529.66,683,529.66h-3.44v6.88H683A141.71,141.71,0,0,0,734.3,527l27.76,67h0l2.64,6.36,3.18-1.32a220.56,220.56,0,0,0,69.49-45.67L863,579.06l4.87-4.88-25.64-25.63-4.87-4.87-23.21-23.21A181.64,181.64,0,0,0,849.91,467l70.19,29.07,2.63-6.36-70.17-29.07a183.09,183.09,0,0,0,8.36-27.6l35.57,7.07,1.34-6.75-35.59-7.08a182.06,182.06,0,0,0-.64-67.67l-.67-3.38-6.76,1.34.68,3.38a175.27,175.27,0,0,1-74.51,179.87l-2.86,1.91,3.83,5.73,2.86-1.91a183.43,183.43,0,0,0,25.14-20.24l23.19,23.2a213.57,213.57,0,0,1-64.09,42.82l-27.75-67a142.39,142.39,0,0,0,75.18-181.49l67-27.75a213.71,213.71,0,0,1,15.08,79v3.45h39.66a255.3,255.3,0,0,1-4.85,46.23l-.67,3.38,6.76,1.34.67-3.38a262.36,262.36,0,0,0,5-51V390.7H904.76a220.59,220.59,0,0,0-15.56-78.24l30.35-12.57h0l6.37-2.64-1.32-3.18a263.1,263.1,0,0,0-24.17-45.21L898.52,246l-5.73,3.82,1.91,2.87a255.17,255.17,0,0,1,22.18,40.85L813.19,336.49A143.27,143.27,0,0,0,740.66,264l13.54-32.7,1.67-4-3.18-1.31a181.28,181.28,0,0,0-30.79-9.67l14.15-71.14h0l1.35-6.76-3.38-.67a262.68,262.68,0,0,0-102,0l-3.37.67L630,145.1l3.38-.68a254.1,254.1,0,0,1,46.23-4.82v36.19h6.89V139.6a255.26,255.26,0,0,1,42.84,4.19L715.15,214.9A182.25,182.25,0,0,0,683,212h-3.44v6.89H683A174.17,174.17,0,0,1,746.85,231L734.3,261.31a142.26,142.26,0,0,0-149.48,29.78l-23.28-23.27h0L556.67,263l-2.43,2.43a183,183,0,0,0-20.74,24.73l-60.27-40.28A253.69,253.69,0,0,1,503,214.11l2.44-2.44-4.87-4.87-2.44,2.43a260.13,260.13,0,0,0-56.68,84.84l-1.32,3.18,6.36,2.64h0L480,313.77l2.63-6.37-33.45-13.86a253.89,253.89,0,0,1,20.27-38l60.26,40.27a180.71,180.71,0,0,0-28.72,94.87H421.5v3.44a262.36,262.36,0,0,0,5,51l.68,3.38L434,447.2h0l35.56-7.08-1.34-6.75-35.52,7.06a255.5,255.5,0,0,1-4.22-42.84h72.51a181.86,181.86,0,0,0,12.45,63.08l-30.26,12.54h0l-6.36,2.63h0l-33.5,13.88,2.64,6.36,33.53-13.89a221.7,221.7,0,0,0,19.14,35.18l1.92,2.86,5.72-3.82-1.91-2.87a214.13,214.13,0,0,1-18.5-34L516,467a182,182,0,0,0,38.21,55.87l2.43,2.43,4.87-4.87L559.11,518a175.2,175.2,0,0,1-2.41-245.32L580,296a142.28,142.28,0,0,0,45.4,228.36L612.77,554.7h0l-2.64,6.36,3.18,1.32A181.17,181.17,0,0,0,683,576.24a183.33,183.33,0,0,0,32.14-2.86l6.4,32.18a215.65,215.65,0,0,1-38.54,3.5,213.49,213.49,0,0,1-116.55-34.28l20.16-30.18-5.73-3.82-20.15,30.16A217.26,217.26,0,0,1,531,546.11l-2.44-2.43-4.87,4.87,2.43,2.43a221.54,221.54,0,0,0,196.73,61.33L730,647.92h0l.67,3.37,3.38-.67a260,260,0,0,0,91.38-37.17l18.18,27.22a292.59,292.59,0,0,1-157.13,47.75V648.76H683a253.78,253.78,0,0,1-141.45-42.91l-2.87-1.92-3.83,5.73,2.87,1.91a260.54,260.54,0,0,0,141.84,44v32.81a293.33,293.33,0,0,1-202.11-83.85L503,579.06l-4.87-4.88-25.51,25.51a296.47,296.47,0,0,1-32.27-39.24l30-20.07-3.83-5.73-30,20.08a294,294,0,0,1-42.8-214.62l74.49,14.81,1.34-6.75L395,333.35C415,238.84,480.36,160.9,567.2,123.59l27.74,67h0l2.64,6.36,3.18-1.32a215.7,215.7,0,0,1,36.94-11.51l6.41,32.18a180.69,180.69,0,0,0-59.39,24.6l-18.25-27.32h0l-3.83-5.73h0L542.5,177.67l-5.73,3.82,20.17,30.18a222.8,222.8,0,0,0-30.78,25.64l-2.43,2.43,4.87,4.87,2.44-2.43a214.86,214.86,0,0,1,29.72-24.78L579,244.65h0l0,.06,1.87,2.8h0l1.91,2.87,2.87-1.92a174.3,174.3,0,0,1,63.16-26.16l3.38-.67-.67-3.38h0l-.21-1.05-.47-2.33h0l-6.4-32.18h0l-1.34-6.76-3.38.68A221.86,221.86,0,0,0,601.32,188l-27.75-67A292.81,292.81,0,0,1,683,99.83h3.45V92.94H683A301.21,301.21,0,0,0,470,607.13,301.2,301.2,0,0,0,915.83,203.06Z"/><path class="cls-3" d="M712.3,67.67l0,0h0l-.09.07L712,68l-7.54,7.54a2.79,2.79,0,0,0,2,4.76,2.81,2.81,0,0,0,2-.81l2.78-2.78V89.53a2.79,2.79,0,0,0,5.58,0V76.34l3,3a2.79,2.79,0,0,0,4.76-2h0a2.78,2.78,0,0,0-.82-2l-7.54-7.53A2.79,2.79,0,0,0,712.3,67.67Z"/><circle class="cls-3" cx="660.66" cy="514.14" r="8.76"/><rect class="cls-3" x="711.27" y="104.76" width="5.49" height="6.72"/><path class="cls-3" d="M711.27,118.19v-3.06h5.5v.76l.75.13-1,5.41-3-.54-2.27-.4Z"/><path class="cls-3" d="M722.85,122.6l1-5.4,6.34,1.21-1.05,5.39C726.9,123.36,724.77,123,722.85,122.6Zm12.6,2.44,1.09-5.38c2.1.42,4.23.86,6.33,1.31l-1.13,5.37ZM748,127.71l1.21-5.36c2.37.54,4.5,1.05,6.34,1.52l-1.36,5.32C752.39,128.73,750.3,128.23,748,127.71Z"/><path class="cls-3" d="M760.12,130.9l1.8-5.19a10.72,10.72,0,0,1,3.68,1.82l1.33,1.17-1.43,4.61-5.25-1.63.21-.66Z"/><path class="cls-3" d="M741,193.72l1.93-6.21,5.24,1.63-1.92,6.21Zm3.85-12.41,1.93-6.2,5.25,1.63-1.93,6.2Zm3.86-12.41,1.92-6.2,5.25,1.63-1.93,6.2Zm3.85-12.4,1.93-6.21,5.24,1.63-1.92,6.21Zm3.86-12.41,1.92-6.21,5.25,1.63-1.93,6.21Z"/><polygon class="cls-3" points="737.37 205.33 739.05 199.92 744.3 201.55 744.17 201.97 744.58 202.12 742.69 207.28 737.37 205.33"/><path class="cls-3" d="M748.67,209.47l1.89-5.17,6,2.19-1.89,5.16Zm12,4.37,1.88-5.16,6,2.18L766.61,216Z"/><polygon class="cls-3" points="772.58 218.21 774.47 213.05 780.12 215.11 777.63 220.59 772.63 218.32 772.67 218.24 772.58 218.21"/><path class="cls-3" d="M759.44,247.39l2.2-4.84,5,2.27-2.2,4.84Zm4.4-9.69,2.2-4.84,5,2.27-2.2,4.84Zm4.4-9.69,2.19-4.84,5,2.26-2.2,4.85Z"/><path class="cls-3" d="M754.82,257.58l2.43-5.34,5,2.27-.15.32.39.19-2.5,4.9c-1.63-.84-2.56-1.23-2.57-1.24Z"/><path class="cls-3" d="M765.47,263l2.81-4.71c1.84,1.09,3.71,2.27,5.57,3.52l-3.05,4.57C769,265.13,767.22,264,765.47,263Zm10.5,7,3.26-4.42c1.74,1.28,3.49,2.63,5.19,4L781,273.83C779.33,272.5,777.64,271.2,776,270Zm9.84,8,3.63-4.13c1.63,1.43,3.26,2.92,4.84,4.43l-3.8,4C789,280.73,787.39,279.29,785.81,277.91Zm9.17,8.74,3.95-3.82c1.51,1.56,3,3.18,4.46,4.8l-4.09,3.66C797.89,289.72,796.44,288.16,795,286.65Zm8.45,9.45,4.23-3.5c1.39,1.67,2.76,3.4,4.08,5.13l-4.36,3.33C806.1,299.39,804.77,297.72,803.43,296.1Zm7.7,10.07,4.49-3.17c1.25,1.77,2.49,3.59,3.68,5.42l-4.6,3C813.54,309.65,812.34,307.89,811.13,306.17Z"/><path class="cls-3" d="M818.07,316.8l4.71-2.83.28.47.47-.23,2.39,5-5,2.44-1.28-2.21C819.09,318.52,818.58,317.65,818.07,316.8Z"/><path class="cls-3" d="M828.68,311.72l5.15-2.49,2.39,4.94-5.15,2.49Zm10.3-5,5.15-2.49,2.39,4.95-5.15,2.49Zm10.3-5,5.15-2.49,2.39,4.94-5.15,2.49Zm10.3-5,5.15-2.49,2.39,5L862,301.71Zm10.3-5,5.15-2.49,2.39,4.94-5.15,2.5Zm10.3-5,5.15-2.49,2.39,4.95-5.15,2.49Z"/><polygon class="cls-3" points="890.47 281.84 890.48 281.83 890.48 281.81 890.63 281.74 895.11 278.9 898.38 284.09 892.87 286.75 890.47 281.84"/><path class="cls-3" d="M871.28,251.43l4.65-2.93,3.2,5.07-4.65,2.93Zm6.4,10.14,4.64-2.94,3.2,5.07-4.64,2.93Zm6.39,10.13,4.65-2.93,3.2,5.07-4.65,2.93Z"/><polygon class="cls-3" points="865.15 241.71 869.43 238.26 872.88 242.53 872.41 242.91 872.73 243.43 868.09 246.36 865.15 241.71"/><path class="cls-3" d="M874.42,234.22l5-4,3.46,4.27-5,4Zm10-8.07,5-4,3.45,4.27-5,4Z"/><path class="cls-3" d="M894.39,218.08l4.52-3.65,1.72,2.15s.69.86,1.91,2.45l-4.35,3.35-.15-.19-.2.17Z"/><path class="cls-3" d="M901.86,227.26l4.42-3.27c1.2,1.63,2.43,3.32,3.64,5l-4.47,3.19C904.25,230.52,903,228.86,901.86,227.26Zm7.11,10,4.52-3.12c1.17,1.69,2.35,3.42,3.49,5.13l-4.57,3.05C911.28,240.6,910.13,238.89,909,237.22Zm6.8,10.17,4.62-3c1.13,1.75,2.25,3.52,3.32,5.24l-4.66,2.91C918,250.86,916.89,249.12,915.77,247.39Zm6.47,10.38L927,255c1.07,1.78,2.13,3.58,3.15,5.35L925.34,263C924.34,261.3,923.29,259.53,922.24,257.77Zm6.1,10.6,4.81-2.65c1,1.84,2,3.68,2.94,5.48l-4.87,2.54C930.3,272,929.33,270.17,928.34,268.37ZM934,279.18l4.93-2.43c.93,1.89,1.83,3.79,2.68,5.63l-5,2.3C935.77,282.88,934.89,281,934,279.18Zm5.09,11.06,5-2.16c.83,1.95,1.62,3.9,2.36,5.79l-5.13,2C940.64,294,939.87,292.13,939.07,290.24Zm4.37,11.31,5.19-1.79c.7,2,1.34,4,1.92,6l-5.27,1.56C944.73,305.42,944.1,303.49,943.44,301.55Z"/><path class="cls-3" d="M946.47,313.61l.46-.13c0-.14-.06-.28-.1-.42l5.34-1.29c.25,1,.48,2.05.69,3.05l.53,2.49L948,318.89Z"/><path class="cls-3" d="M919.58,321.5l6.72-2,1.55,5.27-6.73,2ZM933,317.56l6.72-2,1.55,5.28-6.73,2Z"/><path class="cls-3" d="M907.43,325.06l5.42-1.59,1.55,5.27-.44.13c0,.14.07.29.11.45l-5.36,1.23c-.43-1.85-.68-2.95-.68-2.95Z"/><path class="cls-3" d="M910,336.16l5.36-1.2c.39,1.72.82,3.63,1.26,5.64l-5.37,1.18C910.8,339.78,910.38,337.88,910,336.16Zm2.47,11.25,5.38-1.15c.39,1.87.79,3.78,1.18,5.67L913.64,353C913.25,351.16,912.86,349.27,912.46,347.41Zm2.3,11.25,5.39-1c.41,2.09.76,4,1.06,5.73l-5.42.93C915.5,362.61,915.15,360.72,914.76,358.66Z"/><path class="cls-3" d="M916.64,369.85l5.46-.68c0,.13,0,.26,0,.38l.29,0L923,375l-5.92.56-.12-2.89C916.88,372,916.79,371,916.64,369.85Z"/><path class="cls-3" d="M929,368.91l6.52-.62.51,5.47-6.51.62Zm13-1.24,6.52-.61.52,5.47-6.52.61Z"/><path class="cls-3" d="M955,366.44l5.69-.54.33,2.64s.14,1.14.32,3.14l-5.47.48,0-.28-.32,0Z"/><path class="cls-3" d="M928.38,513.86c1-1.75,1.92-3.56,2.84-5.37l4.89,2.49c-.94,1.86-1.93,3.72-2.92,5.53ZM933.9,503c.85-1.81,1.7-3.68,2.51-5.53l5,2.19c-.83,1.91-1.7,3.82-2.58,5.69Zm4.86-11.14c.75-1.87,1.49-3.78,2.19-5.68l5.15,1.91c-.72,1.94-1.48,3.9-2.25,5.82ZM943,480.47c.65-1.91,1.28-3.85,1.89-5.79l5.24,1.63c-.61,2-1.26,4-1.92,5.93Zm3.62-11.63c.54-1.94,1.08-3.92,1.58-5.89l5.32,1.37c-.51,2-1.06,4-1.62,6Zm3-11.81c.46-2,.89-4,1.3-6l5.38,1.11c-.41,2-.86,4.08-1.32,6.08Zm2.47-11.95c.36-2,.7-4,1-6l5.43.86c-.33,2.05-.68,4.12-1,6.14ZM954,433c.28-2,.53-4,.77-6.06l5.45.63c-.23,2.06-.5,4.13-.78,6.18Zm1.41-12.13c.19-2,.36-4.07.51-6.09l5.48.41c-.16,2.06-.33,4.14-.53,6.2Zm.89-12.18c.11-2,.2-4.08.26-6.1l5.5.17c-.07,2.06-.16,4.15-.27,6.22Zm0-30.5,5.49-.31c.11,2,.2,4.11.27,6.22l-5.49.18C956.52,382.24,956.43,380.19,956.32,378.22Zm.39,18.29c0-2.14,0-4.18,0-6.1l5.49-.06c0,2,0,4,0,6.22Z"/><path class="cls-3" d="M922.22,524.27l2.4-4.94.49.24.27-.45,4.73,2.8c-.53.88-1.06,1.77-1.6,2.65l-1.3,2.12Z"/><path class="cls-3" d="M866.91,497.46l2.39-4.94,5.53,2.68-2.39,4.94ZM878,502.83l2.4-4.95,5.53,2.68-2.4,4.95ZM889,508.19l2.4-4.95,5.53,2.68-2.4,4.95Zm11.06,5.36,2.4-4.95,5.53,2.69-2.39,4.94Zm11.07,5.36,2.39-4.94,5.54,2.68-2.4,4.94Z"/><polygon class="cls-3" points="855.79 491.75 859 487.52 863.77 489.84 861.38 494.78 860.65 494.43 860.17 495.07 855.79 491.75"/><path class="cls-3" d="M840.22,512.28l3.89-5.13,4.38,3.32-3.9,5.13ZM848,502l3.9-5.14,4.38,3.32-3.9,5.14Z"/><polygon class="cls-3" points="832.94 521.87 836.32 517.41 840.7 520.73 840.39 521.14 840.77 521.48 837.12 525.59 832.94 521.87"/><path class="cls-3" d="M841.79,529.75l3.65-4.1,4.67,4.16-3.66,4.1Zm9.33,8.32,3.66-4.1,4.67,4.17-3.66,4.1Zm9.34,8.33,3.66-4.1,4.67,4.16-3.66,4.1Zm9.34,8.33,3.66-4.1,4.67,4.16-3.66,4.1Zm9.34,8.32,3.66-4.1,4.67,4.16-3.66,4.11Z"/><path class="cls-3" d="M888.48,571.38l3.66-4.1,4.12,3.67-1.44,2s-.68.95-1.9,2.52l-4.34-3.37.29-.38Z"/><path class="cls-3" d="M861.57,599.57c1.64-1.31,3.3-2.69,4.93-4.11l3.61,4.14c-1.7,1.48-3.42,2.91-5.12,4.27Zm9.69-8.44c1.53-1.44,3.08-3,4.59-4.51l3.93,3.85c-1.57,1.59-3.16,3.16-4.75,4.66Zm9-9.19c1.44-1.6,2.88-3.22,4.25-4.85l4.19,3.56c-1.41,1.67-2.89,3.35-4.38,5Z"/><path class="cls-3" d="M851.49,606.8l4.24-3.5.33.41.4-.28,3.19,4.46c-.84.61-1.69,1.2-2.56,1.79l-2.07,1.4Z"/><path class="cls-3" d="M836.85,589.06l4.24-3.5,3.66,4.43-4.24,3.5Zm7.32,8.87,4.24-3.5,3.66,4.44-4.24,3.49Z"/><path class="cls-3" d="M829.3,580.08c1.56-1.11,2.41-1.75,2.43-1.76l2.09-1.57,3.61,4.37-4.24,3.5-.29-.36-.39.29Z"/><path class="cls-3" d="M759.77,617.71c1.72-.55,3.5-1.16,5.31-1.82l1.89,5.16c-1.88.68-3.74,1.32-5.53,1.89Zm10.56-3.86c1.68-.69,3.43-1.43,5.19-2.21l2.23,5c-1.81.8-3.61,1.57-5.35,2.28Zm10.32-4.58c1.67-.8,3.38-1.64,5.08-2.51l2.49,4.9c-1.74.89-3.49,1.75-5.2,2.56Zm10.11-5.12c1.64-.88,3.31-1.79,5-2.73l2.68,4.8c-1.7.95-3.4,1.88-5.07,2.77Zm9.92-5.54c1.6-.94,3.24-1.91,4.88-2.9l2.85,4.7c-1.67,1-3.34,2-5,2.94Zm9.73-5.89c1.59-1,3.21-2,4.79-3.05l3,4.61c-1.61,1-3.25,2.09-4.87,3.1Zm9.55-6.18c1.59-1.06,3.17-2.14,4.7-3.19l3.13,4.52c-1.56,1.07-3.16,2.16-4.78,3.24Z"/><path class="cls-3" d="M748.59,620.65l5.19-1.79.18.52.49-.12,1.39,5.31c-1,.27-2.06.52-3.05.75l-2.41.54Z"/><path class="cls-3" d="M726.57,556.66l5.19-1.79,1.84,5.34L728.4,562Zm3.67,10.67,5.19-1.79,1.84,5.33-5.2,1.79ZM733.91,578l5.19-1.79,1.84,5.34-5.2,1.78Zm3.67,10.67,5.19-1.79,1.84,5.33-5.2,1.79Zm3.67,10.66,5.19-1.79,1.84,5.33-5.2,1.79ZM744.92,610l5.19-1.78,1.84,5.33-5.2,1.79Z"/><path class="cls-3" d="M722.76,545.59c1.83-.42,2.87-.69,2.88-.7l2.46-.65,1.83,5.3-5.2,1.79-.18-.52-.57.13Z"/><path class="cls-3" d="M661.89,554.14l1-5.4c1.87.35,3.85.66,5.89.9l-.65,5.45C666,554.84,663.89,554.52,661.89,554.14Zm12.53,1.51.34-5.48c1.93.11,4,.18,6,.21l-.06,5.49C678.56,555.85,676.45,555.77,674.42,555.65Zm12.37-5.33c2-.06,4-.16,6-.3l.37,5.48c-2.1.14-4.2.25-6.23.31Zm12.06-.82c2-.2,4-.44,6-.71l.73,5.45c-2.07.27-4.15.52-6.19.73Zm12-1.6c2-.33,4-.68,6-1.07l1,5.4c-2,.39-4.09.76-6.13,1.09Z"/><path class="cls-3" d="M650.19,551l1.39-5.45,5.32,1.36-.1.42.34.09-1.46,5.3c-1-.29-2.06-.6-3-.92Z"/><rect class="cls-3" x="653.58" y="536.1" width="5.07" height="5.49" transform="translate(-28 1041.67) rotate(-75.71)"/></svg>