<svg id="Layer_1" data-name="Layer 1" xmlns="http://www.w3.org/2000/svg" viewBox="0 0 1366 768"><defs><style>.cls-1{fill:#ffe05c;}.cls-2{fill:#fff;}.cls-3{fill:#ed193f;}</style></defs><title>backgroundArtboard 1</title><rect class="cls-1" x="1" y="-4" width="1364" height="778.11"/><path class="cls-2" d="M993.39,250.74a402.51,402.51,0,0,0-232-139.09l-4.51-.9-1.79,9,4.5.89a390.49,390.49,0,0,1,69.34,20.64l-38.73,93.48,8.49,3.52,38.72-93.48A392.19,392.19,0,0,1,957,225l-68.14,68.14h0l-6.49,6.49,3.25,3.25a287.38,287.38,0,0,1,33,39.63l-36.37,24.3a241.28,241.28,0,0,0-60.59-60.59L877.94,222l-7.63-5.1-56.26,84.19h0l-5.1,7.64,3.82,2.55a232.42,232.42,0,0,1,64.44,64.44l2.55,3.81,3.82-2.54h0l44-29.41h0L931.4,345l-2.55-3.82a296.77,296.77,0,0,0-33.56-41.52l68.17-68.17a393.76,393.76,0,0,1,103.38,192.94l-47.33,9.41,1.79,9,47.34-9.42a391.13,391.13,0,0,1-57,286.1l-84-56.17L922.48,671l84,56.15A395.46,395.46,0,0,1,904.7,829l-24.2-36.22h0l-5.11-7.63-3.81,2.55a337.89,337.89,0,0,1-117.87,49.73L734,738.16l-.9-4.5-4.5.89A233.39,233.39,0,0,1,597.88,723L614.6,682.6h0l3.51-8.48-4.24-1.76a180.12,180.12,0,0,1-111.52-166.9c0-99.61,81-180.64,180.65-180.64s180.65,81,180.65,180.64S782.61,686.11,683,686.11h-4.59v9.19H683a188.75,188.75,0,0,0,68.38-12.75l37,89.36h0l3.51,8.49,4.24-1.76a294,294,0,0,0,92.64-60.89L923,752l6.49-6.49L895.33,711.3l-6.5-6.5-30.94-30.94a242.08,242.08,0,0,0,47.62-71.26l93.56,38.76,3.52-8.49L909,594.12a241,241,0,0,0,11.15-36.79l47.42,9.43,1.8-9L922,548.32a242.66,242.66,0,0,0-.86-90.21l-.89-4.51-9,1.79.9,4.51a233.63,233.63,0,0,1-99.32,239.77L809,702.22l5.1,7.64,3.82-2.55a244.32,244.32,0,0,0,33.51-27l30.92,30.92a285,285,0,0,1-85.44,57.09l-37-89.33c66.49-29.56,113-96.23,113-173.56a188.79,188.79,0,0,0-12.75-68.38l89.32-37a284.93,284.93,0,0,1,20.1,105.37v4.6h52.87a340.13,340.13,0,0,1-6.47,61.63l-.89,4.5,9,1.79.89-4.5a349.77,349.77,0,0,0,6.7-68v-4.59h-53a293.92,293.92,0,0,0-20.75-104.29l40.47-16.77h0l8.48-3.51-1.76-4.24a349.81,349.81,0,0,0-32.21-60.27L970.31,308l-7.64,5.1,2.55,3.82a340.76,340.76,0,0,1,29.56,54.46L856.56,428.6a191,191,0,0,0-96.7-96.69l18.06-43.6,2.22-5.37-4.24-1.75a243,243,0,0,0-41-12.89l18.86-94.84h0l1.79-9-4.5-.89a350.19,350.19,0,0,0-136,0l-4.5.89,1.79,9,4.5-.9a338.82,338.82,0,0,1,61.63-6.43v48.24h9.18V166.13a339.3,339.3,0,0,1,57.11,5.59l-18.85,94.79a242.81,242.81,0,0,0-42.85-3.8h-4.59v9.18H683A232.29,232.29,0,0,1,768.12,288l-16.74,40.42a189.57,189.57,0,0,0-199.26,39.71l-31-31h0l-6.5-6.5-3.24,3.25a245.53,245.53,0,0,0-27.65,33l-80.35-53.68A340.11,340.11,0,0,1,443,265.45l3.25-3.24-6.5-6.5L436.5,259a346.9,346.9,0,0,0-75.57,113.1l-1.76,4.24,8.49,3.51h0l44.65,18.5,3.51-8.48-44.6-18.48a339.49,339.49,0,0,1,27-50.63l80.33,53.68A240.94,240.94,0,0,0,440.3,500.87H334.4v4.59a349.84,349.84,0,0,0,6.69,68l.9,4.5,9-1.79h0l47.41-9.43-1.79-9-47.35,9.42a340.9,340.9,0,0,1-5.63-57.11H440.3a242.17,242.17,0,0,0,16.6,84.09l-40.35,16.71h0l-8.48,3.52h0l-44.66,18.49,3.52,8.49,44.71-18.52a295.5,295.5,0,0,0,25.51,46.9l2.55,3.82,7.64-5.11-2.55-3.81a287.19,287.19,0,0,1-24.67-45.32l40.29-16.68a242.45,242.45,0,0,0,50.94,74.48l3.24,3.25,6.5-6.5-3.25-3.24a233.57,233.57,0,0,1-3.21-327l31,31A189.68,189.68,0,0,0,606.15,679L589.37,719.5h0L585.86,728l4.24,1.75A242.59,242.59,0,0,0,725.85,744.4l8.53,42.9A287.45,287.45,0,0,1,683,792a284.57,284.57,0,0,1-155.37-45.69L554.5,706l-7.64-5.1L520,741.15a288.93,288.93,0,0,1-39.58-33.1l-3.25-3.25-6.49,6.5,3.24,3.24a295.45,295.45,0,0,0,262.25,81.77l9.44,47.46h0l.9,4.5,4.5-.9a346.73,346.73,0,0,0,121.82-49.54l24.24,36.28a389.94,389.94,0,0,1-209.48,63.65V844.89H683a338.31,338.31,0,0,1-188.57-57.2l-3.82-2.55-5.1,7.63,3.81,2.55A347.49,347.49,0,0,0,678.41,854v43.73A391,391,0,0,1,409,786l34-34-6.49-6.49-34,34a395,395,0,0,1-43-52.32l40-26.75-5.1-7.64-40.05,26.77A392,392,0,0,1,297.3,433.43l99.31,19.75,1.79-9-99.31-19.75c26.57-126,113.77-229.9,229.54-279.64l37,89.27h0l3.52,8.48,4.24-1.76a287.64,287.64,0,0,1,49.25-15.35l8.54,42.9A241.28,241.28,0,0,0,552,301.12L527.65,264.7h0l-5.1-7.64h0l-26.86-40.18-7.63,5.1,26.88,40.23a296.19,296.19,0,0,0-41,34.18l-3.24,3.24,6.49,6.5,3.25-3.25a286.58,286.58,0,0,1,39.62-33l24.27,36.32h0l.06.09,2.49,3.73h0l2.56,3.82,3.81-2.55a232.41,232.41,0,0,1,84.2-34.88l4.51-.89L641,271h0l-.28-1.4-.61-3.1h0l-8.54-42.91h0l-1.79-9-4.5.89a297.07,297.07,0,0,0-51.21,15.13l-37-89.33A390.27,390.27,0,0,1,683,113.11h4.59v-9.18H683A398.92,398.92,0,0,0,399.07,221.54c-75.84,75.84-117.6,176.67-117.6,283.92s41.76,208.09,117.6,283.93a401.53,401.53,0,0,0,567.86,0c75.84-75.84,117.6-176.67,117.6-283.93A402.49,402.49,0,0,0,993.39,250.74Z"/><path class="cls-3" d="M722.06,70.24l0,0,0,0-.11.08-.28.25L711.55,80.68a3.66,3.66,0,0,0-1.1,2.63,3.73,3.73,0,0,0,6.36,2.63l3.7-3.7V99.38a3.72,3.72,0,0,0,7.44,0V81.8l4,4a3.73,3.73,0,0,0,6.35-2.64h0a3.68,3.68,0,0,0-1.1-2.63l-10-10A3.72,3.72,0,0,0,722.06,70.24Z"/><circle class="cls-3" cx="653.22" cy="665.43" r="11.68"/><rect class="cls-3" x="720.69" y="119.68" width="7.32" height="8.95"/><path class="cls-3" d="M720.69,137.58v-4.07H728v1l1,.18-1.31,7.21-4-.72-3-.53Z"/><path class="cls-3" d="M736.12,143.46l1.35-7.2c2.58.49,5.44,1,8.45,1.62l-1.39,7.19C741.53,144.49,738.68,143.94,736.12,143.46Zm16.8,3.27,1.45-7.18c2.8.56,5.65,1.15,8.45,1.74l-1.52,7.17C758.52,147.87,755.7,147.29,752.92,146.73Zm16.71,3.55,1.62-7.14c3.16.71,6,1.39,8.45,2l-1.81,7.09C775.5,151.65,772.72,151,769.63,150.28Z"/><path class="cls-3" d="M785.81,154.53l2.39-6.92a14.6,14.6,0,0,1,4.92,2.43l1.76,1.57L793,157.75l-7-2.18.27-.88Z"/><path class="cls-3" d="M760.29,238.28l2.57-8.27,7,2.17-2.57,8.27Zm5.14-16.54,2.57-8.27,7,2.17-2.57,8.27Zm5.14-16.54,2.57-8.27,7,2.17-2.57,8.27Zm5.13-16.54,2.57-8.27,7,2.17-2.57,8.27Zm5.14-16.54,2.57-8.28,7,2.18-2.57,8.27Z"/><polygon class="cls-3" points="755.48 253.76 757.72 246.55 764.72 248.72 764.54 249.28 765.09 249.48 762.58 256.36 755.48 253.76"/><path class="cls-3" d="M770.55,259.27l2.51-6.88,8,2.91-2.51,6.88Zm15.94,5.83,2.51-6.88,8,2.91L794.45,268Z"/><polygon class="cls-3" points="802.42 270.92 804.94 264.04 812.47 266.8 809.16 274.1 802.49 271.07 802.54 270.96 802.42 270.92"/><path class="cls-3" d="M784.91,309.83l2.93-6.46,6.67,3-2.93,6.45Zm5.86-12.92,2.93-6.46,6.67,3-2.93,6.46ZM796.63,284l2.93-6.46,6.67,3L803.3,287Z"/><path class="cls-3" d="M778.75,323.41l3.23-7.12,6.67,3-.2.43.51.26-3.32,6.52c-2.18-1.11-3.42-1.64-3.44-1.64Z"/><path class="cls-3" d="M792.94,330.58l3.75-6.3c2.44,1.46,4.94,3,7.42,4.7L800,335.07C797.66,333.48,795.27,332,792.94,330.58Zm14,9.33,4.35-5.89c2.32,1.71,4.65,3.51,6.93,5.35l-4.6,5.7C811.41,343.3,809.17,341.56,806.93,339.91Zm13.13,10.6,4.84-5.5c2.17,1.91,4.34,3.9,6.44,5.91l-5.05,5.3C824.25,354.27,822.16,352.35,820.06,350.51Zm12.22,11.66,5.26-5.09c2,2.08,4,4.23,6,6.39L838,368.35C836.16,366.26,834.22,364.18,832.28,362.17Zm11.26,12.59,5.65-4.66c1.84,2.22,3.67,4.52,5.43,6.83l-5.81,4.45C847.1,379.15,845.33,376.92,843.54,374.76Zm10.27,13.43,6-4.23c1.67,2.36,3.32,4.79,4.91,7.22l-6.13,4C857,392.83,855.43,390.48,853.81,388.19Z"/><path class="cls-3" d="M863.06,402.36l6.28-3.78.37.63.63-.3,3.19,6.59-6.73,3.25-1.7-2.94C864.42,404.64,863.75,403.5,863.06,402.36Z"/><path class="cls-3" d="M877.2,395.58l6.87-3.32,3.19,6.59-6.87,3.33Zm13.73-6.64,6.87-3.33,3.19,6.6-6.87,3.32Zm13.73-6.65,6.87-3.32,3.19,6.59-6.87,3.33Zm13.73-6.64,6.87-3.33,3.19,6.6-6.87,3.32ZM932.12,369l6.87-3.32,3.19,6.59-6.87,3.33Zm13.73-6.64,6.87-3.33,3.19,6.6L949,369Z"/><polygon class="cls-3" points="959.57 355.75 959.6 355.73 959.59 355.71 959.79 355.61 965.77 351.84 970.13 358.75 962.78 362.3 959.57 355.75"/><path class="cls-3" d="M934,315.21l6.19-3.91,4.27,6.76-6.2,3.91Zm8.52,13.51,6.2-3.9,4.26,6.75-6.19,3.91Zm8.53,13.52,6.19-3.91,4.27,6.75-6.2,3.91Z"/><polygon class="cls-3" points="925.83 302.26 931.52 297.65 936.13 303.35 935.5 303.86 935.93 304.55 929.74 308.45 925.83 302.26"/><path class="cls-3" d="M938.18,292.27l6.66-5.37,4.6,5.69L942.78,298Zm13.31-10.75,6.66-5.38,4.6,5.69-6.66,5.38Z"/><path class="cls-3" d="M964.8,270.76l6-4.87,2.3,2.87s.92,1.14,2.55,3.26l-5.8,4.47-.19-.25-.27.22Z"/><path class="cls-3" d="M974.76,283l5.89-4.35c1.6,2.16,3.24,4.42,4.86,6.7l-6,4.25C978,287.34,976.34,285.12,974.76,283Zm9.48,13.28,6-4.17c1.56,2.27,3.12,4.57,4.65,6.84L988.83,303C987.33,300.77,985.78,298.5,984.24,296.27Zm9.07,13.56,6.15-4c1.51,2.33,3,4.68,4.43,7l-6.21,3.88C996.26,314.45,994.79,312.13,993.31,309.83Zm8.62,13.84,6.28-3.77c1.43,2.37,2.84,4.77,4.2,7.14l-6.35,3.65C1004.72,328.37,1003.33,326,1001.93,323.67Zm8.13,14.12,6.42-3.53c1.34,2.45,2.66,4.91,3.91,7.31L1013.9,345C1012.67,342.61,1011.38,340.19,1010.06,337.79Zm7.52,14.41,6.57-3.23c1.24,2.52,2.45,5,3.58,7.5l-6.66,3.06C1020,357.14,1018.79,354.67,1017.58,352.2Zm6.78,14.74,6.74-2.87c1.1,2.6,2.16,5.2,3.14,7.72l-6.83,2.65C1026.46,372,1025.43,369.46,1024.36,366.94Zm5.83,15.08,6.92-2.39c.93,2.7,1.79,5.38,2.56,8l-7,2.08C1031.91,387.19,1031.08,384.61,1030.19,382Z"/><path class="cls-3" d="M1034.24,398.11l.61-.18c0-.19-.09-.38-.14-.56l7.12-1.72c.33,1.37.64,2.74.92,4.07l.7,3.32-7.15,2.1Z"/><path class="cls-3" d="M998.38,408.62l9-2.63,2.06,7-9,2.63Zm17.93-5.26,9-2.62,2.06,7-9,2.63Z"/><path class="cls-3" d="M982.18,413.37l7.24-2.12,2.06,7-.58.17c0,.19.09.39.13.6l-7.13,1.64c-.57-2.47-.92-3.94-.92-3.94Z"/><path class="cls-3" d="M985.6,428.17l7.15-1.61c.52,2.3,1.08,4.84,1.67,7.53l-7.15,1.57C986.68,433,986.12,430.46,985.6,428.17Zm3.29,15,7.17-1.53c.53,2.5,1.06,5,1.58,7.56l-7.18,1.47C990,448.16,989.42,445.64,988.89,443.16Zm3.07,15,7.19-1.39c.54,2.79,1,5.36,1.4,7.64l-7.22,1.25C993,463.43,992.48,460.91,992,458.17Z"/><path class="cls-3" d="M994.47,473.08l7.27-.91.06.51.39,0,.69,7.3-7.89.74-.17-3.84C994.78,475.88,994.66,474.61,994.47,473.08Z"/><path class="cls-3" d="M1010.87,471.82l8.69-.82.69,7.29-8.68.82Zm17.38-1.64,8.69-.83.69,7.3-8.69.82Z"/><path class="cls-3" d="M1045.63,468.53l7.59-.72.44,3.53c0,.06.18,1.5.42,4.17l-7.3.65,0-.38-.43,0Z"/><path class="cls-3" d="M1010.11,665.06c1.29-2.34,2.56-4.75,3.79-7.16l6.53,3.32c-1.27,2.48-2.58,5-3.9,7.36Zm7.36-14.44c1.14-2.42,2.27-4.9,3.35-7.38l6.71,2.93c-1.11,2.54-2.27,5.09-3.44,7.58Zm6.48-14.85c1-2.49,2-5,2.92-7.57l6.87,2.54c-1,2.59-2,5.21-3,7.76Zm5.63-15.22c.87-2.54,1.71-5.14,2.51-7.72l7,2.17c-.82,2.64-1.69,5.3-2.57,7.9ZM1034.4,605c.73-2.58,1.44-5.22,2.11-7.85l7.1,1.82c-.69,2.68-1.42,5.38-2.16,8Zm4-15.74c.61-2.62,1.19-5.29,1.74-7.95l7.17,1.48c-.56,2.71-1.15,5.44-1.77,8.11Zm3.29-15.93c.48-2.64.94-5.34,1.37-8l7.23,1.16c-.43,2.73-.9,5.48-1.4,8.17Zm2.56-16.07c.37-2.67.71-5.39,1-8.07l7.28.84c-.32,2.74-.67,5.5-1,8.23Zm1.88-16.17c.25-2.69.48-5.42.68-8.11l7.3.54c-.2,2.74-.43,5.52-.69,8.26Zm1.19-16.24c.15-2.7.26-5.44.35-8.13l7.32.24c-.09,2.74-.21,5.52-.35,8.28Zm0-40.65,7.32-.42c.15,2.69.27,5.48.36,8.3l-7.32.23C1047.63,489.59,1047.51,486.86,1047.36,484.24Zm.52,24.38c0-2.85,0-5.57,0-8.14l7.32-.07c0,2.62,0,5.39,0,8.29Z"/><path class="cls-3" d="M1001.9,678.94l3.2-6.59.66.32c.11-.2.23-.4.35-.6l6.31,3.73c-.7,1.18-1.41,2.36-2.14,3.53l-1.73,2.83Z"/><path class="cls-3" d="M928.17,643.2l3.19-6.59,7.37,3.57-3.19,6.59Zm14.74,7.15,3.2-6.59,7.37,3.57-3.19,6.59Zm14.75,7.15,3.19-6.6,7.38,3.58-3.2,6.59Zm14.75,7.14,3.19-6.59,7.38,3.57-3.2,6.6Zm14.75,7.15,3.19-6.59,7.37,3.57-3.19,6.59Z"/><polygon class="cls-3" points="913.35 635.58 917.62 629.95 923.99 633.03 920.79 639.63 919.83 639.16 919.18 640.01 913.35 635.58"/><path class="cls-3" d="M892.58,663l5.2-6.84,5.83,4.43-5.19,6.84ZM903,649.27l5.19-6.85,5.83,4.43-5.19,6.84Z"/><polygon class="cls-3" points="882.89 675.73 887.39 669.79 893.23 674.22 892.81 674.76 893.33 675.22 888.45 680.69 882.89 675.73"/><path class="cls-3" d="M894.68,686.24l4.87-5.47,6.23,5.55-4.88,5.47Zm12.45,11.1,4.87-5.47,6.23,5.55-4.88,5.47Zm12.45,11.1,4.87-5.47,6.23,5.55L925.8,714ZM932,719.54l4.87-5.47,6.23,5.55-4.88,5.47Zm12.45,11.1,4.87-5.47,6.23,5.55-4.88,5.47Z"/><path class="cls-3" d="M956.93,741.74l4.87-5.47,5.49,4.9-1.91,2.67s-.91,1.27-2.54,3.36l-5.78-4.49c.14-.18.27-.34.39-.51Z"/><path class="cls-3" d="M921.05,779.31c2.18-1.73,4.39-3.58,6.57-5.47l4.81,5.52c-2.26,2-4.56,3.88-6.83,5.69ZM934,768.07c2-1.93,4.1-4,6.12-6l5.23,5.12c-2.08,2.13-4.21,4.22-6.32,6.21Zm12-12.26c1.93-2.12,3.84-4.29,5.67-6.45l5.59,4.73c-1.89,2.23-3.86,4.47-5.85,6.65Z"/><path class="cls-3" d="M888.1,765.3l5.65-4.66,4.88,5.91L893,771.21Zm9.76,11.83,5.65-4.67,4.87,5.92L902.73,783Z"/><path class="cls-3" d="M878,753.34c2.07-1.49,3.21-2.34,3.22-2.35l2.8-2.1,4.81,5.84-5.65,4.66-.39-.48-.52.38Z"/><path class="cls-3" d="M785.34,803.49c2.29-.72,4.67-1.54,7.08-2.42l2.52,6.88c-2.5.91-5,1.76-7.37,2.52Zm14.07-5.13c2.25-.92,4.58-1.92,6.92-3l3,6.7c-2.41,1.07-4.81,2.09-7.13,3Zm13.77-6.12c2.23-1.06,4.51-2.18,6.77-3.33l3.31,6.53c-2.31,1.18-4.64,2.32-6.92,3.41Zm13.48-6.82c2.18-1.17,4.41-2.39,6.64-3.63l3.57,6.39c-2.27,1.27-4.54,2.51-6.76,3.7ZM839.87,778c2.14-1.24,4.33-2.54,6.52-3.86l3.79,6.26c-2.22,1.34-4.45,2.67-6.62,3.93Zm13-7.84c2.13-1.33,4.28-2.7,6.4-4.07l4,6.15c-2.15,1.39-4.33,2.78-6.49,4.13ZM865.58,762c2.12-1.42,4.23-2.85,6.27-4.26l4.16,6c-2.06,1.42-4.21,2.88-6.36,4.32Z"/><path class="cls-3" d="M741.08,722.12l6.92-2.39,2.45,7.11-6.92,2.39ZM746,736.33,752.9,734l2.44,7.11-6.92,2.38Zm4.89,14.22,6.93-2.38,2.45,7.11-6.93,2.38Zm4.9,14.22,6.92-2.39,2.45,7.11-6.93,2.38ZM760.65,779l6.93-2.38,2.44,7.11-6.92,2.38Zm4.89,14.22,6.93-2.38,2.44,7.1L768,800.31Z"/><path class="cls-3" d="M736,707.35c2.44-.55,3.82-.92,3.84-.92l3.29-.87,2.43,7.07L738.63,715l-.23-.69-.77.17Z"/><path class="cls-3" d="M654.86,718.75l1.35-7.19c2.5.47,5.14.87,7.85,1.19L663.2,720C660.33,719.68,657.52,719.26,654.86,718.75Zm16.71,2,.44-7.31c2.58.15,5.27.25,8,.28l-.09,7.32C677.08,721,674.27,720.93,671.57,720.77Zm16.48-7.11c2.62-.08,5.32-.22,8-.4l.5,7.3c-2.81.2-5.61.34-8.31.42Zm16.08-1.09c2.64-.27,5.34-.59,8-1l1,7.26c-2.76.37-5.53.7-8.25,1Zm16-2.14c2.65-.43,5.33-.91,8-1.42l1.39,7.19c-2.7.53-5.45,1-8.17,1.46Z"/><path class="cls-3" d="M639.26,714.55l1.85-7.26,7.1,1.81-.14.56.46.13-1.95,7.06c-1.38-.39-2.75-.8-4.07-1.23Z"/><rect class="cls-3" x="643.78" y="694.71" width="6.76" height="7.32" transform="translate(-189.33 1153.14) rotate(-75.71)"/></svg>