<svg id="Layer_1" data-name="Layer 1" xmlns="http://www.w3.org/2000/svg" viewBox="0 0 1366 768"><defs><style>.cls-1{fill:#ffe05c;}.cls-2{fill:#fff;}.cls-3{fill:#ed193f;}</style></defs><title>backgroundArtboard 1</title><rect class="cls-1" x="1" y="-4" width="1364" height="778.11"/><path class="cls-2" d="M853.58,210.68a221.24,221.24,0,0,0-127.53-76.43l-2.47-.5-1,4.95,2.48.5a213.26,213.26,0,0,1,38.1,11.34l-21.28,51.37,4.66,1.94,21.28-51.38a215.78,215.78,0,0,1,65.74,44.07L796.12,234h0l-3.57,3.57,1.79,1.78a157.66,157.66,0,0,1,18.15,21.78l-20,13.35a132.52,132.52,0,0,0-33.3-33.29l30.94-46.3-4.2-2.8L755,238.35h0l-2.8,4.19,2.1,1.41a127.54,127.54,0,0,1,35.41,35.41l1.4,2.1,2.1-1.4h0l24.19-16.16h0l2.1-1.4-1.41-2.1a162.35,162.35,0,0,0-18.44-22.82l37.47-37.47a216.4,216.4,0,0,1,56.81,106l-26,5.17,1,4.95,26-5.18a214.89,214.89,0,0,1-31.33,157.23l-46.19-30.86-2.81,4.19,46.19,30.87a217.48,217.48,0,0,1-56,56l-13.3-19.91h0l-2.81-4.19-2.09,1.4a185.49,185.49,0,0,1-64.78,27.33L711,478.56l-.49-2.48-2.47.5A129.25,129.25,0,0,1,683,479a127.66,127.66,0,0,1-46.78-8.83L645.41,448h0l1.93-4.67-2.33-1A99.27,99.27,0,1,1,683,450h-2.52v5H683a103.78,103.78,0,0,0,37.58-7l20.34,49.11h0l1.94,4.66,2.33-1a161.76,161.76,0,0,0,50.91-33.47l18.8,18.81,3.57-3.57L799.69,463.8l-3.57-3.57-17-17a133.11,133.11,0,0,0,26.17-39.16l51.42,21.3,1.93-4.66-51.42-21.3a132.53,132.53,0,0,0,6.13-20.22l26.06,5.18,1-4.95-26.08-5.18a133.67,133.67,0,0,0-.47-49.58l-.49-2.48-5,1,.49,2.47a128.35,128.35,0,0,1-54.58,131.78l-2.1,1.4L755,463l2.1-1.4a134.32,134.32,0,0,0,18.42-14.83l17,17a156.53,156.53,0,0,1-47,31.37l-20.33-49.09a104.29,104.29,0,0,0,55.08-133l49.09-20.33a156.69,156.69,0,0,1,11,57.91v2.52h29.06A187.8,187.8,0,0,1,866,387.07l-.5,2.47,4.95,1,.5-2.48a192.09,192.09,0,0,0,3.68-37.37v-2.53H845.47a161.57,161.57,0,0,0-11.4-57.32l22.24-9.21h0l4.66-1.93-1-2.33a192.19,192.19,0,0,0-17.7-33.12l-1.4-2.1-4.2,2.8,1.4,2.1A187,187,0,0,1,854.35,277l-76,31.47a105,105,0,0,0-53.14-53.15l9.92-24,1.23-2.94-2.33-1a134,134,0,0,0-22.56-7.08l10.37-52.12h0l1-4.95-2.47-.5a192.71,192.71,0,0,0-74.76,0l-2.47.5,1,4.95,2.48-.5a186.69,186.69,0,0,1,33.87-3.53V190.7h5V164.19a186.51,186.51,0,0,1,31.39,3.07l-10.36,52.09A133.92,133.92,0,0,0,683,217.26h-2.52v5.05H683a127.64,127.64,0,0,1,46.78,8.84l-9.2,22.21a104.18,104.18,0,0,0-109.51,21.82L594,258.12h0l-3.57-3.56-1.78,1.78a134.82,134.82,0,0,0-15.2,18.11L529.31,245a187.64,187.64,0,0,1,21.79-26.18l1.78-1.78-3.57-3.57-1.78,1.78A190.84,190.84,0,0,0,506,277.36l-1,2.33,4.66,1.93h0l24.54,10.17,1.93-4.66L511.66,277a185.28,185.28,0,0,1,14.85-27.82l44.15,29.5a132.36,132.36,0,0,0-21,69.5h-58.2v2.53a192.09,192.09,0,0,0,3.68,37.37l.49,2.48,5-1h0l26.05-5.18-1-4.95-26,5.18a187.79,187.79,0,0,1-3.1-31.39h53.13a133.2,133.2,0,0,0,9.12,46.22l-22.17,9.18h0l-4.66,1.93h0L507.37,420.7l1.93,4.66,24.57-10.18a162.35,162.35,0,0,0,14,25.78l1.4,2.09,4.2-2.8-1.4-2.1a157.51,157.51,0,0,1-13.56-24.9l22.14-9.17a133.36,133.36,0,0,0,28,40.93l1.79,1.79,3.57-3.57-1.79-1.78a128.37,128.37,0,0,1-1.76-179.73l17,17a104.25,104.25,0,0,0,33.26,167.3l-9.21,22.26h0L629.61,473l2.34,1a133.26,133.26,0,0,0,74.6,8.06l4.69,23.58A158.29,158.29,0,0,1,683,508.13,156.33,156.33,0,0,1,597.61,483l14.77-22.1-4.2-2.81-14.76,22.1A159.27,159.27,0,0,1,571.67,462l-1.79-1.78-3.57,3.57,1.79,1.78a162.25,162.25,0,0,0,144.12,44.93l5.19,26.09h0l.49,2.47,2.48-.49a190.7,190.7,0,0,0,67-27.23l13.32,19.94a214.32,214.32,0,0,1-115.13,35V537.21H683a185.94,185.94,0,0,1-103.63-31.43l-2.1-1.4-2.81,4.19,2.1,1.4a191,191,0,0,0,103.92,32.27v24a214.87,214.87,0,0,1-148.07-61.43l18.69-18.69-3.57-3.57-18.69,18.69a217.43,217.43,0,0,1-23.64-28.75l22-14.71-2.8-4.19-22,14.7A215.48,215.48,0,0,1,471,311.09l54.58,10.85,1-4.95L472,306.14A216.42,216.42,0,0,1,598.16,152.46l20.32,49h0l1.94,4.67,2.33-1a158,158,0,0,1,27.06-8.44l4.7,23.58a132.56,132.56,0,0,0-43.51,18l-13.38-20h0l-2.8-4.2h0l-14.76-22.08-4.19,2.8L590.64,217a163.42,163.42,0,0,0-22.54,18.78l-1.79,1.79,3.57,3.57,1.79-1.79a158.16,158.16,0,0,1,21.77-18.15l13.34,20h0l0,0,1.37,2.05h0l1.41,2.1,2.09-1.4A127.55,127.55,0,0,1,658,224.78l2.47-.49-.49-2.48h0l-.15-.77-.34-1.7h0l-4.69-23.58h0l-1-4.95-2.47.49a163.42,163.42,0,0,0-28.14,8.31l-20.33-49.09A214.4,214.4,0,0,1,683,135.05h2.52v-5H683a220.66,220.66,0,1,0,170.58,80.67Z"/><path class="cls-3" d="M704.47,111.49l0,0h0s0,0-.06,0a1.07,1.07,0,0,0-.16.14l-5.52,5.52a2,2,0,0,0-.6,1.44,2,2,0,0,0,3.49,1.45l2-2v9.41a2,2,0,1,0,4.09,0v-9.66l2.17,2.17a2,2,0,0,0,3.49-1.44h0a2.05,2.05,0,0,0-.6-1.45l-5.53-5.52A2,2,0,0,0,704.47,111.49Z"/><circle class="cls-3" cx="666.63" cy="438.59" r="6.42"/><rect class="cls-3" x="703.72" y="138.66" width="4.03" height="4.92"/><path class="cls-3" d="M703.72,148.5v-2.24h4v.56l.55.1-.72,4-2.19-.4-1.66-.29Z"/><path class="cls-3" d="M712.19,151.73l.75-4,4.64.89-.77,4Zm9.24,1.8.79-3.95c1.54.31,3.11.63,4.65,1l-.84,3.94C724.51,154.15,723,153.83,721.43,153.53Zm9.18,1.95.89-3.93c1.73.39,3.3.77,4.64,1.11l-1,3.9C733.84,156.23,732.31,155.86,730.61,155.48Z"/><path class="cls-3" d="M739.5,157.81l1.32-3.8a8,8,0,0,1,2.7,1.33l1,.87-1,3.37-3.84-1.19.15-.49Z"/><path class="cls-3" d="M725.48,203.84l1.41-4.55,3.84,1.2L729.32,205Zm2.82-9.09,1.41-4.55,3.85,1.2-1.41,4.54Zm2.83-9.09,1.41-4.55,3.84,1.2L735,186.85Zm2.82-9.09,1.41-4.55,3.84,1.2-1.41,4.54Zm2.82-9.09,1.41-4.55,3.85,1.2-1.41,4.54Z"/><polygon class="cls-3" points="722.84 212.35 724.07 208.38 727.91 209.58 727.82 209.88 728.12 209.99 726.73 213.77 722.84 212.35"/><path class="cls-3" d="M731.11,215.37l1.39-3.78,4.38,1.6L735.49,217Zm8.76,3.21,1.39-3.78,4.38,1.6-1.39,3.78Z"/><polygon class="cls-3" points="748.63 221.78 750.01 218 754.15 219.51 752.33 223.52 748.67 221.86 748.7 221.8 748.63 221.78"/><path class="cls-3" d="M739,243.16l1.61-3.55,3.66,1.66-1.61,3.55Zm3.22-7.1,1.61-3.55,3.66,1.66-1.61,3.55Zm3.22-7.1,1.61-3.55,3.66,1.66-1.61,3.55Z"/><path class="cls-3" d="M735.62,250.63l1.78-3.92,3.66,1.66-.11.24.28.14-1.82,3.59c-1.2-.61-1.88-.91-1.89-.91Z"/><path class="cls-3" d="M743.42,254.56l2.06-3.45c1.34.8,2.72,1.67,4.08,2.58L747.32,257C746,256.16,744.7,255.33,743.42,254.56Zm7.69,5.13,2.39-3.23c1.27.94,2.56,1.93,3.81,2.94l-2.53,3.13C753.57,261.55,752.34,260.6,751.11,259.69Zm7.21,5.83,2.66-3c1.2,1,2.39,2.14,3.55,3.24l-2.78,2.91C760.63,267.59,759.48,266.53,758.32,265.52Zm6.72,6.4,2.89-2.79c1.11,1.14,2.21,2.32,3.27,3.51l-3,2.69C767.17,274.17,766.11,273,765,271.92Zm6.19,6.93,3.1-2.57c1,1.23,2,2.49,3,3.76l-3.2,2.44C773.18,281.26,772.21,280,771.23,278.85Zm5.64,7.38,3.29-2.33c.92,1.3,1.83,2.64,2.7,4l-3.37,2.2C778.64,288.78,777.76,287.48,776.87,286.23Z"/><path class="cls-3" d="M782,294l3.45-2.07.2.34.35-.16,1.75,3.62-3.7,1.79-.93-1.62C782.71,295.27,782.33,294.64,782,294Z"/><path class="cls-3" d="M789.73,290.29l3.77-1.83,1.75,3.63-3.77,1.82Zm7.54-3.65,3.78-1.83,1.75,3.62L799,290.26Zm7.55-3.66,3.77-1.82,1.76,3.62-3.78,1.83Zm7.55-3.65,3.77-1.82,1.75,3.62L814.12,283Zm7.54-3.65,3.77-1.83,1.76,3.63-3.77,1.82Zm7.55-3.65,3.77-1.83,1.75,3.63-3.77,1.82Z"/><polygon class="cls-3" points="835 268.4 835.01 268.39 835 268.38 835.12 268.32 838.4 266.25 840.8 270.04 836.76 272 835 268.4"/><path class="cls-3" d="M820.94,246.12l3.41-2.15,2.34,3.71-3.4,2.15Zm4.69,7.42,3.4-2.14,2.34,3.71-3.4,2.15Zm4.68,7.43,3.41-2.15,2.34,3.72-3.4,2.14Z"/><polygon class="cls-3" points="816.45 239 819.58 236.47 822.11 239.6 821.77 239.88 822 240.26 818.6 242.41 816.45 239"/><path class="cls-3" d="M823.24,233.51l3.66-2.95,2.53,3.13-3.66,2.95Zm7.32-5.91,3.65-3,2.53,3.14-3.65,2.95Z"/><path class="cls-3" d="M837.87,221.69l3.31-2.68,1.26,1.58s.51.63,1.41,1.79l-3.2,2.46-.1-.14-.15.12Z"/><path class="cls-3" d="M843.34,228.41l3.24-2.39c.88,1.19,1.78,2.43,2.67,3.68L846,232C845.1,230.8,844.21,229.58,843.34,228.41Zm5.21,7.3,3.32-2.29c.85,1.24,1.71,2.51,2.55,3.76l-3.35,2.24C850.25,238.18,849.4,236.93,848.55,235.71Zm5,7.45,3.38-2.18c.83,1.28,1.65,2.57,2.43,3.84L855.94,247C855.16,245.7,854.35,244.43,853.54,243.16Zm4.74,7.61,3.45-2.07c.78,1.3,1.56,2.62,2.31,3.92l-3.49,2C859.81,253.35,859.05,252.05,858.28,250.77Zm4.46,7.76,3.53-1.94c.74,1.34,1.46,2.7,2.15,4l-3.57,1.87C864.18,261.17,863.47,259.85,862.74,258.53Zm4.14,7.92,3.61-1.78c.68,1.39,1.34,2.77,2,4.12l-3.65,1.69C868.19,269.16,867.54,267.81,866.88,266.45Zm3.72,8.1,3.71-1.58c.6,1.43,1.18,2.86,1.72,4.24l-3.75,1.46C871.76,277.32,871.19,275.93,870.6,274.55Zm3.2,8.29,3.81-1.32c.51,1.48,1,3,1.41,4.39l-3.86,1.14C874.75,285.68,874.29,284.26,873.8,282.84Z"/><path class="cls-3" d="M876,291.68l.34-.1c0-.1,0-.21-.08-.31l3.91-.95c.19.76.36,1.51.51,2.24l.39,1.82-3.94,1.16Z"/><path class="cls-3" d="M856.33,297.45l4.92-1.44,1.13,3.86-4.92,1.45Zm9.85-2.88,4.92-1.45,1.14,3.86-4.93,1.45Z"/><path class="cls-3" d="M847.42,300.07l4-1.17,1.13,3.86-.32.1c0,.1,0,.21.08.32l-3.92.91-.51-2.17Z"/><path class="cls-3" d="M849.3,308.2l3.93-.89c.28,1.27.6,2.66.92,4.14l-3.93.87C849.9,310.85,849.59,309.46,849.3,308.2Zm1.81,8.24,3.94-.84c.29,1.37.58,2.76.87,4.15l-3.95.81C851.69,319.18,851.4,317.8,851.11,316.44Zm1.68,8.24,4-.76c.29,1.53.55,2.95.77,4.2l-4,.68C853.34,327.57,853.08,326.19,852.79,324.68Z"/><path class="cls-3" d="M854.18,332.88l4-.5,0,.28.22,0,.38,4-4.34.41-.09-2.12C854.35,334.42,854.28,333.72,854.18,332.88Z"/><path class="cls-3" d="M863.19,332.19l4.78-.45.38,4-4.78.45Zm9.55-.91,4.78-.45.37,4-4.77.45Z"/><path class="cls-3" d="M882.29,330.38l4.17-.4.24,1.94s.11.83.24,2.3l-4,.35,0-.21-.24,0Z"/><path class="cls-3" d="M862.77,438.38c.71-1.28,1.41-2.61,2.08-3.93l3.59,1.83c-.69,1.36-1.41,2.72-2.14,4Zm4-7.93c.63-1.33,1.25-2.69,1.84-4.05l3.69,1.6c-.6,1.4-1.24,2.8-1.88,4.17Zm3.57-8.16c.55-1.37,1.09-2.77,1.6-4.16l3.78,1.39c-.53,1.43-1.08,2.87-1.65,4.27Zm3.09-8.37c.48-1.39.94-2.82,1.38-4.24l3.85,1.19c-.46,1.46-.93,2.92-1.42,4.35Zm2.65-8.52c.4-1.42.79-2.87,1.16-4.31l3.9,1c-.38,1.47-.78,3-1.19,4.41Zm2.22-8.65c.33-1.44.65-2.91.95-4.37l3.94.82c-.3,1.48-.63,3-1,4.45Zm1.8-8.76c.27-1.45.52-2.93.76-4.4l4,.63c-.24,1.51-.5,3-.77,4.5Zm1.41-8.82c.2-1.47.39-3,.56-4.44l4,.46c-.17,1.5-.36,3-.57,4.52Zm1-8.89c.14-1.48.27-3,.38-4.46l4,.3c-.11,1.5-.24,3-.38,4.54Zm.66-8.93c.08-1.48.14-3,.19-4.47l4,.13c-.05,1.51-.11,3-.19,4.56Zm0-22.34,4-.23c.09,1.48.16,3,.2,4.56l-4,.13C883.39,342,883.33,340.45,883.24,339Zm.29,13.4q0-2.36,0-4.47l4,0c0,1.44,0,3,0,4.56Z"/><path class="cls-3" d="M858.26,446l1.76-3.62.36.18.19-.33,3.47,2.05-1.17,1.94-1,1.55Z"/><path class="cls-3" d="M817.74,426.37l1.75-3.62,4,2-1.75,3.63Zm8.1,3.93,1.76-3.62,4,2-1.76,3.62Zm8.11,3.93,1.75-3.62,4,2L838,436.19Zm8.1,3.93,1.76-3.63,4.05,2-1.76,3.62Zm8.11,3.92,1.75-3.62,4.05,2-1.75,3.62Z"/><polygon class="cls-3" points="809.59 422.19 811.94 419.09 815.44 420.79 813.68 424.41 813.15 424.15 812.8 424.62 809.59 422.19"/><path class="cls-3" d="M798.18,437.23l2.86-3.76,3.2,2.43-2.85,3.76Zm5.71-7.52,2.85-3.76,3.21,2.43-2.86,3.76Z"/><polygon class="cls-3" points="792.85 444.25 795.33 440.99 798.54 443.42 798.31 443.72 798.59 443.97 795.91 446.98 792.85 444.25"/><path class="cls-3" d="M799.33,450l2.68-3,3.42,3.05-2.68,3Zm6.84,6.1,2.68-3,3.42,3.05-2.67,3Zm6.85,6.11,2.67-3,3.43,3-2.68,3Zm6.84,6.09,2.68-3,3.42,3.05-2.68,3Zm6.84,6.1,2.68-3,3.42,3.05-2.68,3Z"/><path class="cls-3" d="M833.54,480.52l2.68-3,3,2.69-1,1.47s-.5.7-1.4,1.85l-3.17-2.47.21-.28Z"/><path class="cls-3" d="M813.82,501.18c1.2-1,2.42-2,3.62-3l2.64,3c-1.24,1.08-2.5,2.14-3.75,3.13Zm7.11-6.18c1.12-1.06,2.25-2.18,3.36-3.31l2.87,2.82c-1.14,1.17-2.31,2.32-3.47,3.41Zm6.6-6.74c1.06-1.17,2.11-2.36,3.12-3.55l3.07,2.6c-1,1.23-2.12,2.46-3.21,3.66Z"/><path class="cls-3" d="M806.44,506.47l3.11-2.56.24.3.29-.21,2.34,3.28c-.62.44-1.24.88-1.88,1.3l-1.51,1Z"/><path class="cls-3" d="M795.72,493.47l3.1-2.56,2.68,3.25-3.1,2.56Zm5.36,6.5,3.1-2.56,2.69,3.25-3.11,2.56Z"/><path class="cls-3" d="M790.19,486.9c1.14-.82,1.76-1.28,1.77-1.29l1.54-1.15,2.64,3.2-3.1,2.57-.22-.27-.28.21Z"/><path class="cls-3" d="M739.25,514.46c1.25-.4,2.56-.84,3.88-1.33l1.39,3.78c-1.38.51-2.74,1-4,1.39Zm7.73-2.82c1.23-.5,2.51-1.05,3.8-1.62l1.64,3.68c-1.33.59-2.65,1.15-3.92,1.67Zm7.56-3.36c1.23-.58,2.48-1.2,3.73-1.83l1.82,3.59c-1.28.64-2.56,1.28-3.81,1.87Zm7.41-3.75c1.2-.64,2.43-1.31,3.65-2l2,3.51c-1.24.7-2.49,1.38-3.71,2Zm7.26-4.06c1.18-.68,2.38-1.4,3.58-2.12l2.09,3.44c-1.22.74-2.45,1.47-3.64,2.16Zm7.13-4.31c1.17-.73,2.35-1.48,3.52-2.24L782,497.3c-1.18.77-2.38,1.53-3.56,2.27Zm7-4.53c1.17-.78,2.33-1.56,3.45-2.34l2.29,3.31c-1.14.79-2.32,1.59-3.5,2.38Z"/><path class="cls-3" d="M731.05,516.62l3.81-1.31.13.38.36-.09,1,3.89c-.76.2-1.51.39-2.24.55l-1.76.4Z"/><path class="cls-3" d="M714.92,469.74l3.81-1.31,1.34,3.91-3.81,1.31Zm2.69,7.82,3.8-1.31,1.35,3.9L719,481.46Zm2.69,7.81,3.8-1.31,1.35,3.91-3.81,1.31Zm2.69,7.81,3.8-1.31,1.35,3.91-3.81,1.31Zm2.68,7.82,3.81-1.32,1.35,3.91L727,504.9Zm2.69,7.81,3.81-1.31,1.34,3.9-3.8,1.31Z"/><path class="cls-3" d="M712.13,461.63c1.34-.31,2.1-.51,2.11-.51l1.8-.48,1.34,3.89-3.81,1.31-.13-.38-.41.09Z"/><path class="cls-3" d="M667.53,467.89l.75-3.95c1.37.26,2.83.48,4.31.66l-.47,4C670.54,468.41,669,468.17,667.53,467.89Zm9.19,1.11.24-4c1.42.09,2.9.14,4.4.16l-.05,4C679.75,469.15,678.2,469.09,676.72,469Zm9.06-3.91c1.43,0,2.92-.11,4.42-.22l.27,4c-1.55.11-3.08.18-4.57.23Zm8.83-.59c1.45-.15,2.94-.33,4.41-.53l.53,4c-1.51.21-3,.39-4.53.54Zm8.81-1.18c1.45-.24,2.92-.5,4.37-.78l.77,3.95c-1.49.29-3,.56-4.49.8Z"/><path class="cls-3" d="M659,465.58l1-4,3.9,1-.08.31.26.07L663,466.85c-.75-.21-1.5-.44-2.23-.68Z"/><rect class="cls-3" x="661.45" y="454.68" width="3.71" height="4.02" transform="translate(57.03 986.76) rotate(-75.71)"/></svg>