<svg id="Layer_1" data-name="Layer 1" xmlns="http://www.w3.org/2000/svg" viewBox="0 0 1366 768"><defs><style>.cls-1{fill:#ffe05c;}.cls-2{fill:#fff;}.cls-3{fill:#ed193f;}</style></defs><title>backgroundArtboard 1</title><rect class="cls-1" x="1" y="-4" width="1364" height="778.11"/><path class="cls-2" d="M939.55,191.92A332.76,332.76,0,0,0,747.75,77L744,76.22l-1.48,7.44,3.73.74a323.28,323.28,0,0,1,57.3,17.06l-32,77.27,7,2.91,32-77.27a324.22,324.22,0,0,1,98.87,66.28L853.13,227h0l-5.37,5.37,2.69,2.68a238.5,238.5,0,0,1,27.3,32.76l-30.07,20.08a199.42,199.42,0,0,0-50.07-50.08l46.52-69.63-6.31-4.21-46.5,69.59h0l-4.22,6.31,3.16,2.11a191.81,191.81,0,0,1,53.26,53.26l2.11,3.15,3.16-2.1h0L885.16,272h0l3.15-2.11-2.1-3.15a245.93,245.93,0,0,0-27.75-34.32L914.81,176a325.52,325.52,0,0,1,85.45,159.47l-39.12,7.78,1.48,7.45,39.12-7.79a323.26,323.26,0,0,1-47.1,236.47L885.16,533l-4.22,6.31,69.47,46.42a326.94,326.94,0,0,1-84.17,84.16l-20-29.94h0L842,633.62l-3.16,2.11a279.08,279.08,0,0,1-97.41,41.11l-16.32-82.05-.74-3.72-3.72.74a193.05,193.05,0,0,1-108-9.57l13.82-33.36h0l2.91-7-3.51-1.45a148.87,148.87,0,0,1-92.17-137.94c0-82.34,67-149.32,149.31-149.32s149.31,67,149.31,149.32S765.33,551.78,683,551.78h-3.79v7.59H683a156,156,0,0,0,56.52-10.54l30.59,73.86h0l2.91,7,3.51-1.46a243.1,243.1,0,0,0,76.57-50.32l28.28,28.28,5.36-5.37L858.5,572.59l-5.37-5.36-25.58-25.58a199.92,199.92,0,0,0,39.36-58.9l77.34,32,2.9-7-77.32-32A200.94,200.94,0,0,0,879,445.33l39.2,7.8,1.48-7.45-39.22-7.8a200.53,200.53,0,0,0-.71-74.56l-.74-3.72-7.44,1.48.74,3.72A193.06,193.06,0,0,1,790.26,563l-3.16,2.1,4.22,6.32,3.16-2.11A202.25,202.25,0,0,0,822.17,547l25.56,25.56a235.5,235.5,0,0,1-70.62,47.19l-30.58-73.83a156.9,156.9,0,0,0,82.84-200l73.82-30.58a235.69,235.69,0,0,1,16.61,87.1v3.79h43.7a281,281,0,0,1-5.34,50.94l-.74,3.72,7.44,1.48.74-3.72a289,289,0,0,0,5.54-56.21v-3.8H927.35a243.13,243.13,0,0,0-17.15-86.2l33.45-13.86h0l7-2.9-1.45-3.51a288.78,288.78,0,0,0-26.63-49.81l-2.11-3.16-6.31,4.22,2.11,3.15a280.92,280.92,0,0,1,24.43,45L826.45,338.94A157.86,157.86,0,0,0,746.53,259l14.92-36,1.84-4.44-3.5-1.45a200.6,200.6,0,0,0-33.93-10.65l15.6-78.39h0l1.48-7.44-3.73-.75a289.72,289.72,0,0,0-112.42,0l-3.72.75,1.48,7.44,3.72-.74A280.69,280.69,0,0,1,679.21,122v39.88h7.59V122a279.69,279.69,0,0,1,47.2,4.63L718.42,205A201,201,0,0,0,683,201.82h-3.79v7.59H683a192,192,0,0,1,70.36,13.28L739.52,256.1a156.69,156.69,0,0,0-164.7,32.82l-25.65-25.65h0l-5.36-5.37-2.69,2.69a202.37,202.37,0,0,0-22.85,27.24l-66.41-44.37a280.12,280.12,0,0,1,32.76-39.37l2.69-2.69L481.94,196l-2.68,2.68A286.68,286.68,0,0,0,416.8,292.2l-1.45,3.51,7,2.9h0l36.91,15.29,2.9-7-36.86-15.27a279.44,279.44,0,0,1,22.33-41.85L514,294.13A199.17,199.17,0,0,0,482.4,398.67H394.87v3.8a289.06,289.06,0,0,0,5.53,56.21l.74,3.72,7.45-1.48h0l39.18-7.79-1.48-7.45-39.14,7.79a282.11,282.11,0,0,1-4.65-47.21h79.9a200.44,200.44,0,0,0,13.72,69.51l-33.35,13.81h0l-7,2.9h0l-36.91,15.29,2.91,7,36.95-15.31a244.81,244.81,0,0,0,21.09,38.77l2.11,3.15,6.31-4.22L486.11,534a237.38,237.38,0,0,1-20.39-37.46L499,482.78a200.55,200.55,0,0,0,42.1,61.57l2.69,2.68,5.36-5.37L546.49,539a193.06,193.06,0,0,1-2.65-270.31l25.61,25.62a156.78,156.78,0,0,0,50,251.62l-13.86,33.46h0l-2.91,7,3.51,1.45A200.49,200.49,0,0,0,718.42,600l7.05,35.46A236.82,236.82,0,0,1,554.58,601.5l22.21-33.25L570.48,564l-22.21,33.24a239.87,239.87,0,0,1-32.71-27.36l-2.69-2.68-5.36,5.36,2.68,2.69A244.49,244.49,0,0,0,683,646.86a245.48,245.48,0,0,0,44-4l7.8,39.23h0l.74,3.72,3.72-.74a286.53,286.53,0,0,0,100.69-41l20,30A322.39,322.39,0,0,1,686.8,726.71V683H683a279.65,279.65,0,0,1-155.86-47.28L524,633.62l-4.21,6.31,3.15,2.11a287.14,287.14,0,0,0,156.29,48.53v36.14a323.17,323.17,0,0,1-222.69-92.39l28.1-28.11-5.36-5.37L451.15,629a326.5,326.5,0,0,1-35.56-43.24l33.1-22.12-4.22-6.31-33.1,22.12a323.91,323.91,0,0,1-47.16-236.47l82.08,16.32,1.48-7.44-82.09-16.33c22-104.14,94-190,189.73-231.13L586,178.13h0l2.9,7,3.51-1.45A237.37,237.37,0,0,1,633.09,171l7,35.46a199.61,199.61,0,0,0-65.43,27.1l-20.11-30.1h0l-4.22-6.31h0l-22.2-33.21-6.31,4.21,22.22,33.26a246.28,246.28,0,0,0-33.9,28.24l-2.68,2.69,5.36,5.36,2.69-2.68a236.4,236.4,0,0,1,32.75-27.3l20.06,30h0l0,.07,2.06,3.09h0l2.11,3.15,3.15-2.1a192.1,192.1,0,0,1,69.6-28.83l3.72-.74-.74-3.72h0l-.23-1.16-.51-2.57h0l-7.05-35.46h0L639,162l-3.72.74A245,245,0,0,0,593,175.27l-30.58-73.83A322.41,322.41,0,0,1,683,78.17h3.8V70.58H683A331.89,331.89,0,0,0,448.32,637.14,331.88,331.88,0,0,0,939.55,191.92Z"/><path class="cls-3" d="M715.29,42.74l0,0h0l-.1.08-.23.2-8.31,8.3a3.08,3.08,0,0,0,2.18,5.25,3,3,0,0,0,2.17-.89L714,52.66V66.82a3.08,3.08,0,1,0,6.16,0V52.29l3.26,3.26a3.08,3.08,0,0,0,5.25-2.17h0a3.07,3.07,0,0,0-.9-2.18l-8.31-8.3A3.07,3.07,0,0,0,715.29,42.74Z"/><circle class="cls-3" cx="658.39" cy="534.68" r="9.66"/><rect class="cls-3" x="714.15" y="83.6" width="6.05" height="7.4"/><path class="cls-3" d="M714.15,98.4V95h6.06v.83L721,96,720,102l-3.29-.59-2.51-.44Z"/><path class="cls-3" d="M726.9,103.26l1.12-6,7,1.33-1.15,5.94Zm13.89,2.7L742,100c2.32.47,4.67,1,7,1.44l-1.25,5.93C745.42,106.9,743.09,106.42,740.79,106Zm13.82,2.93L756,103c2.6.59,4.95,1.15,7,1.67l-1.49,5.86C759.45,110,757.16,109.47,754.61,108.89Z"/><path class="cls-3" d="M768,112.41l2-5.72a12.12,12.12,0,0,1,4.06,2l1.45,1.3-1.57,5.07-5.78-1.79.22-.73Z"/><path class="cls-3" d="M746.88,181.63l2.13-6.84,5.78,1.8-2.12,6.83ZM751.13,168l2.12-6.83,5.79,1.79-2.13,6.84Zm4.25-13.67,2.12-6.83,5.78,1.79-2.12,6.84Zm4.24-13.67,2.13-6.83,5.78,1.79-2.12,6.84Zm4.25-13.67L766,120.1l5.78,1.8-2.12,6.84Z"/><polygon class="cls-3" points="742.91 194.42 744.76 188.46 750.54 190.26 750.4 190.72 750.85 190.88 748.77 196.57 742.91 194.42"/><path class="cls-3" d="M755.36,199l2.08-5.69L764,195.7,762,201.38Zm13.18,4.81,2.07-5.68,6.59,2.4-2.08,5.69Z"/><polygon class="cls-3" points="781.71 208.61 783.79 202.92 790.01 205.2 787.27 211.23 781.76 208.73 781.8 208.64 781.71 208.61"/><path class="cls-3" d="M767.23,240.77l2.42-5.34,5.52,2.5-2.43,5.34Zm4.84-10.68,2.43-5.34,5.51,2.5-2.42,5.34Zm4.85-10.68,2.42-5.34,5.51,2.5-2.42,5.34Z"/><path class="cls-3" d="M762.14,252l2.67-5.89,5.51,2.51-.16.35.42.21-2.75,5.4c-1.8-.92-2.82-1.36-2.83-1.36Z"/><path class="cls-3" d="M773.87,257.91l3.1-5.2c2,1.21,4.08,2.51,6.13,3.88l-3.36,5C777.77,260.32,775.8,259.07,773.87,257.91Zm11.56,7.72,3.6-4.87c1.92,1.42,3.84,2.9,5.72,4.42l-3.8,4.71C789.14,268.43,787.28,267,785.43,265.63Zm10.86,8.76,4-4.55c1.8,1.58,3.59,3.22,5.33,4.89l-4.18,4.38C799.75,277.5,798,275.91,796.29,274.39ZM806.38,284l4.36-4.21c1.66,1.72,3.31,3.49,4.91,5.28l-4.51,4C809.59,287.41,808,285.69,806.38,284Zm9.32,10.41,4.66-3.86c1.52,1.84,3,3.74,4.49,5.65L820,299.9C818.63,298.06,817.17,296.22,815.7,294.44Zm8.48,11.1,5-3.5c1.38,1.95,2.74,4,4,6l-5.07,3.31C826.84,309.37,825.52,307.43,824.18,305.54Z"/><path class="cls-3" d="M831.83,317.25l5.18-3.13.32.52.51-.25,2.64,5.45-5.56,2.69-1.41-2.43Q832.67,318.65,831.83,317.25Z"/><path class="cls-3" d="M843.51,311.64l5.68-2.74,2.64,5.45-5.68,2.74Zm11.35-5.49,5.68-2.75,2.63,5.46-5.67,2.74Zm11.35-5.49,5.68-2.75,2.63,5.45-5.67,2.75Zm11.35-5.49,5.68-2.75,2.63,5.45-5.67,2.75Zm11.35-5.5,5.67-2.74,2.64,5.45-5.67,2.74Zm11.35-5.49,5.67-2.75,2.64,5.45-5.67,2.75Z"/><polygon class="cls-3" points="911.6 278.72 911.62 278.71 911.61 278.69 911.78 278.61 916.72 275.49 920.32 281.2 914.25 284.14 911.6 278.72"/><path class="cls-3" d="M890.46,245.21l5.12-3.23,3.52,5.59L894,250.8Zm7,11.17,5.12-3.23,3.52,5.59L901,262Zm7,11.17,5.12-3.23,3.53,5.58-5.12,3.23Z"/><polygon class="cls-3" points="883.71 234.51 888.41 230.7 892.22 235.41 891.7 235.83 892.06 236.4 886.94 239.63 883.71 234.51"/><path class="cls-3" d="M893.92,226.26l5.5-4.45,3.8,4.71-5.5,4.44Zm11-8.9,5.5-4.44,3.8,4.71-5.5,4.44Z"/><path class="cls-3" d="M915.92,208.47l5-4,1.9,2.37s.76.94,2.11,2.7l-4.8,3.69L920,213l-.23.18Z"/><path class="cls-3" d="M924.15,218.58,929,215c1.32,1.79,2.67,3.66,4,5.54L928.11,224C926.79,222.18,925.45,220.34,924.15,218.58Zm7.84,11,5-3.44c1.29,1.87,2.58,3.77,3.84,5.65l-5,3.36C934.54,233.28,933.26,231.4,932,229.56Zm7.49,11.21,5.09-3.29c1.24,1.93,2.48,3.87,3.66,5.78l-5.14,3.2C941.93,244.58,940.71,242.67,939.48,240.77Zm7.13,11.44,5.19-3.12c1.18,2,2.35,3.95,3.47,5.9L950,258C948.92,256.09,947.77,254.13,946.61,252.21Zm6.71,11.67,5.31-2.92c1.11,2,2.2,4.06,3.24,6l-5.37,2.8C955.49,267.86,954.42,265.86,953.32,263.88Zm6.22,11.91,5.43-2.68c1,2.09,2,4.18,3,6.2l-5.5,2.54C961.52,279.87,960.55,277.83,959.54,275.79ZM965.15,288l5.57-2.37c.91,2.15,1.78,4.29,2.59,6.38l-5.64,2.19C966.88,292.14,966,290.06,965.15,288ZM970,300.43l5.73-2c.76,2.23,1.47,4.44,2.11,6.59L972,306.77C971.38,304.71,970.7,302.58,970,300.43Z"/><path class="cls-3" d="M973.31,313.73l.51-.15-.12-.46,5.89-1.42c.27,1.13.53,2.26.76,3.36l.58,2.74L975,319.54Z"/><path class="cls-3" d="M943.68,322.42l7.4-2.17,1.71,5.81-7.41,2.17Zm14.81-4.34,7.41-2.18,1.7,5.81-7.4,2.17Z"/><path class="cls-3" d="M930.29,326.35l6-1.76,1.7,5.81-.48.14c0,.16.07.33.11.5l-5.9,1.36c-.47-2-.75-3.26-.76-3.26Z"/><path class="cls-3" d="M933.11,338.58l5.91-1.33c.43,1.9.89,4,1.38,6.22l-5.91,1.3C934,342.56,933.54,340.47,933.11,338.58ZM935.83,351l5.92-1.26c.44,2.06.88,4.16,1.31,6.25l-5.93,1.21C936.71,355.1,936.27,353,935.83,351Zm2.53,12.4,5.95-1.14c.44,2.3.83,4.42,1.16,6.31l-6,1C939.18,367.72,938.8,365.64,938.36,363.37Z"/><path class="cls-3" d="M940.44,375.7l6-.75c0,.14,0,.28,0,.42l.32,0,.57,6-6.52.61-.14-3.18C940.7,378,940.6,377,940.44,375.7Z"/><path class="cls-3" d="M954,374.66l7.18-.68.57,6-7.18.68Zm14.36-1.36,7.18-.68.57,6-7.18.67Z"/><path class="cls-3" d="M982.72,371.94l6.28-.6.36,2.92c0,.05.16,1.24.35,3.45l-6,.53,0-.31-.36,0Z"/><path class="cls-3" d="M953.37,534.37c1.06-1.93,2.12-3.92,3.13-5.91l5.39,2.75c-1,2-2.12,4.09-3.22,6.08Zm6.08-11.93c.94-2,1.87-4.05,2.77-6.1l5.55,2.42c-.92,2.11-1.88,4.21-2.84,6.27Zm5.36-12.28c.82-2.05,1.64-4.16,2.41-6.25l5.68,2.1c-.79,2.14-1.63,4.3-2.48,6.41Zm4.65-12.57c.72-2.11,1.41-4.25,2.08-6.39l5.78,1.8c-.68,2.18-1.39,4.38-2.12,6.53Zm4-12.82c.6-2.14,1.19-4.32,1.74-6.49l5.87,1.5c-.57,2.22-1.17,4.45-1.79,6.63Zm3.33-13c.5-2.17,1-4.38,1.43-6.57l5.93,1.22c-.46,2.24-.95,4.5-1.46,6.71Zm2.71-13.17c.4-2.18.78-4.41,1.14-6.63l6,1c-.36,2.26-.75,4.53-1.16,6.76Zm2.12-13.28c.31-2.21.59-4.45.85-6.67l6,.69c-.26,2.26-.55,4.55-.86,6.8ZM983.16,432c.21-2.23.4-4.48.57-6.71l6,.45c-.16,2.26-.36,4.56-.57,6.83Zm1-13.43c.12-2.23.22-4.5.29-6.72l6,.2c-.07,2.26-.17,4.57-.29,6.85Zm0-33.6,6-.35c.13,2.23.23,4.53.31,6.86l-6,.2C984.38,389.35,984.28,387.09,984.16,384.92Zm.43,20.15c0-2.35,0-4.6,0-6.72l6-.06q0,3.25,0,6.85Z"/><path class="cls-3" d="M946.59,545.85l2.64-5.45.54.26.29-.49,5.21,3.08c-.57,1-1.16,2-1.76,2.92l-1.43,2.34Z"/><path class="cls-3" d="M885.64,516.31l2.64-5.45,6.09,2.95-2.64,5.45Zm12.19,5.91,2.64-5.45,6.09,3-2.64,5.45Zm12.19,5.9,2.64-5.44,6.09,3-2.64,5.45ZM922.21,534l2.64-5.45,6.09,3L928.3,537Zm12.19,5.91,2.64-5.45,6.09,3-2.64,5.44Z"/><polygon class="cls-3" points="873.39 510.01 876.92 505.36 882.18 507.91 879.54 513.36 878.75 512.97 878.22 513.67 873.39 510.01"/><path class="cls-3" d="M856.23,532.63l4.29-5.65,4.82,3.66-4.29,5.65Zm8.58-11.31,4.29-5.65,4.82,3.66L869.63,525Z"/><polygon class="cls-3" points="848.22 543.19 851.94 538.29 856.76 541.95 856.42 542.4 856.84 542.77 852.81 547.29 848.22 543.19"/><path class="cls-3" d="M858,551.88l4-4.52,5.14,4.59-4,4.52Zm10.29,9.17,4-4.51,5.14,4.58-4,4.52Zm10.29,9.18,4-4.52,5.14,4.59-4,4.52Zm10.29,9.17,4-4.52,5.14,4.59L894,584Zm10.29,9.18,4-4.52,5.14,4.59-4,4.51Z"/><path class="cls-3" d="M909.41,597.75l4-4.52,4.54,4-1.58,2.21s-.76,1-2.1,2.78l-4.78-3.71.32-.42Z"/><path class="cls-3" d="M879.75,628.81c1.81-1.43,3.64-3,5.44-4.53l4,4.57c-1.87,1.63-3.77,3.21-5.65,4.7Zm10.68-9.29c1.69-1.6,3.39-3.27,5.06-5l4.33,4.23c-1.72,1.76-3.48,3.49-5.23,5.14Zm9.94-10.13c1.6-1.76,3.17-3.55,4.69-5.34l4.61,3.91c-1.55,1.84-3.18,3.69-4.83,5.5Z"/><path class="cls-3" d="M868.65,636.78l4.67-3.85.37.44.43-.31,3.53,4.93c-.93.66-1.87,1.32-2.83,2l-2.28,1.55Z"/><path class="cls-3" d="M852.52,617.23l4.67-3.85,4,4.88-4.67,3.86Zm8.07,9.77,4.67-3.85,4,4.89-4.67,3.85Z"/><path class="cls-3" d="M844.21,607.34c1.71-1.23,2.65-1.93,2.66-1.94l2.32-1.73,4,4.82-4.67,3.85-.32-.39-.43.31Z"/><path class="cls-3" d="M767.59,648.8c1.89-.6,3.86-1.28,5.85-2l2.08,5.69c-2.07.75-4.12,1.46-6.09,2.09Zm11.63-4.25c1.86-.76,3.78-1.58,5.72-2.44l2.46,5.53c-2,.89-4,1.73-5.89,2.52Zm11.38-5c1.84-.88,3.72-1.81,5.6-2.76l2.73,5.4c-1.91,1-3.84,1.92-5.72,2.82Zm11.14-5.64c1.8-1,3.65-2,5.48-3l3,5.28c-1.87,1.05-3.75,2.08-5.59,3.06Zm10.92-6.11c1.77-1,3.58-2.1,5.39-3.19l3.13,5.18c-1.83,1.11-3.68,2.2-5.47,3.24Zm10.72-6.48c1.76-1.1,3.54-2.23,5.29-3.37L832,623c-1.78,1.15-3.58,2.3-5.37,3.41Zm10.53-6.81c1.75-1.17,3.5-2.36,5.18-3.52l3.44,5c-1.71,1.18-3.48,2.38-5.26,3.57Z"/><path class="cls-3" d="M755.27,652l5.72-2,.2.57.53-.13,1.54,5.85c-1.13.3-2.27.58-3.37.83l-2.64.6Z"/><path class="cls-3" d="M731,581.54l5.73-2,2,5.87-5.72,2Zm4,11.75,5.72-2,2,5.87-5.73,2Zm4,11.75,5.73-2,2,5.87-5.73,2Zm4,11.75,5.72-2,2,5.87-5.72,2Zm4,11.75,5.72-2,2,5.87-5.73,2Zm4,11.75,5.73-2,2,5.87-5.72,2Z"/><path class="cls-3" d="M726.81,569.34c2-.47,3.16-.77,3.17-.77l2.72-.72,2,5.84-5.73,2-.19-.57-.63.15Z"/><path class="cls-3" d="M659.74,578.76l1.12-6c2.07.39,4.25.72,6.49,1l-.72,6C664.26,579.53,661.94,579.17,659.74,578.76Zm13.81,1.66.37-6c2.13.13,4.36.21,6.61.23l-.07,6.06C678.11,580.64,675.78,580.56,673.55,580.42Zm13.62-5.88c2.17-.06,4.4-.17,6.65-.33l.41,6c-2.32.16-4.63.28-6.87.34Zm13.29-.89c2.19-.23,4.42-.49,6.64-.79l.8,6c-2.28.31-4.58.58-6.82.81Zm13.25-1.77c2.18-.36,4.4-.75,6.57-1.17l1.16,5.94c-2.24.43-4.51.84-6.76,1.2Z"/><path class="cls-3" d="M646.85,575.28l1.53-6,5.86,1.5-.11.46.38.1-1.61,5.84c-1.14-.32-2.27-.66-3.36-1Z"/><rect class="cls-3" x="650.59" y="558.88" width="5.59" height="6.05" transform="translate(-52.41 1056.39) rotate(-75.71)"/></svg>