<svg id="Layer_1" data-name="Layer 1" xmlns="http://www.w3.org/2000/svg" viewBox="0 0 1366 768"><defs><style>.cls-1{fill:#ffe05c;}.cls-2{fill:#fff;}.cls-3{fill:#ed193f;}</style></defs><title>backgroundArtboard 1</title><rect class="cls-1" x="1" y="-4" width="1364" height="778.11"/><path class="cls-2" d="M891.38,191.77A270.24,270.24,0,0,0,735.59,98.4l-3-.61-1.21,6,3,.6a261.4,261.4,0,0,1,46.54,13.86l-26,62.76,5.69,2.36,26-62.76a263.31,263.31,0,0,1,80.3,53.84l-45.75,45.74h0l-4.35,4.36,2.17,2.18a192,192,0,0,1,22.18,26.6L816.76,269.7A161.93,161.93,0,0,0,776.09,229l37.78-56.55L808.75,169,771,225.56h0l-3.42,5.13,2.56,1.71a156.15,156.15,0,0,1,43.26,43.26l1.71,2.57,2.57-1.71h0l29.54-19.74h0l2.56-1.72-1.71-2.56a199.76,199.76,0,0,0-22.53-27.87l45.77-45.77a264.39,264.39,0,0,1,69.4,129.52l-31.77,6.32,1.2,6.05,31.78-6.32A262.65,262.65,0,0,1,903.63,506.5L847.2,468.79l-3.43,5.13,56.43,37.7A265.72,265.72,0,0,1,831.84,580l-16.25-24.32h0l-3.43-5.12-2.56,1.71a226.87,226.87,0,0,1-79.13,33.39L717.22,519l-.6-3-3,.6a156.78,156.78,0,0,1-87.73-7.78l11.22-27.1h0l2.36-5.69-2.85-1.18A121.28,121.28,0,1,1,683,484.06h-3.08v6.17H683a126.83,126.83,0,0,0,45.91-8.56l24.85,60h0l2.36,5.69,2.85-1.17a197.73,197.73,0,0,0,62.19-40.88l23,23,4.36-4.36-23-22.94-4.36-4.36-20.77-20.78a162.51,162.51,0,0,0,32-47.84l62.81,26,2.36-5.69-62.8-26a162.55,162.55,0,0,0,7.48-24.7l31.84,6.33,1.2-6.05-31.85-6.33a163.27,163.27,0,0,0-.58-60.56l-.6-3-6,1.21.61,3a156.83,156.83,0,0,1-66.68,161l-2.56,1.71L771,500l2.56-1.71A163.31,163.31,0,0,0,796,480.18l20.76,20.76a191.29,191.29,0,0,1-57.36,38.33l-24.84-60a127.42,127.42,0,0,0,67.28-162.43l60-24.83a191.25,191.25,0,0,1,13.5,70.74v3.08h35.49a228.07,228.07,0,0,1-4.34,41.38l-.6,3,6.05,1.2.6-3a234.85,234.85,0,0,0,4.5-45.66V359.7H881.47a197.4,197.4,0,0,0-13.93-70l27.17-11.25h0l5.69-2.36-1.18-2.85a233.93,233.93,0,0,0-21.63-40.46l-1.71-2.56-5.13,3.42,1.72,2.57a227.73,227.73,0,0,1,19.84,36.56l-92.79,38.43a128.21,128.21,0,0,0-64.92-64.91L746.72,217l1.5-3.61-2.85-1.17a163.79,163.79,0,0,0-27.55-8.66l12.66-63.67h0l1.2-6-3-.61a235.44,235.44,0,0,0-91.32,0l-3,.61,1.2,6,3-.6A228.55,228.55,0,0,1,679.92,135v32.39h6.16V135a228.17,228.17,0,0,1,38.35,3.76l-12.66,63.63A163.2,163.2,0,0,0,683,199.81h-3.08V206H683a155.92,155.92,0,0,1,57.15,10.79L728.91,243.9a127.28,127.28,0,0,0-133.78,26.66L574.3,249.72h0l-4.36-4.36-2.18,2.18a165.28,165.28,0,0,0-18.56,22.13l-53.94-36a228.61,228.61,0,0,1,26.61-32l2.18-2.18-4.36-4.36-2.18,2.18a233,233,0,0,0-50.73,75.93l-1.18,2.85,5.7,2.36h0l30,12.42,2.35-5.7-29.94-12.4a226.69,226.69,0,0,1,18.15-34l53.93,36a161.7,161.7,0,0,0-25.7,84.91H449v3.08a234.84,234.84,0,0,0,4.49,45.66l.6,3,6.05-1.2h0l31.83-6.33-1.21-6.05L459,404.21a228.4,228.4,0,0,1-3.78-38.35h64.9a162.64,162.64,0,0,0,11.14,56.46l-27.09,11.22h0l-5.69,2.36h0l-30,12.42,2.36,5.69,30-12.43A199.41,199.41,0,0,0,518,473.07l1.72,2.56,5.12-3.43-1.71-2.56a192.14,192.14,0,0,1-16.56-30.42L533.57,428a162.89,162.89,0,0,0,34.19,50l2.18,2.18,4.36-4.36-2.18-2.18A156.78,156.78,0,0,1,570,254.11l20.8,20.81a127.34,127.34,0,0,0,40.64,204.37l-11.26,27.18h0l-2.36,5.7,2.84,1.18a162.74,162.74,0,0,0,91.14,9.84l5.72,28.8a192.41,192.41,0,0,1-138.8-27.55l18-27L591.61,494l-18,27A194.65,194.65,0,0,1,547,498.79l-2.18-2.18L540.46,501l2.18,2.17A198.33,198.33,0,0,0,718.7,558L725,589.9h0l.61,3,3-.6a232.86,232.86,0,0,0,81.78-33.26l16.27,24.35a261.67,261.67,0,0,1-140.63,42.73V590.65H683a227.17,227.17,0,0,1-126.6-38.4l-2.56-1.71-3.42,5.12,2.56,1.71a233.25,233.25,0,0,0,126.94,39.42v29.35A262.47,262.47,0,0,1,499,551.1l22.83-22.83-4.36-4.36-22.83,22.83a266.06,266.06,0,0,1-28.88-35.12l26.88-18-3.42-5.13-26.89,18a263.09,263.09,0,0,1-38.3-192.08l66.66,13.26,1.21-6.05-66.67-13.26C443.1,223.79,501.64,154,579.37,120.64l24.82,59.93h0l2.36,5.69,2.85-1.18a192.75,192.75,0,0,1,33.06-10.3l5.73,28.8a162.09,162.09,0,0,0-53.15,22l-16.33-24.44h0L575.28,196h0l-18-27-5.12,3.43,18,27a197.61,197.61,0,0,0-27.54,22.94l-2.18,2.18,4.36,4.36,2.18-2.18a193.39,193.39,0,0,1,26.6-22.18L589.89,229h0l0,.06,1.68,2.5h0l1.71,2.57,2.56-1.72A156.06,156.06,0,0,1,652.41,209l3-.6-.6-3h0l-.18-.93-.42-2.09h0l-5.73-28.8h0l-1.2-6-3,.6a198.89,198.89,0,0,0-34.38,10.15l-24.84-60A262,262,0,0,1,683,99.38h3.08V93.22H683a269.56,269.56,0,1,0,208.38,98.55Z"/><path class="cls-3" d="M709.23,70.6l0,0h0l-.08.06-.19.16-6.75,6.74a2.5,2.5,0,0,0,3.54,3.54l2.48-2.48v11.5a2.5,2.5,0,0,0,5,0V78.36L715.83,81a2.52,2.52,0,0,0,3.54,0,2.49,2.49,0,0,0,.73-1.77h0a2.47,2.47,0,0,0-.74-1.77l-6.75-6.74A2.49,2.49,0,0,0,709.23,70.6Z"/><circle class="cls-3" cx="663.01" cy="470.17" r="7.84"/><rect class="cls-3" x="708.3" y="103.79" width="4.92" height="6.01"/><path class="cls-3" d="M708.3,115.81v-2.73h4.92v.67l.67.12-.88,4.84-2.67-.48-2-.36Z"/><path class="cls-3" d="M718.66,119.76l.91-4.84c1.73.33,3.65.69,5.67,1.09l-.93,4.82ZM729.94,122l1-4.82c1.89.38,3.79.77,5.67,1.17l-1,4.81C733.7,122.71,731.81,122.32,729.94,122Zm11.22,2.38,1.09-4.79c2.11.48,4,.93,5.67,1.35l-1.22,4.77C745.1,125.25,743.23,124.8,741.16,124.33Z"/><path class="cls-3" d="M752,127.19l1.61-4.65a9.92,9.92,0,0,1,3.3,1.63l1.18,1-1.28,4.13-4.7-1.46.19-.6Z"/><path class="cls-3" d="M734.89,183.41l1.72-5.55,4.7,1.45-1.72,5.56Zm3.45-11.11,1.72-5.55,4.7,1.46L743,173.76Zm3.45-11.1,1.72-5.55,4.7,1.46-1.73,5.55Zm3.45-11.1,1.72-5.56,4.7,1.46-1.73,5.55ZM748.69,139l1.72-5.55,4.7,1.46-1.73,5.55Z"/><polygon class="cls-3" points="731.66 193.8 733.16 188.96 737.86 190.42 737.75 190.79 738.11 190.93 736.42 195.54 731.66 193.8"/><path class="cls-3" d="M741.77,197.5l1.69-4.62,5.35,2-1.69,4.62Zm10.7,3.91,1.69-4.62,5.35,2-1.69,4.62Z"/><polygon class="cls-3" points="763.17 205.32 764.86 200.71 769.92 202.55 767.7 207.46 763.22 205.43 763.25 205.35 763.17 205.32"/><path class="cls-3" d="M751.41,231.44l2-4.33,4.48,2-2,4.34Zm3.94-8.67,2-4.34,4.47,2-2,4.33Zm3.93-8.67,2-4.34,4.48,2-2,4.34Z"/><path class="cls-3" d="M747.28,240.56l2.17-4.78,4.48,2-.13.29.34.17-2.24,4.38c-1.46-.74-2.29-1.1-2.3-1.1Z"/><path class="cls-3" d="M756.8,245.37l2.52-4.22c1.65,1,3.32,2,5,3.15l-2.74,4.09C760,247.32,758.37,246.31,756.8,245.37Zm9.4,6.27,2.92-4c1.56,1.15,3.12,2.36,4.65,3.6l-3.09,3.82C769.21,253.91,767.7,252.75,766.2,251.64Zm8.81,7.11,3.25-3.69c1.46,1.28,2.91,2.62,4.33,4l-3.4,3.56C777.83,261.28,776.42,260,775,258.75Zm8.21,7.83,3.53-3.42c1.35,1.4,2.7,2.84,4,4.3l-3.67,3.27C785.82,269.33,784.52,267.93,783.22,266.58Zm7.56,8.46,3.79-3.14c1.24,1.5,2.46,3,3.65,4.59l-3.91,3C793.17,278,792,276.49,790.78,275Zm6.89,9,4-2.84c1.12,1.59,2.23,3.22,3.29,4.85l-4.11,2.69C799.83,287.17,798.76,285.59,797.67,284.05Z"/><path class="cls-3" d="M803.88,293.56,808.1,291c.08.14.16.28.25.42l.42-.2,2.14,4.42-4.52,2.19-1.14-2C804.8,295.1,804.34,294.33,803.88,293.56Z"/><path class="cls-3" d="M813.38,289l4.6-2.23,2.15,4.43-4.61,2.23Zm9.21-4.46,4.61-2.23,2.14,4.43-4.6,2.23Zm9.22-4.46,4.61-2.23,2.14,4.43L834,284.52Zm9.22-4.46,4.61-2.23,2.14,4.43-4.61,2.23Zm9.22-4.46,4.61-2.23,2.14,4.42-4.61,2.24Zm9.21-4.46,4.61-2.23,2.15,4.42-4.61,2.23Z"/><polygon class="cls-3" points="868.68 262.27 868.69 262.26 868.68 262.25 868.82 262.18 872.83 259.65 875.76 264.28 870.83 266.67 868.68 262.27"/><path class="cls-3" d="M851.51,235.06l4.15-2.63,2.87,4.54-4.16,2.62Zm5.72,9.07,4.16-2.63,2.86,4.54-4.16,2.62ZM863,253.2l4.16-2.62,2.86,4.53-4.16,2.63Z"/><polygon class="cls-3" points="846.02 226.36 849.85 223.27 852.94 227.09 852.51 227.44 852.8 227.9 848.64 230.52 846.02 226.36"/><path class="cls-3" d="M854.31,219.66l4.47-3.61,3.09,3.82-4.47,3.61Zm8.94-7.22,4.47-3.61,3.09,3.82-4.47,3.61Z"/><path class="cls-3" d="M872.19,205.21l4-3.26,1.54,1.92s.62.77,1.71,2.19l-3.89,3-.13-.17-.18.15Z"/><path class="cls-3" d="M878.87,213.42l4-2.92c1.07,1.46,2.17,3,3.26,4.5l-4,2.86C881,216.35,879.93,214.86,878.87,213.42Zm6.37,8.92,4-2.8c1.05,1.52,2.1,3.07,3.12,4.6l-4.09,2.73C887.31,225.36,886.27,223.84,885.24,222.34Zm6.08,9.11,4.13-2.67c1,1.56,2,3.14,3,4.69l-4.17,2.6C893.31,234.55,892.32,233,891.32,231.45Zm5.79,9.29,4.22-2.53c1,1.59,1.9,3.2,2.82,4.79l-4.26,2.45C899,243.89,898.05,242.3,897.11,240.74Zm5.46,9.47,4.31-2.36c.9,1.64,1.78,3.29,2.63,4.9L905.15,255C904.32,253.45,903.45,251.83,902.57,250.21Zm5,9.68,4.41-2.17c.83,1.69,1.64,3.39,2.4,5L910,264.81C909.22,263.2,908.43,261.55,907.62,259.89Zm4.55,9.9,4.52-1.93c.75,1.74,1.45,3.49,2.11,5.18l-4.58,1.78C913.58,273.17,912.89,271.48,912.17,269.79Zm3.91,10.12,4.65-1.6c.62,1.8,1.2,3.6,1.72,5.35l-4.72,1.4C917.23,283.38,916.68,281.65,916.08,279.91Z"/><path class="cls-3" d="M918.8,290.71l.41-.12-.09-.38,4.78-1.15c.22.92.43,1.84.62,2.73L925,294l-4.81,1.41Z"/><path class="cls-3" d="M894.73,297.77l6-1.77,1.38,4.72-6,1.77Zm12-3.53,6-1.77,1.39,4.72-6,1.77Z"/><path class="cls-3" d="M883.85,301l4.86-1.43,1.39,4.72-.4.11c0,.13.06.27.1.41l-4.79,1.1-.62-2.65Z"/><path class="cls-3" d="M886.15,310.89l4.8-1.08c.34,1.54.73,3.25,1.12,5.05l-4.8,1.06C886.87,314.13,886.5,312.43,886.15,310.89ZM888.36,321l4.81-1c.36,1.67.71,3.38,1.06,5.08l-4.82,1C889.07,324.31,888.71,322.62,888.36,321ZM890.42,331l4.82-.93c.36,1.87.68,3.59,1,5.13l-4.85.83C891.08,334.56,890.77,332.87,890.42,331Z"/><path class="cls-3" d="M892.1,341l4.88-.61c0,.12,0,.23,0,.34l.26,0,.47,4.89-5.3.51-.11-2.59C892.31,342.92,892.23,342.07,892.1,341Z"/><path class="cls-3" d="M903.12,340.2l5.83-.56.46,4.9-5.83.55Zm11.66-1.11,5.83-.55.47,4.89-5.84.56Z"/><path class="cls-3" d="M926.45,338l5.09-.49.3,2.37s.12,1,.28,2.81l-4.9.43a2.28,2.28,0,0,0,0-.26l-.29,0Z"/><path class="cls-3" d="M902.6,469.92c.87-1.57,1.72-3.18,2.55-4.8l4.38,2.23c-.85,1.66-1.73,3.33-2.62,4.94Zm4.94-9.69c.77-1.62,1.52-3.29,2.25-5l4.51,2c-.75,1.71-1.52,3.42-2.31,5.09Zm4.35-10c.68-1.67,1.34-3.38,2-5.08l4.62,1.7c-.65,1.75-1.33,3.5-2,5.21ZM915.68,440c.58-1.7,1.14-3.45,1.68-5.18l4.7,1.46c-.55,1.77-1.14,3.56-1.73,5.3Zm3.23-10.41c.49-1.73,1-3.5,1.42-5.27l4.76,1.22c-.46,1.81-1,3.62-1.45,5.39Zm2.71-10.57c.4-1.76.8-3.55,1.16-5.33l4.82,1c-.38,1.82-.78,3.65-1.19,5.45Zm2.2-10.69c.33-1.77.64-3.58.92-5.38l4.86.77c-.29,1.84-.61,3.68-.94,5.49Zm1.72-10.79c.25-1.79.48-3.62.69-5.42l4.89.57c-.22,1.83-.45,3.69-.7,5.52Zm1.26-10.85c.17-1.81.33-3.64.46-5.45l4.9.36c-.13,1.84-.29,3.71-.46,5.55Zm.81-10.9c.09-1.82.17-3.66.23-5.47l4.91.16c-.06,1.84-.14,3.71-.23,5.57Zm0-27.3,4.91-.28c.11,1.81.19,3.68.25,5.57l-4.92.16C927.79,352.13,927.71,350.3,927.61,348.53ZM928,364.9c0-1.91,0-3.74,0-5.46l4.91-.05c0,1.76,0,3.62,0,5.57Z"/><path class="cls-3" d="M897.09,479.24l2.15-4.42.44.21.24-.4,4.23,2.5c-.47.8-.95,1.59-1.43,2.38l-1.17,1.89Z"/><path class="cls-3" d="M847.59,455.25l2.14-4.43,4.95,2.4-2.14,4.43Zm9.9,4.8,2.14-4.43,5,2.4-2.15,4.43Zm9.9,4.8,2.15-4.43,5,2.4-2.15,4.43Zm9.9,4.8,2.15-4.43,4.95,2.4L882.24,472Zm9.9,4.79,2.15-4.42,4.95,2.4-2.15,4.42Z"/><polygon class="cls-3" points="837.64 450.14 840.51 446.36 844.78 448.43 842.64 452.85 841.99 452.54 841.56 453.11 837.64 450.14"/><path class="cls-3" d="M823.7,468.51l3.49-4.59,3.92,3-3.49,4.59Zm7-9.19,3.49-4.59,3.92,3-3.49,4.59Z"/><polygon class="cls-3" points="817.19 477.09 820.22 473.1 824.13 476.07 823.86 476.44 824.2 476.75 820.93 480.42 817.19 477.09"/><path class="cls-3" d="M825.11,484.14l3.27-3.67,4.18,3.73-3.27,3.67Zm8.36,7.45,3.27-3.67,4.18,3.73-3.28,3.67Zm8.35,7.46,3.28-3.67,4.17,3.72L846,502.77Zm8.36,7.45,3.27-3.67,4.18,3.72-3.27,3.67Zm8.36,7.45,3.27-3.67L866,514l-3.27,3.67Z"/><path class="cls-3" d="M866.9,521.4l3.27-3.67,3.69,3.29-1.29,1.79s-.61.86-1.7,2.26l-3.88-3,.26-.34Z"/><path class="cls-3" d="M842.81,546.63c1.47-1.17,3-2.41,4.42-3.68l3.22,3.71c-1.51,1.32-3.06,2.61-4.58,3.82Zm8.68-7.55c1.37-1.3,2.75-2.66,4.1-4l3.52,3.44c-1.4,1.43-2.83,2.83-4.25,4.17Zm8.06-8.23c1.3-1.43,2.58-2.88,3.81-4.33l3.75,3.17c-1.26,1.5-2.58,3-3.92,4.47Z"/><path class="cls-3" d="M833.79,553.1l3.79-3.13.3.36.36-.25,2.86,4c-.76.54-1.52,1.07-2.3,1.6L837,556.93Z"/><path class="cls-3" d="M820.69,537.22l3.8-3.13,3.27,4L824,541.19Zm6.55,7.94L831,542l3.27,4-3.79,3.13Z"/><path class="cls-3" d="M813.94,529.19c1.39-1,2.15-1.57,2.16-1.58l1.88-1.4,3.23,3.91-3.79,3.13-.26-.32-.35.25Z"/><path class="cls-3" d="M751.71,562.86c1.54-.49,3.13-1,4.75-1.63l1.69,4.62c-1.68.62-3.35,1.19-4.95,1.7Zm9.44-3.45c1.51-.61,3.08-1.28,4.65-2l2,4.49c-1.62.72-3.23,1.41-4.79,2Zm9.24-4.1c1.5-.72,3-1.47,4.55-2.24l2.23,4.38c-1.56.79-3.12,1.56-4.66,2.3Zm9.05-4.58c1.47-.79,3-1.6,4.46-2.44l2.4,4.29c-1.52.85-3,1.69-4.54,2.48Zm8.88-5c1.43-.84,2.9-1.71,4.37-2.6l2.54,4.21c-1.49.9-3,1.79-4.44,2.64Zm8.7-5.27c1.43-.89,2.88-1.81,4.3-2.73L804,541.9c-1.44.93-2.91,1.86-4.36,2.77Zm8.55-5.53c1.43-1,2.85-1.91,4.21-2.86l2.8,4c-1.39,1-2.83,1.93-4.27,2.9Z"/><path class="cls-3" d="M741.7,565.49l4.65-1.6.16.47.43-.11,1.25,4.75c-.92.25-1.84.47-2.73.67l-2.15.49Z"/><path class="cls-3" d="M722,508.23l4.65-1.6,1.64,4.77-4.65,1.6Zm3.29,9.54,4.65-1.6,1.64,4.78-4.65,1.6Zm3.28,9.55,4.65-1.6,1.64,4.77-4.65,1.6Zm3.29,9.54,4.64-1.6,1.65,4.77-4.65,1.6Zm3.28,9.55,4.65-1.6,1.64,4.77-4.65,1.6Zm3.28,9.54,4.65-1.6,1.65,4.77-4.65,1.6Z"/><path class="cls-3" d="M718.58,498.32c1.64-.37,2.57-.62,2.58-.62l2.21-.58,1.63,4.74-4.65,1.6-.16-.47-.51.12Z"/><path class="cls-3" d="M664.11,506l.91-4.83c1.68.32,3.45.59,5.27.8l-.58,4.89C667.78,506.6,665.89,506.31,664.11,506Zm11.22,1.35.29-4.9c1.73.1,3.54.16,5.38.19l-.06,4.91C679,507.5,677.14,507.43,675.33,507.32Zm11.06-4.77c1.76-.05,3.57-.14,5.4-.27l.33,4.91c-1.88.13-3.76.22-5.58.27Zm10.8-.73c1.77-.18,3.58-.4,5.38-.64l.65,4.88c-1.85.25-3.71.47-5.53.65Zm10.75-1.43c1.78-.29,3.58-.62,5.34-1l.94,4.83c-1.82.35-3.66.68-5.49,1Z"/><path class="cls-3" d="M653.64,503.15l1.24-4.87,4.76,1.21-.09.37.31.09-1.31,4.74c-.93-.26-1.84-.53-2.73-.82Z"/><rect class="cls-3" x="656.67" y="489.83" width="4.54" height="4.92" transform="translate(19.25 1009.34) rotate(-75.71)"/></svg>