<svg id="Layer_1" data-name="Layer 1" xmlns="http://www.w3.org/2000/svg" viewBox="0 0 1366 768"><defs><style>.cls-1{fill:#ffe05c;}.cls-2{fill:#fff;}.cls-3{fill:#ed193f;}</style></defs><title>twitterArtboard 1</title><rect class="cls-1" x="1" y="-4" width="1364" height="778.11"/><path class="cls-2" d="M895.08,210.94a275,275,0,0,0-158.55-95l-3.08-.61-1.23,6.15,3.08.61a266.18,266.18,0,0,1,47.38,14.11L756.22,200l5.79,2.4,26.46-63.87a268.13,268.13,0,0,1,81.73,54.79l-46.56,46.56h0l-4.43,4.44,2.21,2.22A195.57,195.57,0,0,1,844,273.64l-24.85,16.61a164.7,164.7,0,0,0-41.4-41.4l38.46-57.56L811,187.8l-38.43,57.53h0l-3.49,5.22,2.61,1.74a158.84,158.84,0,0,1,44,44l1.74,2.61,2.61-1.74h0l30.07-20.09h0l2.61-1.75L851,272.74a202.91,202.91,0,0,0-22.94-28.37l46.59-46.58a269.12,269.12,0,0,1,70.63,131.83l-32.34,6.43,1.23,6.16,32.34-6.43a267.17,267.17,0,0,1-38.94,195.48l-57.44-38.38-3.49,5.22,57.43,38.37a270.13,270.13,0,0,1-69.58,69.58L818,581.3h0l-3.49-5.22-2.61,1.74a230.52,230.52,0,0,1-80.53,34L717.83,544l-.61-3.07-3.08.61A160.37,160.37,0,0,1,683,544.58a158.58,158.58,0,0,1-58.16-11L636.26,506h0l2.4-5.79-2.89-1.2A123.44,123.44,0,1,1,683,508.42h-3.14v6.28H683A129,129,0,0,0,729.72,506L755,567.05h0l2.4,5.79,2.9-1.2A200.82,200.82,0,0,0,823.61,530L847,553.42l4.44-4.44-23.35-23.35-4.44-4.44L802.5,500.05A165.53,165.53,0,0,0,835,451.36L899,477.84l2.4-5.8-63.93-26.47a164.74,164.74,0,0,0,7.62-25.15l32.4,6.45,1.23-6.16-32.42-6.44a165.94,165.94,0,0,0-.59-61.64l-.61-3.08-6.15,1.22.61,3.08a159.58,159.58,0,0,1-67.86,163.84l-2.61,1.74,3.49,5.22,2.6-1.74a167.77,167.77,0,0,0,22.9-18.43l21.13,21.12a194.6,194.6,0,0,1-58.38,39l-25.28-61A129.68,129.68,0,0,0,804,338.27L865,313a194.64,194.64,0,0,1,13.74,72v3.14h36.12a232.53,232.53,0,0,1-4.41,42.11l-.62,3.07,6.16,1.23.61-3.08A238.42,238.42,0,0,0,921.2,385v-3.14H885a201,201,0,0,0-14.18-71.26l27.65-11.46h0l5.8-2.4-1.2-2.9a238.8,238.8,0,0,0-22-41.18l-1.74-2.6-5.22,3.48,1.75,2.61A233,233,0,0,1,896,293.35l-94.44,39.12a130.57,130.57,0,0,0-66.07-66.07l12.34-29.79,1.52-3.67-2.9-1.2a166.52,166.52,0,0,0-28-8.8l12.88-64.8h0l1.23-6.16-3.08-.61a239.45,239.45,0,0,0-92.94,0l-3.08.61,1.23,6.16,3.07-.62a232.41,232.41,0,0,1,42.11-4.39v33h6.28v-33a232,232,0,0,1,39,3.82l-12.88,64.77a165.1,165.1,0,0,0-29.28-2.6h-3.14v6.27H683a158.59,158.59,0,0,1,58.16,11L729.72,264a129.55,129.55,0,0,0-136.15,27.13l-21.2-21.2h0l-4.44-4.44-2.22,2.22a169,169,0,0,0-18.89,22.52l-54.9-36.68A232.18,232.18,0,0,1,519,221l2.21-2.21-4.43-4.44-2.22,2.22a237,237,0,0,0-51.63,77.27l-1.2,2.9,5.79,2.4h0L498,311.77l2.41-5.79L470,293.35a231,231,0,0,1,18.47-34.59l54.89,36.67a164.58,164.58,0,0,0-26.16,86.42H444.81V385a239.27,239.27,0,0,0,4.57,46.47l.61,3.08,6.16-1.23h0l32.39-6.44-1.23-6.16L455,427.15a233.23,233.23,0,0,1-3.84-39h66a165.52,165.52,0,0,0,11.34,57.46L500.94,457h0l-5.79,2.41h0L464.63,472l2.41,5.8,30.54-12.65a202.3,202.3,0,0,0,17.44,32l1.74,2.61,5.22-3.48-1.75-2.61a197.33,197.33,0,0,1-16.85-31l27.53-11.41a165.88,165.88,0,0,0,34.8,50.9l2.22,2.22,4.44-4.44-2.22-2.22A159.6,159.6,0,0,1,568,274.38l21.17,21.18a129.6,129.6,0,0,0,41.36,208L619,531.24h0l-2.4,5.79,2.89,1.2A165.06,165.06,0,0,0,683,550.86a167.16,167.16,0,0,0,29.28-2.61l5.83,29.31a195.76,195.76,0,0,1-141.27-28L595.2,522,590,518.55,571.62,546a198.09,198.09,0,0,1-27-22.62l-2.22-2.22-4.44,4.44,2.22,2.22a201.86,201.86,0,0,0,179.19,55.86l6.45,32.43h0l.61,3.08,3.08-.61a236.93,236.93,0,0,0,83.24-33.86l16.56,24.79A266.41,266.41,0,0,1,686.14,653V616.91H683a231.2,231.2,0,0,1-128.85-39.09l-2.61-1.74-3.48,5.22,2.61,1.74a237.46,237.46,0,0,0,129.19,40.12V653a267.17,267.17,0,0,1-184.09-76.37L519,553.42,514.57,549l-23.24,23.24a270.42,270.42,0,0,1-29.39-35.75l27.36-18.28L485.81,513l-27.36,18.29a267.88,267.88,0,0,1-39-195.49l67.85,13.49,1.23-6.15-67.86-13.5c18.16-86.09,77.74-157.08,156.84-191.07l25.27,61h0l2.4,5.79,2.9-1.2a196.72,196.72,0,0,1,33.65-10.49L647.57,223a164.67,164.67,0,0,0-54.09,22.4l-16.63-24.88h0l-3.48-5.22h0L555,187.8l-5.22,3.49,18.37,27.49a202.68,202.68,0,0,0-28,23.35l-2.22,2.22,4.44,4.43,2.22-2.21A195.65,195.65,0,0,1,571.66,224l16.58,24.82h0l0,.05,1.7,2.55h0l1.74,2.61,2.61-1.74a159,159,0,0,1,57.54-23.83l3.07-.61-.61-3.08h0l-.19-1-.42-2.13h0l-5.83-29.31h0l-1.23-6.16-3.07.62a202.15,202.15,0,0,0-35,10.33l-25.28-61A266.54,266.54,0,0,1,683,116.9h3.14v-6.27H683A274.37,274.37,0,1,0,895.08,210.94Z"/><path class="cls-3" d="M709.69,87.61l0,0h0l-.08.06-.19.17-6.87,6.86a2.55,2.55,0,0,0,3.6,3.6l2.53-2.53v11.71a2.55,2.55,0,0,0,5.09,0v-12l2.7,2.7a2.55,2.55,0,0,0,4.34-1.8h0a2.53,2.53,0,0,0-.75-1.8l-6.87-6.87A2.54,2.54,0,0,0,709.69,87.61Z"/><circle class="cls-3" cx="662.65" cy="494.29" r="7.98"/><rect class="cls-3" x="708.75" y="121.39" width="5" height="6.12"/><path class="cls-3" d="M708.75,133.62v-2.78h5v.69l.68.12-.9,4.93-2.72-.49-2.07-.37Z"/><path class="cls-3" d="M719.29,137.64l.93-4.92,5.77,1.1-1,4.92Zm11.49,2.23,1-4.9c1.91.38,3.85.78,5.77,1.19l-1,4.89C734.6,140.65,732.68,140.25,730.78,139.87Zm11.41,2.43,1.11-4.88c2.16.49,4.1,1,5.77,1.38l-1.23,4.85C746.2,143.23,744.31,142.78,742.19,142.3Z"/><path class="cls-3" d="M753.25,145.2l1.63-4.73a10,10,0,0,1,3.36,1.66l1.21,1.07-1.31,4.2-4.78-1.48.19-.61Z"/><path class="cls-3" d="M735.81,202.42l1.76-5.65,4.78,1.49-1.76,5.65Zm3.51-11.3,1.76-5.65,4.78,1.49-1.76,5.65Zm3.51-11.3,1.76-5.65,4.78,1.48-1.76,5.66Zm3.51-11.3,1.76-5.65,4.78,1.48L751.12,170Zm3.51-11.3,1.76-5.65,4.78,1.48-1.76,5.65Z"/><polygon class="cls-3" points="732.53 213 734.06 208.08 738.84 209.56 738.72 209.94 739.09 210.08 737.37 214.78 732.53 213"/><path class="cls-3" d="M742.82,216.77l1.72-4.7,5.44,2-1.72,4.7Zm10.89,4,1.72-4.7,5.44,2-1.71,4.7Z"/><polygon class="cls-3" points="764.6 224.73 766.32 220.03 771.46 221.91 769.2 226.9 764.64 224.83 764.68 224.76 764.6 224.73"/><path class="cls-3" d="M752.63,251.32l2-4.42,4.56,2.07-2,4.41Zm4-8.83,2-4.42,4.55,2.07-2,4.42Zm4-8.83,2-4.41,4.56,2.06-2,4.42Z"/><path class="cls-3" d="M748.42,260.6l2.21-4.87,4.56,2.07-.14.29.35.17-2.27,4.46c-1.49-.76-2.34-1.12-2.35-1.12Z"/><path class="cls-3" d="M758.12,265.49l2.56-4.3c1.67,1,3.38,2.08,5.07,3.21L763,268.56C761.35,267.48,759.72,266.44,758.12,265.49Zm9.56,6.38,3-4c1.59,1.17,3.18,2.4,4.74,3.66l-3.15,3.89C770.74,274.18,769.21,273,767.68,271.87Zm9,7.24,3.31-3.76c1.48,1.31,3,2.66,4.4,4L780.9,283C779.51,281.68,778.08,280.37,776.65,279.11Zm8.35,8,3.6-3.48c1.37,1.42,2.74,2.89,4.06,4.37l-3.73,3.33C787.65,289.87,786.33,288.45,785,287.08Zm7.7,8.6,3.85-3.19c1.26,1.53,2.51,3.1,3.72,4.67l-4,3C795.13,298.68,793.92,297.16,792.7,295.68Zm7,9.18L803.8,302c1.14,1.61,2.27,3.27,3.35,4.93L803,309.64C801.91,308,800.82,306.42,799.71,304.86Z"/><path class="cls-3" d="M806,314.54l4.29-2.58.26.43.42-.21,2.18,4.5-4.59,2.23-1.17-2C807,316.1,806.5,315.31,806,314.54Z"/><path class="cls-3" d="M815.69,309.91l4.69-2.27,2.19,4.5-4.7,2.27Zm9.39-4.54,4.69-2.27,2.18,4.5-4.69,2.27Zm9.38-4.54,4.69-2.27,2.18,4.5-4.69,2.27Zm9.38-4.54,4.69-2.27,2.18,4.5L846,300.79Zm9.38-4.54,4.69-2.27,2.18,4.5-4.69,2.27Zm9.38-4.54,4.69-2.27,2.18,4.5-4.69,2.27Z"/><polygon class="cls-3" points="871.98 282.69 871.99 282.68 871.99 282.67 872.13 282.6 876.21 280.02 879.19 284.74 874.16 287.17 871.98 282.69"/><path class="cls-3" d="M854.5,255l4.23-2.67,2.92,4.62-4.23,2.67Zm5.83,9.24,4.23-2.68,2.91,4.62-4.23,2.67Zm5.82,9.23,4.23-2.67,2.92,4.61-4.23,2.67Z"/><polygon class="cls-3" points="848.92 246.14 852.81 243 855.96 246.89 855.53 247.24 855.82 247.71 851.59 250.38 848.92 246.14"/><path class="cls-3" d="M857.36,239.32l4.55-3.68,3.14,3.9-4.54,3.67Zm9.09-7.35,4.55-3.68,3.15,3.9-4.55,3.67Z"/><path class="cls-3" d="M875.55,224.62l4.11-3.33,1.58,2s.62.78,1.74,2.23l-4,3.05-.13-.17-.18.15Z"/><path class="cls-3" d="M882.35,233l4-3c1.09,1.48,2.21,3,3.32,4.58l-4.07,2.91C884.53,236,883.43,234.43,882.35,233Zm6.48,9.08L893,239.2c1.07,1.55,2.14,3.12,3.18,4.68L892,246.66C890.94,245.13,889.89,243.57,888.83,242.05Zm6.2,9.27,4.2-2.72c1,1.6,2,3.2,3,4.77L898,256C897.05,254.47,896,252.89,895,251.32Zm5.89,9.45,4.29-2.57c1,1.62,1.94,3.26,2.87,4.87l-4.34,2.5C902.83,264,901.88,262.37,900.92,260.77Zm5.55,9.65,4.39-2.41c.92,1.67,1.82,3.35,2.67,5l-4.43,2.32C908.26,273.71,907.37,272.06,906.47,270.42Zm5.14,9.85,4.49-2.21c.85,1.72,1.67,3.45,2.44,5.12l-4.54,2.1C913.24,283.64,912.44,282,911.61,280.27Zm4.63,10.07,4.61-2c.75,1.77,1.48,3.55,2.15,5.27l-4.67,1.81C917.68,293.79,917,292.06,916.24,290.34Zm4,10.3L925,299c.63,1.84,1.22,3.67,1.74,5.45l-4.8,1.42C921.4,304.17,920.83,302.41,920.22,300.64Z"/><path class="cls-3" d="M923,311.63l.42-.12-.09-.38,4.86-1.18c.23.94.44,1.88.63,2.79l.48,2.26-4.89,1.44Z"/><path class="cls-3" d="M898.49,318.82l6.13-1.8,1.41,4.8-6.13,1.8Zm12.25-3.59,6.13-1.8,1.41,4.8-6.13,1.8Z"/><path class="cls-3" d="M887.43,322.06l4.94-1.45,1.41,4.81-.4.11.09.41-4.87,1.13c-.39-1.7-.63-2.7-.63-2.7Z"/><path class="cls-3" d="M889.76,332.17l4.88-1.09c.36,1.57.75,3.3,1.15,5.14l-4.89,1.07C890.5,335.47,890.11,333.74,889.76,332.17ZM892,342.42l4.9-1.05c.36,1.71.72,3.45,1.08,5.17l-4.91,1C892.73,345.83,892.37,344.11,892,342.42Zm2.09,10.25,4.92-.94c.37,1.9.69,3.65,1,5.21l-4.94.85C894.78,356.27,894.46,354.54,894.1,352.67Z"/><path class="cls-3" d="M895.82,362.86l5-.62c0,.12,0,.23,0,.35l.26,0,.48,5-5.39.51-.12-2.63C896,364.77,896,363.91,895.82,362.86Z"/><path class="cls-3" d="M907,362l5.94-.56.47,5-5.94.56Zm11.87-1.12,5.94-.57.47,5-5.94.56Z"/><path class="cls-3" d="M930.78,359.75l5.18-.49.3,2.41s.13,1,.29,2.85l-5,.45,0-.26-.29,0Z"/><path class="cls-3" d="M906.51,494c.88-1.59,1.75-3.24,2.59-4.89l4.46,2.28c-.87,1.69-1.76,3.38-2.67,5Zm5-9.86c.77-1.65,1.54-3.35,2.28-5l4.59,2c-.76,1.74-1.55,3.48-2.35,5.18ZM916,474c.69-1.7,1.36-3.44,2-5.17l4.69,1.73c-.65,1.78-1.34,3.56-2,5.31Zm3.85-10.4c.59-1.73,1.17-3.51,1.72-5.27l4.78,1.48c-.56,1.81-1.15,3.62-1.76,5.4Zm3.3-10.6c.49-1.76,1-3.56,1.44-5.36l4.85,1.25c-.47,1.83-1,3.67-1.48,5.48Zm2.75-10.75c.41-1.79.81-3.62,1.19-5.43l4.9,1c-.38,1.85-.79,3.72-1.21,5.54Zm2.25-10.88c.32-1.81.64-3.65.93-5.48l4.94.79c-.29,1.86-.62,3.74-1,5.59Zm1.75-11c.25-1.83.48-3.68.7-5.52l5,.58c-.22,1.87-.46,3.76-.71,5.62Zm1.28-11.05c.17-1.84.33-3.7.46-5.54l5,.36c-.13,1.88-.29,3.78-.47,5.65Zm.82-11.1c.09-1.85.17-3.72.23-5.55l5,.16c-.07,1.87-.15,3.77-.25,5.66Zm0-27.78,5-.28c.1,1.84.19,3.74.25,5.67l-5,.16C932.15,374.14,932.06,372.28,932,370.48Zm.36,16.66c0-1.94,0-3.8,0-5.56l5-.05c0,1.8,0,3.69,0,5.67Z"/><path class="cls-3" d="M900.9,503.52l2.18-4.51.45.22.25-.41,4.3,2.55c-.47.81-1,1.62-1.45,2.42l-1.19,1.93Z"/><path class="cls-3" d="M850.52,479.1l2.18-4.5,5,2.44-2.19,4.5ZM860.59,484l2.19-4.5,5,2.44-2.18,4.51Zm10.08,4.89,2.18-4.51,5,2.45-2.18,4.5Zm10.08,4.88,2.18-4.5,5,2.44-2.18,4.5Zm10.07,4.89,2.19-4.51,5,2.44-2.18,4.51Z"/><polygon class="cls-3" points="840.39 473.9 843.31 470.05 847.66 472.15 845.48 476.66 844.82 476.34 844.38 476.92 840.39 473.9"/><path class="cls-3" d="M826.2,492.6l3.55-4.68,4,3-3.55,4.68Zm7.1-9.35,3.55-4.68,4,3-3.54,4.68Z"/><polygon class="cls-3" points="819.58 501.33 822.66 497.27 826.64 500.3 826.36 500.67 826.71 500.98 823.38 504.71 819.58 501.33"/><path class="cls-3" d="M827.63,508.51l3.33-3.74,4.26,3.79-3.33,3.74Zm8.51,7.58,3.33-3.73,4.25,3.79-3.33,3.73Zm8.51,7.59,3.33-3.74,4.25,3.79-3.33,3.74Zm8.5,7.58,3.34-3.74,4.25,3.8-3.33,3.73Zm8.51,7.58,3.33-3.73,4.26,3.79-3.34,3.74Z"/><path class="cls-3" d="M870.17,546.43l3.33-3.74,3.75,3.35-1.31,1.83s-.62.86-1.73,2.29l-4-3.07.27-.34Z"/><path class="cls-3" d="M845.65,572.1c1.5-1.18,3-2.44,4.5-3.74l3.28,3.77c-1.54,1.35-3.11,2.66-4.66,3.89Zm8.83-7.68c1.4-1.32,2.8-2.7,4.18-4.11l3.58,3.5c-1.43,1.46-2.88,2.89-4.32,4.25Zm8.21-8.38c1.32-1.45,2.63-2.93,3.88-4.41l3.82,3.24c-1.29,1.52-2.64,3-4,4.54Z"/><path class="cls-3" d="M836.47,578.69l3.86-3.18.31.36.36-.25,2.91,4.07c-.77.55-1.55,1.09-2.33,1.62l-1.89,1.28Z"/><path class="cls-3" d="M823.14,562.53l3.86-3.19,3.34,4-3.87,3.19Zm6.67,8.08,3.86-3.19,3.33,4.05-3.86,3.18Z"/><path class="cls-3" d="M816.27,554.35c1.41-1,2.19-1.59,2.2-1.6l1.91-1.43,3.29,4-3.86,3.19-.27-.33c-.11.09-.23.17-.36.26Z"/><path class="cls-3" d="M752.93,588.63c1.56-.5,3.19-1.06,4.83-1.66l1.73,4.7c-1.71.62-3.41,1.2-5,1.72Zm9.61-3.52c1.54-.62,3.13-1.3,4.73-2l2,4.57c-1.64.73-3.28,1.43-4.86,2.08Zm9.41-4.17c1.52-.73,3.08-1.5,4.63-2.28l2.26,4.46c-1.58.81-3.18,1.59-4.73,2.33Zm9.21-4.67c1.49-.79,3-1.62,4.53-2.47l2.45,4.36c-1.55.87-3.11,1.72-4.63,2.53Zm9-5c1.46-.85,3-1.74,4.45-2.64l2.59,4.28c-1.52.92-3,1.82-4.52,2.68Zm8.86-5.36c1.45-.91,2.93-1.85,4.37-2.78l2.72,4.2c-1.47,1-3,1.9-4.43,2.82Zm8.7-5.63c1.45-1,2.9-2,4.29-2.91l2.84,4.12c-1.41,1-2.87,2-4.35,2.95Z"/><path class="cls-3" d="M742.74,591.3l4.73-1.62.17.47.44-.11,1.27,4.84c-.94.24-1.87.47-2.78.68l-2.19.5Z"/><path class="cls-3" d="M722.68,533l4.74-1.63,1.67,4.86-4.73,1.63Zm3.35,9.72,4.73-1.63,1.67,4.86-4.73,1.62Zm3.34,9.71,4.73-1.63,1.67,4.86L731,557.31Zm3.34,9.71,4.74-1.62,1.67,4.85L734.39,567Zm3.35,9.72,4.73-1.63,1.67,4.86-4.73,1.62Zm3.34,9.71,4.73-1.63,1.67,4.86-4.73,1.63Z"/><path class="cls-3" d="M719.22,522.94c1.66-.39,2.61-.63,2.62-.64l2.24-.59,1.67,4.83L721,528.17l-.16-.48-.52.12Z"/><path class="cls-3" d="M663.77,530.72l.93-4.91c1.71.32,3.51.59,5.36.81l-.59,5C667.51,531.36,665.59,531.07,663.77,530.72Zm11.42,1.38.3-5c1.76.11,3.61.18,5.47.2l-.06,5C679,532.28,677,532.21,675.19,532.1Zm11.26-4.86c1.79,0,3.64-.14,5.5-.27l.34,5c-1.92.13-3.84.23-5.68.28Zm11-.74c1.8-.19,3.65-.4,5.48-.65l.66,5c-1.88.25-3.78.48-5.63.67ZM708.38,525c1.81-.3,3.64-.62,5.44-1l.95,4.91c-1.84.36-3.72.7-5.58,1Z"/><path class="cls-3" d="M653.12,527.85l1.26-5,4.85,1.24-.1.38.32.09-1.34,4.82c-.94-.26-1.87-.54-2.77-.84Z"/><rect class="cls-3" x="656.2" y="514.3" width="4.62" height="5" transform="translate(-4.83 1027.39) rotate(-75.71)"/></svg>